<svg width="20" height="20" viewBox="0 0 20 20" fill="none" xmlns="http://www.w3.org/2000/svg">
<path d="M16.7856 5.62632C15.5446 4.64717 14.0313 4.07891 12.4548 4L12.2387 4.24847C13.6423 4.62306 14.9506 5.29258 16.0771 6.2127C14.6414 5.41914 13.0651 4.91457 11.4367 4.72733C10.4012 4.61312 9.35589 4.62374 8.32296 4.75895C8.23491 4.76144 8.14725 4.77172 8.06101 4.78967C6.85112 4.92783 5.67056 5.25684 4.56291 5.76456C3.99219 6.02748 3.65373 6.21631 3.65373 6.21631C4.83936 5.25044 6.22239 4.55852 7.70454 4.18974L7.5506 4.00362C5.97406 4.08253 4.46082 4.65079 3.21985 5.62994C1.80906 8.42873 1.05002 11.5126 1 14.6488C1.53217 15.397 2.23933 16.0025 3.0593 16.4122C3.87928 16.8218 4.78696 17.0229 5.70254 16.9979C5.70254 16.9979 6.27235 16.3022 6.73414 15.714C5.64939 15.4405 4.69408 14.7949 4.0336 13.8889C4.0336 13.8889 4.18754 13.9974 4.4657 14.1519C4.48331 14.1706 4.50401 14.1862 4.5269 14.1979C4.57371 14.2287 4.61692 14.244 4.66643 14.2747C5.02887 14.4763 5.40486 14.6523 5.79166 14.8015C6.52493 15.0917 7.28302 15.3143 8.05651 15.4665C9.37478 15.7204 10.7286 15.7256 12.0488 15.4818C12.8171 15.3471 13.5674 15.124 14.2849 14.8168C14.9079 14.5803 15.5024 14.2742 16.0573 13.9043C15.3728 14.8293 14.3843 15.4812 13.2668 15.7448C13.7294 16.332 14.284 16.997 14.284 16.997C15.2012 17.0206 16.1103 16.8189 16.9322 16.4095C17.7541 16.0001 18.464 15.3953 19 14.6479C18.9518 11.5112 18.1946 8.42648 16.7856 5.62632ZM7.12123 13.2023C6.68686 13.1814 6.27822 12.9894 5.98397 12.668C5.68972 12.3467 5.53361 11.9218 5.54951 11.4856C5.54033 11.2693 5.57372 11.0533 5.64775 10.8499C5.72178 10.6465 5.83501 10.4598 5.98097 10.3004C6.12694 10.141 6.30276 10.012 6.49841 9.92078C6.69406 9.82959 6.9057 9.77798 7.12123 9.76892C7.33718 9.77668 7.54944 9.82741 7.7457 9.91815C7.94197 10.0089 8.11831 10.1379 8.26453 10.2976C8.41074 10.4573 8.5239 10.6445 8.59744 10.8485C8.67098 11.0524 8.70345 11.269 8.69294 11.4856C8.70212 11.7019 8.66874 11.9179 8.59471 12.1213C8.52067 12.3247 8.40744 12.5114 8.26148 12.6708C8.11552 12.8302 7.93968 12.9592 7.74403 13.0504C7.54838 13.1416 7.33675 13.1932 7.12123 13.2023ZM12.7474 13.2023C12.313 13.1814 11.9043 12.9894 11.6101 12.668C11.3158 12.3467 11.1597 11.9218 11.1756 11.4856C11.1665 11.2693 11.1998 11.0533 11.2739 10.8499C11.3479 10.6465 11.4611 10.4598 11.6071 10.3004C11.7531 10.141 11.9289 10.012 12.1245 9.92078C12.3202 9.82959 12.5318 9.77798 12.7474 9.76892C12.9629 9.77798 13.1745 9.82959 13.3702 9.92078C13.5658 10.012 13.7416 10.141 13.8876 10.3004C14.0336 10.4598 14.1468 10.6465 14.2208 10.8499C14.2949 11.0533 14.3282 11.2693 14.3191 11.4856C14.3282 11.7019 14.2949 11.9179 14.2208 12.1213C14.1468 12.3247 14.0336 12.5114 13.8876 12.6708C13.7416 12.8302 13.5658 12.9592 13.3702 13.0504C13.1745 13.1416 12.9629 13.1932 12.7474 13.2023Z" fill="#CCEFFF"/>
</svg>
