<svg width="32" height="32" viewBox="0 0 32 32" fill="none" xmlns="http://www.w3.org/2000/svg">
<path d="M6 28.001V26.051H3V24.101H0V5.90098H3V3.95098H6V2.00098H9V28.001H6Z" fill="#00CCEC"/>
<path d="M6 29.001V32.001H9V29.601V27.201H6V24.801H3V7.20098H6V4.80098H9V2.40098V0.000976562H6V3.00098H3V6.00098H0V26.001H3V29.001H6Z" fill="#00CCEC"/>
<rect width="14" height="32" transform="matrix(1 0 0 -1 9 32.0005)" fill="#00CCEC"/>
<rect width="14" height="3" transform="matrix(1 0 0 -1 9 32.0005)" fill="#00CCEC"/>
<rect width="14" height="3" transform="matrix(1 0 0 -1 9 3.00049)" fill="#00CCEC"/>
<path d="M26 30.001V27.901H29V25.801H32V6.20098H29V4.10098H26V2.00098H23V30.001H26Z" fill="#00CCEC"/>
<path d="M26 29.001V32.001H23V29.601V27.201H26V24.801H29V7.20098H26V4.80098H23V2.40098V0.000976562H26V3.00098H29V6.00098H32V26.001H29V29.001H26Z" fill="#00CCEC"/>
<path d="M23.5 19.001V16.751H21.3574V14.501H19.2139V12.251H17.0713V10.001H14.9287V12.251H12.7861V14.501H10.6426V16.751H8.5V19.001H23.5Z" fill="white"/>
</svg>
