<?xml version="1.0" encoding="UTF-8"?>
<svg xmlns="http://www.w3.org/2000/svg" width="2558" height="371" viewBox="624 137 2558 371" role="img" aria-labelledby="title">
  <title id="title">Tonigma wordmark</title>
  <g transform="translate(0 645) scale(1 -1)">
    <path d="M624.83 501.46 L961.01 501.46 L961.01 413.08 L848.22 413.08 L848.22 143.54 L737.62 143.54 L737.62 413.08 L624.83 413.08 Z M1001.01 322.26 Q1001.01 409.90 1049.84 458.73 Q1098.67 507.56 1185.83 507.56 Q1275.18 507.56 1323.52 459.58 Q1371.86 411.61 1371.86 325.19 Q1371.86 262.44 1350.74 222.28 Q1329.63 182.12 1289.71 159.78 Q1249.79 137.44 1190.22 137.44 Q1129.68 137.44 1090.00 156.73 Q1050.33 176.02 1025.67 217.76 Q1001.01 259.51 1001.01 322.26 Z M1111.61 321.77 Q1111.61 267.57 1131.75 243.89 Q1151.89 220.21 1186.56 220.21 Q1222.20 220.21 1241.74 243.40 Q1261.27 266.59 1261.27 326.65 Q1261.27 377.19 1240.88 400.50 Q1220.50 423.82 1185.58 423.82 Q1152.14 423.82 1131.87 400.14 Q1111.61 376.46 1111.61 321.77 Z M1411.86 501.46 L1515.13 501.46 L1649.90 303.46 L1649.90 501.46 L1754.15 501.46 L1754.15 143.54 L1649.90 143.54 L1515.87 340.08 L1515.87 143.54 L1411.86 143.54 Z M1794.15 501.46 L1904.99 501.46 L1904.99 143.54 L1794.15 143.54 Z M2138.59 273.18 L2138.59 347.65 L2309.49 347.65 L2309.49 195.06 Q2260.42 161.61 2222.70 149.53 Q2184.98 137.44 2133.22 137.44 Q2069.50 137.44 2029.34 159.17 Q1989.18 180.90 1967.08 223.87 Q1944.99 266.84 1944.99 322.50 Q1944.99 381.09 1969.16 424.43 Q1993.33 467.76 2039.96 490.22 Q2076.34 507.56 2137.86 507.56 Q2197.19 507.56 2226.60 496.82 Q2256.02 486.07 2275.43 463.49 Q2294.84 440.91 2304.61 406.24 L2197.92 387.20 Q2191.33 407.46 2175.58 418.20 Q2159.83 428.95 2135.42 428.95 Q2099.04 428.95 2077.43 403.68 Q2055.83 378.41 2055.83 323.72 Q2055.83 265.62 2077.68 240.71 Q2099.53 215.81 2138.59 215.81 Q2157.15 215.81 2173.99 221.18 Q2190.84 226.55 2212.57 239.49 L2212.57 273.18 Z M2349.49 501.46 L2495.00 501.46 L2551.15 283.68 L2607.06 501.46 L2752.08 501.46 L2752.08 143.54 L2661.75 143.54 L2661.75 416.49 L2591.68 143.54 L2509.89 143.54 L2440.07 416.49 L2440.07 143.54 L2349.49 143.54 Z M3048.43 202.63 L2922.45 202.63 L2905.11 143.54 L2792.08 143.54 L2926.60 501.46 L3047.20 501.46 L3181.73 143.54 L3066.00 143.54 Z M3025.23 280.02 L2985.68 408.68 L2946.37 280.02 Z" fill="#ffffff"/>
  </g>
</svg>
