<svg width="185" height="59" viewBox="0 0 185 59" fill="none" xmlns="http://www.w3.org/2000/svg">
<g filter="url(#filter0_d_1581_90844)">
<mask id="path-1-inside-1_1581_90844" fill="white">
<path d="M6.5 0.00012207H9.5V56.0001H6.5V0.00012207Z"/>
</mask>
<path d="M6.5 0.00012207H9.5V56.0001H6.5V0.00012207Z" fill="#00CCEC"/>
<path d="M6.5 0.00012207V6.00012H9.5V0.00012207V-5.99988H6.5V0.00012207ZM9.5 56.0001V50.0001H6.5V56.0001V62.0001H9.5V56.0001Z" fill="#00CCEC" mask="url(#path-1-inside-1_1581_90844)"/>
<mask id="path-3-inside-2_1581_90844" fill="white">
<path d="M3.5 3.00012H6.5V53.0001H3.5V3.00012Z"/>
</mask>
<path d="M3.5 3.00012H6.5V53.0001H3.5V3.00012Z" fill="#00CCEC"/>
<path d="M3.5 3.00012V9.00012H6.5V3.00012V-2.99988H3.5V3.00012ZM6.5 53.0001V47.0001H3.5V53.0001V59.0001H6.5V53.0001Z" fill="#00CCEC" mask="url(#path-3-inside-2_1581_90844)"/>
<rect x="1.25" y="6.75012" width="1.5" height="42.5" fill="#00CCEC" stroke="#00CCEC" stroke-width="1.5"/>
<mask id="path-6-inside-3_1581_90844" fill="white">
<path d="M9.5 0.00012207H172.5V56.0001H9.5V0.00012207Z"/>
</mask>
<path d="M9.5 0.00012207H172.5V56.0001H9.5V0.00012207Z" fill="#00CCEC"/>
<path d="M9.5 0.00012207V3.00012H172.5V0.00012207V-2.99988H9.5V0.00012207ZM172.5 56.0001V53.0001H9.5V56.0001V59.0001H172.5V56.0001Z" fill="#00CCEC" mask="url(#path-6-inside-3_1581_90844)"/>
<path d="M29.1429 23.143H30.75V24.7501H29.1429V23.143ZM27.5357 23.143H29.1429V24.7501H27.5357V23.143ZM27.5357 21.5358H29.1429V23.143H27.5357V21.5358ZM29.1429 21.5358H30.75V23.143H29.1429V21.5358ZM27.5357 19.9287H29.1429V21.5358H27.5357V19.9287ZM25.9286 19.9287H27.5357V21.5358H25.9286V19.9287ZM25.9286 21.5358H27.5357V23.143H25.9286V21.5358ZM24.3214 21.5358H25.9286V23.143H24.3214V21.5358ZM22.7143 21.5358H24.3214V23.143H22.7143V21.5358ZM22.7143 19.9287H24.3214V21.5358H22.7143V19.9287ZM21.1071 19.9287H22.7143V21.5358H21.1071V19.9287ZM24.3214 19.9287H25.9286V21.5358H24.3214V19.9287ZM21.1071 21.5358H22.7143V23.143H21.1071V21.5358ZM19.5 21.5358H21.1071V23.143H19.5V21.5358ZM19.5 23.143H21.1071V24.7501H19.5V23.143ZM21.1071 23.143H22.7143V24.7501H21.1071V23.143ZM21.1071 24.7501H22.7143V26.3573H21.1071V24.7501ZM21.1071 26.3573H22.7143V27.9644H21.1071V26.3573ZM19.5 26.3573H21.1071V27.9644H19.5V26.3573ZM19.5 24.7501H21.1071V26.3573H19.5V24.7501ZM21.1071 27.9644H22.7143V29.5716H21.1071V27.9644ZM22.7143 27.9644H24.3214V29.5716H22.7143V27.9644ZM22.7143 26.3573H24.3214V27.9644H22.7143V26.3573ZM24.3214 26.3573H25.9286V27.9644H24.3214V26.3573ZM25.9286 26.3573H27.5357V27.9644H25.9286V26.3573ZM27.5357 26.3573H29.1429V27.9644H27.5357V26.3573ZM27.5357 27.9644H29.1429V29.5716H27.5357V27.9644ZM25.9286 27.9644H27.5357V29.5716H25.9286V27.9644ZM24.3214 27.9644H25.9286V29.5716H24.3214V27.9644ZM29.1429 27.9644H30.75V29.5716H29.1429V27.9644ZM29.1429 29.5716H30.75V31.1787H29.1429V29.5716ZM27.5357 29.5716H29.1429V31.1787H27.5357V29.5716ZM25.9286 32.7858H27.5357V34.393H25.9286V32.7858ZM27.5357 32.7858H29.1429V34.393H27.5357V32.7858ZM27.5357 31.1787H29.1429V32.7858H27.5357V31.1787ZM29.1429 31.1787H30.75V32.7858H29.1429V31.1787ZM29.1429 32.7858H30.75V34.393H29.1429V32.7858ZM27.5357 34.393H29.1429V36.0001H27.5357V34.393ZM25.9286 34.393H27.5357V36.0001H25.9286V34.393ZM24.3214 34.393H25.9286V36.0001H24.3214V34.393ZM22.7143 34.393H24.3214V36.0001H22.7143V34.393ZM21.1071 34.393H22.7143V36.0001H21.1071V34.393ZM21.1071 32.7858H22.7143V34.393H21.1071V32.7858ZM22.7143 32.7858H24.3214V34.393H22.7143V32.7858ZM24.3214 32.7858H25.9286V34.393H24.3214V32.7858ZM19.5 32.7858H21.1071V34.393H19.5V32.7858ZM19.5 31.1787H21.1071V32.7858H19.5V31.1787ZM21.1071 31.1787H22.7143V32.7858H21.1071V31.1787ZM44.1113 34.393H42.5042V32.7858H44.1113V34.393ZM44.1113 36.0001H42.5042V34.393H44.1113V36.0001ZM42.5042 36.0001H40.897V34.393H42.5042V36.0001ZM42.5042 34.393H40.897V32.7858H42.5042V34.393ZM42.5042 32.7858H40.897V31.1787H42.5042V32.7858ZM42.5042 31.1787H40.897V29.5716H42.5042V31.1787ZM42.5042 29.5716H40.897V27.9644H42.5042V29.5716ZM44.1113 29.5716H42.5042V27.9644H44.1113V29.5716ZM44.1113 31.1787H42.5042V29.5716H44.1113V31.1787ZM44.1113 32.7858H42.5042V31.1787H44.1113V32.7858ZM44.1113 27.9644H42.5042V26.3573H44.1113V27.9644ZM42.5042 27.9644H40.897V26.3573H42.5042V27.9644ZM42.5042 26.3573H40.897V24.7501H42.5042V26.3573ZM42.5042 24.7501H40.897V23.143H42.5042V24.7501ZM44.1113 24.7501H42.5042V23.143H44.1113V24.7501ZM44.1113 26.3573H42.5042V24.7501H44.1113V26.3573ZM36.0756 24.7501H34.4685V23.143H36.0756V24.7501ZM34.4685 24.7501H32.8613V23.143H34.4685V24.7501ZM34.4685 26.3573H32.8613V24.7501H34.4685V26.3573ZM34.4685 27.9644H32.8613V26.3573H34.4685V27.9644ZM34.4685 29.5716H32.8613V27.9644H34.4685V29.5716ZM34.4685 31.1787H32.8613V29.5716H34.4685V31.1787ZM34.4685 32.7858H32.8613V31.1787H34.4685V32.7858ZM34.4685 34.393H32.8613V32.7858H34.4685V34.393ZM36.0756 31.1787H34.4685V29.5716H36.0756V31.1787ZM36.0756 29.5716H34.4685V27.9644H36.0756V29.5716ZM36.0756 27.9644H34.4685V26.3573H36.0756V27.9644ZM36.0756 26.3573H34.4685V24.7501H36.0756V26.3573ZM36.0756 32.7858H34.4685V31.1787H36.0756V32.7858ZM40.897 34.393H39.2899V32.7858H40.897V34.393ZM39.2899 34.393H37.6828V32.7858H39.2899V34.393ZM37.6828 34.393H36.0756V32.7858H37.6828V34.393ZM37.6828 36.0001H36.0756V34.393H37.6828V36.0001ZM36.0756 36.0001H34.4685V34.393H36.0756V36.0001ZM36.0756 34.393H34.4685V32.7858H36.0756V34.393ZM39.2899 36.0001H37.6828V34.393H39.2899V36.0001ZM46.2227 24.7501H47.8298V26.3573H46.2227V24.7501ZM46.2227 23.143H47.8298V24.7501H46.2227V23.143ZM47.8298 23.143H49.4369V24.7501H47.8298V23.143ZM47.8298 24.7501H49.4369V26.3573H47.8298V24.7501ZM47.8298 26.3573H49.4369V27.9644H47.8298V26.3573ZM47.8298 27.9644H49.4369V29.5716H47.8298V27.9644ZM47.8298 29.5716H49.4369V31.1787H47.8298V29.5716ZM46.2227 29.5716H47.8298V31.1787H46.2227V29.5716ZM46.2227 27.9644H47.8298V29.5716H46.2227V27.9644ZM46.2227 26.3573H47.8298V27.9644H46.2227V26.3573ZM46.2227 31.1787H47.8298V32.7858H46.2227V31.1787ZM47.8298 31.1787H49.4369V32.7858H47.8298V31.1787ZM47.8298 32.7858H49.4369V34.393H47.8298V32.7858ZM47.8298 34.393H49.4369V36.0001H47.8298V34.393ZM46.2227 34.393H47.8298V36.0001H46.2227V34.393ZM46.2227 32.7858H47.8298V34.393H46.2227V32.7858ZM54.2584 34.393H55.8655V36.0001H54.2584V34.393ZM55.8655 32.7858H57.4727V34.393H55.8655V32.7858ZM55.8655 31.1787H57.4727V32.7858H55.8655V31.1787ZM55.8655 29.5716H57.4727V31.1787H55.8655V29.5716ZM55.8655 27.9644H57.4727V29.5716H55.8655V27.9644ZM55.8655 26.3573H57.4727V27.9644H55.8655V26.3573ZM55.8655 24.7501H57.4727V26.3573H55.8655V24.7501ZM54.2584 27.9644H55.8655V29.5716H54.2584V27.9644ZM54.2584 29.5716H55.8655V31.1787H54.2584V29.5716ZM54.2584 31.1787H55.8655V32.7858H54.2584V31.1787ZM54.2584 32.7858H55.8655V34.393H54.2584V32.7858ZM54.2584 26.3573H55.8655V27.9644H54.2584V26.3573ZM49.4369 24.7501H51.0441V26.3573H49.4369V24.7501ZM51.0441 24.7501H52.6512V26.3573H51.0441V24.7501ZM52.6512 24.7501H54.2584V26.3573H52.6512V24.7501ZM52.6512 23.143H54.2584V24.7501H52.6512V23.143ZM54.2584 23.143H55.8655V24.7501H54.2584V23.143ZM54.2584 24.7501H55.8655V26.3573H54.2584V24.7501ZM51.0441 23.143H52.6512V24.7501H51.0441V23.143ZM46.2227 19.9287H47.8298V21.5358H46.2227V19.9287ZM47.8298 19.9287H49.4369V21.5358H47.8298V19.9287ZM47.8298 21.5358H49.4369V23.143H47.8298V21.5358ZM46.2227 21.5358H47.8298V23.143H46.2227V21.5358ZM49.4369 34.393H51.0441V36.0001H49.4369V34.393ZM51.0441 34.393H52.6512V36.0001H51.0441V34.393ZM52.6512 34.393H54.2584V36.0001H52.6512V34.393ZM52.6512 32.7858H54.2584V34.393H52.6512V32.7858ZM51.0441 32.7858H52.6512V34.393H51.0441V32.7858ZM49.4369 32.7858H51.0441V34.393H49.4369V32.7858ZM59.584 24.7501H61.1911V26.3573H59.584V24.7501ZM59.584 23.143H61.1911V24.7501H59.584V23.143ZM61.1911 23.143H62.7983V24.7501H61.1911V23.143ZM61.1911 24.7501H62.7983V26.3573H61.1911V24.7501ZM61.1911 26.3573H62.7983V27.9644H61.1911V26.3573ZM61.1911 27.9644H62.7983V29.5716H61.1911V27.9644ZM61.1911 29.5716H62.7983V31.1787H61.1911V29.5716ZM59.584 29.5716H61.1911V31.1787H59.584V29.5716ZM59.584 27.9644H61.1911V29.5716H59.584V27.9644ZM59.584 26.3573H61.1911V27.9644H59.584V26.3573ZM59.584 31.1787H61.1911V32.7858H59.584V31.1787ZM61.1911 31.1787H62.7983V32.7858H61.1911V31.1787ZM61.1911 32.7858H62.7983V34.393H61.1911V32.7858ZM61.1911 34.393H62.7983V36.0001H61.1911V34.393ZM59.584 34.393H61.1911V36.0001H59.584V34.393ZM59.584 32.7858H61.1911V34.393H59.584V32.7858ZM66.0126 34.393H67.6197V36.0001H66.0126V34.393ZM67.6197 34.393H69.2268V36.0001H67.6197V34.393ZM67.6197 32.7858H69.2268V34.393H67.6197V32.7858ZM67.6197 31.1787H69.2268V32.7858H67.6197V31.1787ZM67.6197 29.5716H69.2268V31.1787H67.6197V29.5716ZM67.6197 27.9644H69.2268V29.5716H67.6197V27.9644ZM67.6197 26.3573H69.2268V27.9644H67.6197V26.3573ZM67.6197 24.7501H69.2268V26.3573H67.6197V24.7501ZM66.0126 27.9644H67.6197V29.5716H66.0126V27.9644ZM66.0126 29.5716H67.6197V31.1787H66.0126V29.5716ZM66.0126 31.1787H67.6197V32.7858H66.0126V31.1787ZM66.0126 32.7858H67.6197V34.393H66.0126V32.7858ZM66.0126 26.3573H67.6197V27.9644H66.0126V26.3573ZM62.7983 24.7501H64.4054V26.3573H62.7983V24.7501ZM64.4054 24.7501H66.0126V26.3573H64.4054V24.7501ZM66.0126 23.143H67.6197V24.7501H66.0126V23.143ZM66.0126 24.7501H67.6197V26.3573H66.0126V24.7501ZM64.4054 23.143H66.0126V24.7501H64.4054V23.143ZM72.4411 34.393H74.0483V36.0001H72.4411V34.393ZM74.0483 34.393H75.6554V36.0001H74.0483V34.393ZM74.0483 32.7858H75.6554V34.393H74.0483V32.7858ZM74.0483 31.1787H75.6554V32.7858H74.0483V31.1787ZM74.0483 29.5716H75.6554V31.1787H74.0483V29.5716ZM74.0483 27.9644H75.6554V29.5716H74.0483V27.9644ZM74.0483 26.3573H75.6554V27.9644H74.0483V26.3573ZM74.0483 24.7501H75.6554V26.3573H74.0483V24.7501ZM72.4411 27.9644H74.0483V29.5716H72.4411V27.9644ZM72.4411 29.5716H74.0483V31.1787H72.4411V29.5716ZM72.4411 31.1787H74.0483V32.7858H72.4411V31.1787ZM72.4411 32.7858H74.0483V34.393H72.4411V32.7858ZM72.4411 26.3573H74.0483V27.9644H72.4411V26.3573ZM69.2268 24.7501H70.834V26.3573H69.2268V24.7501ZM70.834 24.7501H72.4411V26.3573H70.834V24.7501ZM72.4411 23.143H74.0483V24.7501H72.4411V23.143ZM72.4411 24.7501H74.0483V26.3573H72.4411V24.7501ZM70.834 23.143H72.4411V24.7501H70.834V23.143ZM77.75 19.9287H80.9643V23.143H77.75V19.9287ZM77.75 24.7501H80.9643V36.0001H77.75V24.7501ZM89.5126 32.7858H91.1197V34.393H89.5126V32.7858ZM89.5126 34.393H91.1197V36.0001H89.5126V34.393ZM87.9054 34.393H89.5126V36.0001H87.9054V34.393ZM87.9054 32.7858H89.5126V34.393H87.9054V32.7858ZM86.2983 34.393H87.9054V36.0001H86.2983V34.393ZM86.2983 32.7858H87.9054V34.393H86.2983V32.7858ZM84.6911 32.7858H86.2983V34.393H84.6911V32.7858ZM84.6911 31.1787H86.2983V32.7858H84.6911V31.1787ZM84.6911 29.5716H86.2983V31.1787H84.6911V29.5716ZM84.6911 27.9644H86.2983V29.5716H84.6911V27.9644ZM84.6911 26.3573H86.2983V27.9644H84.6911V26.3573ZM84.6911 24.7501H86.2983V26.3573H84.6911V24.7501ZM86.2983 29.5716H87.9054V31.1787H86.2983V29.5716ZM86.2983 31.1787H87.9054V32.7858H86.2983V31.1787ZM86.2983 27.9644H87.9054V29.5716H86.2983V27.9644ZM86.2983 26.3573H87.9054V27.9644H86.2983V26.3573ZM86.2983 19.9287H87.9054V21.5358H86.2983V19.9287ZM86.2983 21.5358H87.9054V23.143H86.2983V21.5358ZM86.2983 23.143H87.9054V24.7501H86.2983V23.143ZM86.2983 24.7501H87.9054V26.3573H86.2983V24.7501ZM84.6911 23.143H86.2983V24.7501H84.6911V23.143ZM83.084 24.7501H84.6911V26.3573H83.084V24.7501ZM87.9054 24.7501H89.5126V26.3573H87.9054V24.7501ZM89.5126 24.7501H91.1197V26.3573H89.5126V24.7501ZM84.6911 21.5358H86.2983V23.143H84.6911V21.5358ZM83.084 26.3573H84.6911V27.9644H83.084V26.3573ZM87.9054 26.3573H89.5126V27.9644H87.9054V26.3573ZM89.5126 26.3573H91.1197V27.9644H89.5126V26.3573ZM100.139 19.9287H101.746V21.5358H100.139V19.9287ZM101.746 19.9287H103.353V21.5358H101.746V19.9287ZM103.353 19.9287H104.96V21.5358H103.353V19.9287ZM104.96 19.9287H106.567V21.5358H104.96V19.9287ZM106.567 19.9287H108.174V21.5358H106.567V19.9287ZM108.174 19.9287H109.782V21.5358H108.174V19.9287ZM108.174 21.5358H109.782V23.143H108.174V21.5358ZM106.567 21.5358H108.174V23.143H106.567V21.5358ZM104.96 21.5358H106.567V23.143H104.96V21.5358ZM103.353 21.5358H104.96V23.143H103.353V21.5358ZM101.746 21.5358H103.353V23.143H101.746V21.5358ZM100.139 21.5358H101.746V23.143H100.139V21.5358ZM109.782 21.5358H111.389V23.143H109.782V21.5358ZM108.174 23.143H109.782V24.7501H108.174V23.143ZM109.782 23.143H111.389V24.7501H109.782V23.143ZM109.782 24.7501H111.389V26.3573H109.782V24.7501ZM109.782 26.3573H111.389V27.9644H109.782V26.3573ZM108.174 26.3573H109.782V27.9644H108.174V26.3573ZM108.174 24.7501H109.782V26.3573H108.174V24.7501ZM108.174 27.9644H109.782V29.5716H108.174V27.9644ZM108.174 29.5716H109.782V31.1787H108.174V29.5716ZM106.567 29.5716H108.174V31.1787H106.567V29.5716ZM106.567 27.9644H108.174V29.5716H106.567V27.9644ZM104.96 27.9644H106.567V29.5716H104.96V27.9644ZM104.96 29.5716H106.567V31.1787H104.96V29.5716ZM103.353 29.5716H104.96V31.1787H103.353V29.5716ZM103.353 27.9644H104.96V29.5716H103.353V27.9644ZM101.746 27.9644H103.353V29.5716H101.746V27.9644ZM100.139 27.9644H101.746V29.5716H100.139V27.9644ZM100.139 29.5716H101.746V31.1787H100.139V29.5716ZM101.746 29.5716H103.353V31.1787H101.746V29.5716ZM100.139 23.143H101.746V24.7501H100.139V23.143ZM101.746 23.143H103.353V24.7501H101.746V23.143ZM101.746 24.7501H103.353V26.3573H101.746V24.7501ZM101.746 26.3573H103.353V27.9644H101.746V26.3573ZM100.139 24.7501H101.746V26.3573H100.139V24.7501ZM100.139 26.3573H101.746V27.9644H100.139V26.3573ZM100.139 31.1787H101.746V32.7858H100.139V31.1787ZM101.746 31.1787H103.353V32.7858H101.746V31.1787ZM101.746 32.7858H103.353V34.393H101.746V32.7858ZM101.746 34.393H103.353V36.0001H101.746V34.393ZM100.139 34.393H101.746V36.0001H100.139V34.393ZM100.139 32.7858H101.746V34.393H100.139V32.7858ZM109.782 27.9644H111.389V29.5716H109.782V27.9644ZM113.5 24.7501H115.107V26.3573H113.5V24.7501ZM113.5 23.143H115.107V24.7501H113.5V23.143ZM115.107 23.143H116.714V24.7501H115.107V23.143ZM115.107 24.7501H116.714V26.3573H115.107V24.7501ZM115.107 26.3573H116.714V27.9644H115.107V26.3573ZM115.107 27.9644H116.714V29.5716H115.107V27.9644ZM115.107 29.5716H116.714V31.1787H115.107V29.5716ZM113.5 29.5716H115.107V31.1787H113.5V29.5716ZM113.5 27.9644H115.107V29.5716H113.5V27.9644ZM113.5 26.3573H115.107V27.9644H113.5V26.3573ZM113.5 31.1787H115.107V32.7858H113.5V31.1787ZM115.107 31.1787H116.714V32.7858H115.107V31.1787ZM115.107 32.7858H116.714V34.393H115.107V32.7858ZM115.107 34.393H116.714V36.0001H115.107V34.393ZM113.5 34.393H115.107V36.0001H113.5V34.393ZM113.5 32.7858H115.107V34.393H113.5V32.7858ZM116.714 24.7501H118.321V26.3573H116.714V24.7501ZM118.321 24.7501H119.929V26.3573H118.321V24.7501ZM119.929 24.7501H121.536V26.3573H119.929V24.7501ZM119.929 23.143H121.536V24.7501H119.929V23.143ZM118.321 23.143H119.929V24.7501H118.321V23.143ZM116.714 26.3573H118.321V27.9644H116.714V26.3573ZM121.536 24.7501H123.143V26.3573H121.536V24.7501ZM119.929 26.3573H121.536V27.9644H119.929V26.3573ZM128.464 23.143H130.071V24.7501H128.464V23.143ZM126.857 23.143H128.464V24.7501H126.857V23.143ZM126.857 24.7501H128.464V26.3573H126.857V24.7501ZM128.464 24.7501H130.071V26.3573H128.464V24.7501ZM130.071 23.143H131.679V24.7501H130.071V23.143ZM131.679 23.143H133.286V24.7501H131.679V23.143ZM133.286 23.143H134.893V24.7501H133.286V23.143ZM133.286 24.7501H134.893V26.3573H133.286V24.7501ZM131.679 24.7501H133.286V26.3573H131.679V24.7501ZM133.286 27.9644H134.893V29.5716H133.286V27.9644ZM134.893 24.7501H136.5V26.3573H134.893V24.7501ZM134.893 26.3573H136.5V27.9644H134.893V26.3573ZM134.893 27.9644H136.5V29.5716H134.893V27.9644ZM134.893 29.5716H136.5V31.1787H134.893V29.5716ZM134.893 31.1787H136.5V32.7858H134.893V31.1787ZM134.893 32.7858H136.5V34.393H134.893V32.7858ZM133.286 32.7858H134.893V34.393H133.286V32.7858ZM133.286 31.1787H134.893V32.7858H133.286V31.1787ZM133.286 29.5716H134.893V31.1787H133.286V29.5716ZM133.286 26.3573H134.893V27.9644H133.286V26.3573ZM131.679 32.7858H133.286V34.393H131.679V32.7858ZM133.286 34.393H134.893V36.0001H133.286V34.393ZM131.679 34.393H133.286V36.0001H131.679V34.393ZM130.071 34.393H131.679V36.0001H130.071V34.393ZM128.464 34.393H130.071V36.0001H128.464V34.393ZM126.857 34.393H128.464V36.0001H126.857V34.393ZM126.857 32.7858H128.464V34.393H126.857V32.7858ZM128.464 32.7858H130.071V34.393H128.464V32.7858ZM126.857 31.1787H128.464V32.7858H126.857V31.1787ZM125.25 32.7858H126.857V34.393H125.25V32.7858ZM125.25 31.1787H126.857V32.7858H125.25V31.1787ZM125.25 29.5716H126.857V31.1787H125.25V29.5716ZM125.25 27.9644H126.857V29.5716H125.25V27.9644ZM125.25 26.3573H126.857V27.9644H125.25V26.3573ZM125.25 24.7501H126.857V26.3573H125.25V24.7501ZM126.857 26.3573H128.464V27.9644H126.857V26.3573ZM126.857 27.9644H128.464V29.5716H126.857V27.9644ZM126.857 29.5716H128.464V31.1787H126.857V29.5716ZM130.071 32.7858H131.679V34.393H130.071V32.7858ZM130.071 24.7501H131.679V26.3573H130.071V24.7501ZM141.826 23.143H143.433V24.7501H141.826V23.143ZM140.218 23.143H141.826V24.7501H140.218V23.143ZM140.218 24.7501H141.826V26.3573H140.218V24.7501ZM141.826 24.7501H143.433V26.3573H141.826V24.7501ZM143.433 23.143H145.04V24.7501H143.433V23.143ZM145.04 23.143H146.647V24.7501H145.04V23.143ZM146.647 23.143H148.254V24.7501H146.647V23.143ZM146.647 24.7501H148.254V26.3573H146.647V24.7501ZM145.04 24.7501H146.647V26.3573H145.04V24.7501ZM146.647 27.9644H148.254V29.5716H146.647V27.9644ZM148.254 24.7501H149.861V26.3573H148.254V24.7501ZM148.254 26.3573H149.861V27.9644H148.254V26.3573ZM148.254 27.9644H149.861V29.5716H148.254V27.9644ZM148.254 29.5716H149.861V31.1787H148.254V29.5716ZM148.254 31.1787H149.861V32.7858H148.254V31.1787ZM148.254 32.7858H149.861V34.393H148.254V32.7858ZM146.647 32.7858H148.254V34.393H146.647V32.7858ZM146.647 31.1787H148.254V32.7858H146.647V31.1787ZM146.647 29.5716H148.254V31.1787H146.647V29.5716ZM146.647 26.3573H148.254V27.9644H146.647V26.3573ZM145.04 32.7858H146.647V34.393H145.04V32.7858ZM146.647 34.393H148.254V36.0001H146.647V34.393ZM145.04 34.393H146.647V36.0001H145.04V34.393ZM143.433 34.393H145.04V36.0001H143.433V34.393ZM141.826 34.393H143.433V36.0001H141.826V34.393ZM140.218 34.393H141.826V36.0001H140.218V34.393ZM140.218 32.7858H141.826V34.393H140.218V32.7858ZM141.826 32.7858H143.433V34.393H141.826V32.7858ZM140.218 31.1787H141.826V32.7858H140.218V31.1787ZM138.611 32.7858H140.218V34.393H138.611V32.7858ZM138.611 31.1787H140.218V32.7858H138.611V31.1787ZM138.611 29.5716H140.218V31.1787H138.611V29.5716ZM138.611 27.9644H140.218V29.5716H138.611V27.9644ZM138.611 26.3573H140.218V27.9644H138.611V26.3573ZM138.611 24.7501H140.218V26.3573H138.611V24.7501ZM140.218 26.3573H141.826V27.9644H140.218V26.3573ZM140.218 27.9644H141.826V29.5716H140.218V27.9644ZM140.218 29.5716H141.826V31.1787H140.218V29.5716ZM143.433 32.7858H145.04V34.393H143.433V32.7858ZM143.433 24.7501H145.04V26.3573H143.433V24.7501ZM158.401 19.9287H160.008V21.5358H158.401V19.9287ZM158.401 21.5358H160.008V23.143H158.401V21.5358ZM156.794 21.5358H158.401V23.143H156.794V21.5358ZM156.794 19.9287H158.401V21.5358H156.794V19.9287ZM155.187 19.9287H156.794V21.5358H155.187V19.9287ZM155.187 21.5358H156.794V23.143H155.187V21.5358ZM155.187 23.143H156.794V24.7501H155.187V23.143ZM153.58 21.5358H155.187V23.143H153.58V21.5358ZM153.58 23.143H155.187V24.7501H153.58V23.143ZM153.58 24.7501H155.187V26.3573H153.58V24.7501ZM153.58 26.3573H155.187V27.9644H153.58V26.3573ZM155.187 26.3573H156.794V27.9644H155.187V26.3573ZM155.187 24.7501H156.794V26.3573H155.187V24.7501ZM153.58 34.393H155.187V36.0001H153.58V34.393ZM153.58 32.7858H155.187V34.393H153.58V32.7858ZM153.58 31.1787H155.187V32.7858H153.58V31.1787ZM153.58 29.5716H155.187V31.1787H153.58V29.5716ZM153.58 27.9644H155.187V29.5716H153.58V27.9644ZM155.187 27.9644H156.794V29.5716H155.187V27.9644ZM155.187 29.5716H156.794V31.1787H155.187V29.5716ZM155.187 31.1787H156.794V32.7858H155.187V31.1787ZM155.187 32.7858H156.794V34.393H155.187V32.7858ZM155.187 34.393H156.794V36.0001H155.187V34.393ZM151.973 24.7501H153.58V26.3573H151.973V24.7501ZM156.794 24.7501H158.401V26.3573H156.794V24.7501ZM158.401 24.7501H160.008V26.3573H158.401V24.7501ZM151.973 26.3573H153.58V27.9644H151.973V26.3573ZM156.794 26.3573H158.401V27.9644H156.794V26.3573ZM158.401 26.3573H160.008V27.9644H158.401V26.3573Z" fill="white"/>
<mask id="path-9-inside-4_1581_90844" fill="white">
<path d="M175.5 0.00012207H172.5V56.0001H175.5V0.00012207Z"/>
</mask>
<path d="M175.5 0.00012207H172.5V56.0001H175.5V0.00012207Z" fill="#00CCEC"/>
<path d="M175.5 0.00012207V6.00012H172.5V0.00012207V-5.99988H175.5V0.00012207ZM172.5 56.0001V50.0001H175.5V56.0001V62.0001H172.5V56.0001Z" fill="#00CCEC" mask="url(#path-9-inside-4_1581_90844)"/>
<mask id="path-11-inside-5_1581_90844" fill="white">
<path d="M178.5 3.00012H175.5V53.0001H178.5V3.00012Z"/>
</mask>
<path d="M178.5 3.00012H175.5V53.0001H178.5V3.00012Z" fill="#00CCEC"/>
<path d="M178.5 3.00012V9.00012H175.5V3.00012V-2.99988H178.5V3.00012ZM175.5 53.0001V47.0001H178.5V53.0001V59.0001H175.5V53.0001Z" fill="#00CCEC" mask="url(#path-11-inside-5_1581_90844)"/>
<rect x="-0.75" y="0.75" width="1.5" height="42.5" transform="matrix(-1 0 0 1 180 6.00012)" fill="#00CCEC" stroke="#00CCEC" stroke-width="1.5"/>
</g>
<defs>
<filter id="filter0_d_1581_90844" x="0.5" y="0.00012207" width="187" height="59" filterUnits="userSpaceOnUse" color-interpolation-filters="sRGB">
<feFlood flood-opacity="0" result="BackgroundImageFix"/>
<feColorMatrix in="SourceAlpha" type="matrix" values="0 0 0 0 0 0 0 0 0 0 0 0 0 0 0 0 0 0 127 0" result="hardAlpha"/>
<feOffset dx="3" dy="3"/>
<feComposite in2="hardAlpha" operator="out"/>
<feColorMatrix type="matrix" values="0 0 0 0 0 0 0 0 0 0.278431 0 0 0 0 0.478431 0 0 0 1 0"/>
<feBlend mode="normal" in2="BackgroundImageFix" result="effect1_dropShadow_1581_90844"/>
<feBlend mode="normal" in="SourceGraphic" in2="effect1_dropShadow_1581_90844" result="shape"/>
</filter>
</defs>
</svg>
