<svg width="335" height="59" viewBox="0 0 335 59" fill="none" xmlns="http://www.w3.org/2000/svg">
<g filter="url(#filter0_d_1609_188652)">
<mask id="path-1-inside-1_1609_188652" fill="white">
<path d="M6 0.00012207H9V56.0001H6V0.00012207Z"/>
</mask>
<path d="M6 0.00012207H9V56.0001H6V0.00012207Z" fill="#008BEE"/>
<path d="M6 0.00012207V6.00012H9V0.00012207V-5.99988H6V0.00012207ZM9 56.0001V50.0001H6V56.0001V62.0001H9V56.0001Z" fill="#008BEE" mask="url(#path-1-inside-1_1609_188652)"/>
<mask id="path-3-inside-2_1609_188652" fill="white">
<path d="M3 3.00012H6V53.0001H3V3.00012Z"/>
</mask>
<path d="M3 3.00012H6V53.0001H3V3.00012Z" fill="#008BEE"/>
<path d="M3 3.00012V9.00012H6V3.00012V-2.99988H3V3.00012ZM6 53.0001V47.0001H3V53.0001V59.0001H6V53.0001Z" fill="#008BEE" mask="url(#path-3-inside-2_1609_188652)"/>
<rect x="0.75" y="6.75012" width="1.5" height="42.5" fill="#008BEE" stroke="#008BEE" stroke-width="1.5"/>
<mask id="path-6-inside-3_1609_188652" fill="white">
<path d="M9 0.00012207H323V56.0001H9V0.00012207Z"/>
</mask>
<path d="M9 0.00012207H323V56.0001H9V0.00012207Z" fill="#008BEE"/>
<path d="M9 0.00012207V3.00012H323V0.00012207V-2.99988H9V0.00012207ZM323 56.0001V53.0001H9V56.0001V59.0001H323V56.0001Z" fill="#008BEE" mask="url(#path-6-inside-3_1609_188652)"/>
<path d="M82.6429 23.1429H84.25V24.7501H82.6429V23.1429ZM81.0357 23.1429H82.6429V24.7501H81.0357V23.1429ZM81.0357 21.5358H82.6429V23.1429H81.0357V21.5358ZM82.6429 21.5358H84.25V23.1429H82.6429V21.5358ZM81.0357 19.9286H82.6429V21.5358H81.0357V19.9286ZM79.4286 19.9286H81.0357V21.5358H79.4286V19.9286ZM79.4286 21.5358H81.0357V23.1429H79.4286V21.5358ZM77.8214 21.5358H79.4286V23.1429H77.8214V21.5358ZM76.2143 21.5358H77.8214V23.1429H76.2143V21.5358ZM76.2143 19.9286H77.8214V21.5358H76.2143V19.9286ZM74.6071 19.9286H76.2143V21.5358H74.6071V19.9286ZM77.8214 19.9286H79.4286V21.5358H77.8214V19.9286ZM74.6071 21.5358H76.2143V23.1429H74.6071V21.5358ZM73 21.5358H74.6071V23.1429H73V21.5358ZM73 23.1429H74.6071V24.7501H73V23.1429ZM74.6071 23.1429H76.2143V24.7501H74.6071V23.1429ZM74.6071 24.7501H76.2143V26.3572H74.6071V24.7501ZM74.6071 26.3572H76.2143V27.9643H74.6071V26.3572ZM73 26.3572H74.6071V27.9643H73V26.3572ZM73 24.7501H74.6071V26.3572H73V24.7501ZM74.6071 27.9643H76.2143V29.5715H74.6071V27.9643ZM76.2143 27.9643H77.8214V29.5715H76.2143V27.9643ZM76.2143 26.3572H77.8214V27.9643H76.2143V26.3572ZM77.8214 26.3572H79.4286V27.9643H77.8214V26.3572ZM79.4286 26.3572H81.0357V27.9643H79.4286V26.3572ZM81.0357 26.3572H82.6429V27.9643H81.0357V26.3572ZM81.0357 27.9643H82.6429V29.5715H81.0357V27.9643ZM79.4286 27.9643H81.0357V29.5715H79.4286V27.9643ZM77.8214 27.9643H79.4286V29.5715H77.8214V27.9643ZM82.6429 27.9643H84.25V29.5715H82.6429V27.9643ZM82.6429 29.5715H84.25V31.1786H82.6429V29.5715ZM81.0357 29.5715H82.6429V31.1786H81.0357V29.5715ZM79.4286 32.7858H81.0357V34.3929H79.4286V32.7858ZM81.0357 32.7858H82.6429V34.3929H81.0357V32.7858ZM81.0357 31.1786H82.6429V32.7858H81.0357V31.1786ZM82.6429 31.1786H84.25V32.7858H82.6429V31.1786ZM82.6429 32.7858H84.25V34.3929H82.6429V32.7858ZM81.0357 34.3929H82.6429V36.0001H81.0357V34.3929ZM79.4286 34.3929H81.0357V36.0001H79.4286V34.3929ZM77.8214 34.3929H79.4286V36.0001H77.8214V34.3929ZM76.2143 34.3929H77.8214V36.0001H76.2143V34.3929ZM74.6071 34.3929H76.2143V36.0001H74.6071V34.3929ZM74.6071 32.7858H76.2143V34.3929H74.6071V32.7858ZM76.2143 32.7858H77.8214V34.3929H76.2143V32.7858ZM77.8214 32.7858H79.4286V34.3929H77.8214V32.7858ZM73 32.7858H74.6071V34.3929H73V32.7858ZM73 31.1786H74.6071V32.7858H73V31.1786ZM74.6071 31.1786H76.2143V32.7858H74.6071V31.1786ZM92.7899 32.7858H94.397V34.3929H92.7899V32.7858ZM92.7899 34.3929H94.397V36.0001H92.7899V34.3929ZM91.1828 34.3929H92.7899V36.0001H91.1828V34.3929ZM91.1828 32.7858H92.7899V34.3929H91.1828V32.7858ZM89.5756 34.3929H91.1828V36.0001H89.5756V34.3929ZM89.5756 32.7858H91.1828V34.3929H89.5756V32.7858ZM87.9685 32.7858H89.5756V34.3929H87.9685V32.7858ZM87.9685 31.1786H89.5756V32.7858H87.9685V31.1786ZM87.9685 29.5715H89.5756V31.1786H87.9685V29.5715ZM87.9685 27.9643H89.5756V29.5715H87.9685V27.9643ZM87.9685 26.3572H89.5756V27.9643H87.9685V26.3572ZM87.9685 24.7501H89.5756V26.3572H87.9685V24.7501ZM89.5756 29.5715H91.1828V31.1786H89.5756V29.5715ZM89.5756 31.1786H91.1828V32.7858H89.5756V31.1786ZM89.5756 27.9643H91.1828V29.5715H89.5756V27.9643ZM89.5756 26.3572H91.1828V27.9643H89.5756V26.3572ZM89.5756 19.9286H91.1828V21.5358H89.5756V19.9286ZM89.5756 21.5358H91.1828V23.1429H89.5756V21.5358ZM89.5756 23.1429H91.1828V24.7501H89.5756V23.1429ZM89.5756 24.7501H91.1828V26.3572H89.5756V24.7501ZM87.9685 23.1429H89.5756V24.7501H87.9685V23.1429ZM86.3613 24.7501H87.9685V26.3572H86.3613V24.7501ZM91.1828 24.7501H92.7899V26.3572H91.1828V24.7501ZM92.7899 24.7501H94.397V26.3572H92.7899V24.7501ZM87.9685 21.5358H89.5756V23.1429H87.9685V21.5358ZM86.3613 26.3572H87.9685V27.9643H86.3613V26.3572ZM91.1828 26.3572H92.7899V27.9643H91.1828V26.3572ZM92.7899 26.3572H94.397V27.9643H92.7899V26.3572ZM106.143 36.0001H104.536V34.3929H106.143V36.0001ZM106.143 34.3929H104.536V32.7858H106.143V34.3929ZM104.536 34.3929H102.929V32.7858H104.536V34.3929ZM102.929 36.0001H101.321V34.3929H102.929V36.0001ZM101.321 36.0001H99.7143V34.3929H101.321V36.0001ZM99.7143 36.0001H98.1071V34.3929H99.7143V36.0001ZM99.7143 34.3929H98.1071V32.7858H99.7143V34.3929ZM101.321 34.3929H99.7143V32.7858H101.321V34.3929ZM98.1071 34.3929H96.5V32.7858H98.1071V34.3929ZM98.1071 32.7858H96.5V31.1786H98.1071V32.7858ZM98.1071 26.3572H96.5V24.7501H98.1071V26.3572ZM99.7143 26.3572H98.1071V24.7501H99.7143V26.3572ZM99.7143 32.7858H98.1071V31.1786H99.7143V32.7858ZM101.321 26.3572H99.7143V24.7501H101.321V26.3572ZM99.7143 24.7501H98.1071V23.1429H99.7143V24.7501ZM101.321 24.7501H99.7143V23.1429H101.321V24.7501ZM102.929 24.7501H101.321V23.1429H102.929V24.7501ZM104.536 24.7501H102.929V23.1429H104.536V24.7501ZM106.143 24.7501H104.536V23.1429H106.143V24.7501ZM106.143 26.3572H104.536V24.7501H106.143V26.3572ZM104.536 26.3572H102.929V24.7501H104.536V26.3572ZM106.143 27.9643H104.536V26.3572H106.143V27.9643ZM107.75 26.3572H106.143V24.7501H107.75V26.3572ZM107.75 27.9643H106.143V26.3572H107.75V27.9643ZM107.75 29.5715H106.143V27.9643H107.75V29.5715ZM107.75 31.1786H106.143V29.5715H107.75V31.1786ZM107.75 32.7858H106.143V31.1786H107.75V32.7858ZM107.75 34.3929H106.143V32.7858H107.75V34.3929ZM106.143 32.7858H104.536V31.1786H106.143V32.7858ZM106.143 31.1786H104.536V29.5715H106.143V31.1786ZM106.143 29.5715H104.536V27.9643H106.143V29.5715ZM102.929 26.3572H101.321V24.7501H102.929V26.3572ZM102.929 34.3929H101.321V32.7858H102.929V34.3929ZM106.143 34.3929H107.75V36.0001H106.143V34.3929ZM102.929 27.9643H104.536V29.5715H102.929V27.9643ZM101.321 27.9643H102.929V29.5715H101.321V27.9643ZM99.7143 27.9643H101.321V29.5715H99.7143V27.9643ZM98.1071 27.9643H99.7143V29.5715H98.1071V27.9643ZM96.5 29.5715H98.1071V31.1786H96.5V29.5715ZM98.1071 29.5715H99.7143V31.1786H98.1071V29.5715ZM102.929 29.5715H104.536V31.1786H102.929V29.5715ZM101.321 29.5715H102.929V31.1786H101.321V29.5715ZM99.7143 29.5715H101.321V31.1786H99.7143V29.5715ZM109.861 24.7501H111.468V26.3572H109.861V24.7501ZM109.861 23.1429H111.468V24.7501H109.861V23.1429ZM111.468 23.1429H113.076V24.7501H111.468V23.1429ZM111.468 24.7501H113.076V26.3572H111.468V24.7501ZM111.468 26.3572H113.076V27.9643H111.468V26.3572ZM111.468 27.9643H113.076V29.5715H111.468V27.9643ZM111.468 29.5715H113.076V31.1786H111.468V29.5715ZM109.861 29.5715H111.468V31.1786H109.861V29.5715ZM109.861 27.9643H111.468V29.5715H109.861V27.9643ZM109.861 26.3572H111.468V27.9643H109.861V26.3572ZM109.861 31.1786H111.468V32.7858H109.861V31.1786ZM111.468 31.1786H113.076V32.7858H111.468V31.1786ZM111.468 32.7858H113.076V34.3929H111.468V32.7858ZM111.468 34.3929H113.076V36.0001H111.468V34.3929ZM109.861 34.3929H111.468V36.0001H109.861V34.3929ZM109.861 32.7858H111.468V34.3929H109.861V32.7858ZM113.076 24.7501H114.683V26.3572H113.076V24.7501ZM114.683 24.7501H116.29V26.3572H114.683V24.7501ZM116.29 24.7501H117.897V26.3572H116.29V24.7501ZM116.29 23.1429H117.897V24.7501H116.29V23.1429ZM114.683 23.1429H116.29V24.7501H114.683V23.1429ZM113.076 26.3572H114.683V27.9643H113.076V26.3572ZM117.897 24.7501H119.504V26.3572H117.897V24.7501ZM116.29 26.3572H117.897V27.9643H116.29V26.3572ZM128.04 32.7858H129.647V34.3929H128.04V32.7858ZM128.04 34.3929H129.647V36.0001H128.04V34.3929ZM126.433 34.3929H128.04V36.0001H126.433V34.3929ZM126.433 32.7858H128.04V34.3929H126.433V32.7858ZM124.826 34.3929H126.433V36.0001H124.826V34.3929ZM124.826 32.7858H126.433V34.3929H124.826V32.7858ZM123.218 32.7858H124.826V34.3929H123.218V32.7858ZM123.218 31.1786H124.826V32.7858H123.218V31.1786ZM123.218 29.5715H124.826V31.1786H123.218V29.5715ZM123.218 27.9643H124.826V29.5715H123.218V27.9643ZM123.218 26.3572H124.826V27.9643H123.218V26.3572ZM123.218 24.7501H124.826V26.3572H123.218V24.7501ZM124.826 29.5715H126.433V31.1786H124.826V29.5715ZM124.826 31.1786H126.433V32.7858H124.826V31.1786ZM124.826 27.9643H126.433V29.5715H124.826V27.9643ZM124.826 26.3572H126.433V27.9643H124.826V26.3572ZM124.826 19.9286H126.433V21.5358H124.826V19.9286ZM124.826 21.5358H126.433V23.1429H124.826V21.5358ZM124.826 23.1429H126.433V24.7501H124.826V23.1429ZM124.826 24.7501H126.433V26.3572H124.826V24.7501ZM123.218 23.1429H124.826V24.7501H123.218V23.1429ZM121.611 24.7501H123.218V26.3572H121.611V24.7501ZM126.433 24.7501H128.04V26.3572H126.433V24.7501ZM128.04 24.7501H129.647V26.3572H128.04V24.7501ZM123.218 21.5358H124.826V23.1429H123.218V21.5358ZM121.611 26.3572H123.218V27.9643H121.611V26.3572ZM126.433 26.3572H128.04V27.9643H126.433V26.3572ZM128.04 26.3572H129.647V27.9643H128.04V26.3572ZM141.88 23.1429H143.487V24.7501H141.88V23.1429ZM140.273 23.1429H141.88V24.7501H140.273V23.1429ZM140.273 24.7501H141.88V26.3572H140.273V24.7501ZM141.88 24.7501H143.487V26.3572H141.88V24.7501ZM143.487 23.1429H145.095V24.7501H143.487V23.1429ZM145.095 23.1429H146.702V24.7501H145.095V23.1429ZM146.702 23.1429H148.309V24.7501H146.702V23.1429ZM146.702 24.7501H148.309V26.3572H146.702V24.7501ZM145.095 24.7501H146.702V26.3572H145.095V24.7501ZM146.702 27.9643H148.309V29.5715H146.702V27.9643ZM148.309 24.7501H149.916V26.3572H148.309V24.7501ZM148.309 26.3572H149.916V27.9643H148.309V26.3572ZM148.309 27.9643H149.916V29.5715H148.309V27.9643ZM148.309 29.5715H149.916V31.1786H148.309V29.5715ZM148.309 31.1786H149.916V32.7858H148.309V31.1786ZM148.309 32.7858H149.916V34.3929H148.309V32.7858ZM146.702 32.7858H148.309V34.3929H146.702V32.7858ZM146.702 31.1786H148.309V32.7858H146.702V31.1786ZM146.702 29.5715H148.309V31.1786H146.702V29.5715ZM146.702 26.3572H148.309V27.9643H146.702V26.3572ZM145.095 32.7858H146.702V34.3929H145.095V32.7858ZM146.702 34.3929H148.309V36.0001H146.702V34.3929ZM145.095 34.3929H146.702V36.0001H145.095V34.3929ZM143.487 34.3929H145.095V36.0001H143.487V34.3929ZM141.88 34.3929H143.487V36.0001H141.88V34.3929ZM140.273 34.3929H141.88V36.0001H140.273V34.3929ZM140.273 32.7858H141.88V34.3929H140.273V32.7858ZM141.88 32.7858H143.487V34.3929H141.88V32.7858ZM140.273 31.1786H141.88V32.7858H140.273V31.1786ZM138.666 32.7858H140.273V34.3929H138.666V32.7858ZM138.666 31.1786H140.273V32.7858H138.666V31.1786ZM138.666 29.5715H140.273V31.1786H138.666V29.5715ZM138.666 27.9643H140.273V29.5715H138.666V27.9643ZM138.666 26.3572H140.273V27.9643H138.666V26.3572ZM138.666 24.7501H140.273V26.3572H138.666V24.7501ZM140.273 26.3572H141.88V27.9643H140.273V26.3572ZM140.273 27.9643H141.88V29.5715H140.273V27.9643ZM140.273 29.5715H141.88V31.1786H140.273V29.5715ZM143.487 32.7858H145.095V34.3929H143.487V32.7858ZM143.487 24.7501H145.095V26.3572H143.487V24.7501ZM152.027 24.7501H153.634V26.3572H152.027V24.7501ZM152.027 23.1429H153.634V24.7501H152.027V23.1429ZM153.634 23.1429H155.242V24.7501H153.634V23.1429ZM153.634 24.7501H155.242V26.3572H153.634V24.7501ZM153.634 26.3572H155.242V27.9643H153.634V26.3572ZM153.634 27.9643H155.242V29.5715H153.634V27.9643ZM153.634 29.5715H155.242V31.1786H153.634V29.5715ZM152.027 29.5715H153.634V31.1786H152.027V29.5715ZM152.027 27.9643H153.634V29.5715H152.027V27.9643ZM152.027 26.3572H153.634V27.9643H152.027V26.3572ZM152.027 31.1786H153.634V32.7858H152.027V31.1786ZM153.634 31.1786H155.242V32.7858H153.634V31.1786ZM153.634 32.7858H155.242V34.3929H153.634V32.7858ZM153.634 34.3929H155.242V36.0001H153.634V34.3929ZM152.027 34.3929H153.634V36.0001H152.027V34.3929ZM152.027 32.7858H153.634V34.3929H152.027V32.7858ZM160.063 34.3929H161.67V36.0001H160.063V34.3929ZM161.67 34.3929H163.277V36.0001H161.67V34.3929ZM161.67 32.7858H163.277V34.3929H161.67V32.7858ZM161.67 31.1786H163.277V32.7858H161.67V31.1786ZM161.67 29.5715H163.277V31.1786H161.67V29.5715ZM161.67 27.9643H163.277V29.5715H161.67V27.9643ZM161.67 26.3572H163.277V27.9643H161.67V26.3572ZM161.67 24.7501H163.277V26.3572H161.67V24.7501ZM160.063 27.9643H161.67V29.5715H160.063V27.9643ZM160.063 29.5715H161.67V31.1786H160.063V29.5715ZM160.063 31.1786H161.67V32.7858H160.063V31.1786ZM160.063 32.7858H161.67V34.3929H160.063V32.7858ZM160.063 26.3572H161.67V27.9643H160.063V26.3572ZM155.242 24.7501H156.849V26.3572H155.242V24.7501ZM156.849 24.7501H158.456V26.3572H156.849V24.7501ZM158.456 24.7501H160.063V26.3572H158.456V24.7501ZM158.456 23.1429H160.063V24.7501H158.456V23.1429ZM160.063 23.1429H161.67V24.7501H160.063V23.1429ZM160.063 24.7501H161.67V26.3572H160.063V24.7501ZM156.849 23.1429H158.456V24.7501H156.849V23.1429ZM175.519 19.9286H177.126V21.5358H175.519V19.9286ZM173.912 19.9286H175.519V21.5358H173.912V19.9286ZM173.912 21.5358H175.519V23.1429H173.912V21.5358ZM175.519 21.5358H177.126V23.1429H175.519V21.5358ZM177.126 21.5358H178.733V23.1429H177.126V21.5358ZM177.126 19.9286H178.733V21.5358H177.126V19.9286ZM178.733 19.9286H180.34V21.5358H178.733V19.9286ZM180.34 19.9286H181.948V21.5358H180.34V19.9286ZM180.34 21.5358H181.948V23.1429H180.34V21.5358ZM178.733 21.5358H180.34V23.1429H178.733V21.5358ZM178.733 23.1429H180.34V24.7501H178.733V23.1429ZM180.34 23.1429H181.948V24.7501H180.34V23.1429ZM181.948 21.5358H183.555V23.1429H181.948V21.5358ZM181.948 23.1429H183.555V24.7501H181.948V23.1429ZM181.948 24.7501H183.555V26.3572H181.948V24.7501ZM181.948 26.3572H183.555V27.9643H181.948V26.3572ZM181.948 27.9643H183.555V29.5715H181.948V27.9643ZM181.948 29.5715H183.555V31.1786H181.948V29.5715ZM181.948 31.1786H183.555V32.7858H181.948V31.1786ZM181.948 32.7858H183.555V34.3929H181.948V32.7858ZM180.34 32.7858H181.948V34.3929H180.34V32.7858ZM180.34 31.1786H181.948V32.7858H180.34V31.1786ZM180.34 29.5715H181.948V31.1786H180.34V29.5715ZM180.34 27.9643H181.948V29.5715H180.34V27.9643ZM180.34 26.3572H181.948V27.9643H180.34V26.3572ZM180.34 24.7501H181.948V26.3572H180.34V24.7501ZM178.733 31.1786H180.34V32.7858H178.733V31.1786ZM178.733 32.7858H180.34V34.3929H178.733V32.7858ZM180.34 34.3929H181.948V36.0001H180.34V34.3929ZM178.733 34.3929H180.34V36.0001H178.733V34.3929ZM177.126 34.3929H178.733V36.0001H177.126V34.3929ZM177.126 32.7858H178.733V34.3929H177.126V32.7858ZM175.519 34.3929H177.126V36.0001H175.519V34.3929ZM173.912 34.3929H175.519V36.0001H173.912V34.3929ZM173.912 32.7858H175.519V34.3929H173.912V32.7858ZM175.519 32.7858H177.126V34.3929H175.519V32.7858ZM173.912 31.1786H175.519V32.7858H173.912V31.1786ZM172.305 32.7858H173.912V34.3929H172.305V32.7858ZM172.305 31.1786H173.912V32.7858H172.305V31.1786ZM172.305 29.5715H173.912V31.1786H172.305V29.5715ZM172.305 27.9643H173.912V29.5715H172.305V27.9643ZM172.305 26.3572H173.912V27.9643H172.305V26.3572ZM172.305 24.7501H173.912V26.3572H172.305V24.7501ZM172.305 23.1429H173.912V24.7501H172.305V23.1429ZM173.912 23.1429H175.519V24.7501H173.912V23.1429ZM172.305 21.5358H173.912V23.1429H172.305V21.5358ZM173.912 24.7501H175.519V26.3572H173.912V24.7501ZM173.912 26.3572H175.519V27.9643H173.912V26.3572ZM173.912 27.9643H175.519V29.5715H173.912V27.9643ZM173.912 29.5715H175.519V31.1786H173.912V29.5715ZM172.305 34.3929H173.912V36.0001H172.305V34.3929ZM172.305 19.9286H173.912V21.5358H172.305V19.9286ZM188.88 23.1429H190.487V24.7501H188.88V23.1429ZM187.273 23.1429H188.88V24.7501H187.273V23.1429ZM187.273 24.7501H188.88V26.3572H187.273V24.7501ZM188.88 24.7501H190.487V26.3572H188.88V24.7501ZM190.487 23.1429H192.095V24.7501H190.487V23.1429ZM192.095 23.1429H193.702V24.7501H192.095V23.1429ZM193.702 23.1429H195.309V24.7501H193.702V23.1429ZM193.702 24.7501H195.309V26.3572H193.702V24.7501ZM192.095 24.7501H193.702V26.3572H192.095V24.7501ZM195.309 24.7501H196.916V26.3572H195.309V24.7501ZM195.309 26.3572H196.916V27.9643H195.309V26.3572ZM195.309 32.7858H196.916V34.3929H195.309V32.7858ZM193.702 32.7858H195.309V34.3929H193.702V32.7858ZM193.702 26.3572H195.309V27.9643H193.702V26.3572ZM192.095 32.7858H193.702V34.3929H192.095V32.7858ZM193.702 34.3929H195.309V36.0001H193.702V34.3929ZM192.095 34.3929H193.702V36.0001H192.095V34.3929ZM190.487 34.3929H192.095V36.0001H190.487V34.3929ZM188.88 34.3929H190.487V36.0001H188.88V34.3929ZM187.273 34.3929H188.88V36.0001H187.273V34.3929ZM187.273 32.7858H188.88V34.3929H187.273V32.7858ZM188.88 32.7858H190.487V34.3929H188.88V32.7858ZM187.273 31.1786H188.88V32.7858H187.273V31.1786ZM185.666 32.7858H187.273V34.3929H185.666V32.7858ZM185.666 31.1786H187.273V32.7858H185.666V31.1786ZM185.666 29.5715H187.273V31.1786H185.666V29.5715ZM185.666 27.9643H187.273V29.5715H185.666V27.9643ZM185.666 26.3572H187.273V27.9643H185.666V26.3572ZM185.666 24.7501H187.273V26.3572H185.666V24.7501ZM187.273 26.3572H188.88V27.9643H187.273V26.3572ZM187.273 27.9643H188.88V29.5715H187.273V27.9643ZM187.273 29.5715H188.88V31.1786H187.273V29.5715ZM190.487 32.7858H192.095V34.3929H190.487V32.7858ZM190.487 24.7501H192.095V26.3572H190.487V24.7501ZM193.702 27.9643H195.309V29.5715H193.702V27.9643ZM195.309 27.9643H196.916V29.5715H195.309V27.9643ZM188.88 29.5715H190.487V31.1786H188.88V29.5715ZM190.487 29.5715H192.095V31.1786H190.487V29.5715ZM192.095 29.5715H193.702V31.1786H192.095V29.5715ZM193.702 29.5715H195.309V31.1786H193.702V29.5715ZM195.309 29.5715H196.916V31.1786H195.309V29.5715ZM192.095 27.9643H193.702V29.5715H192.095V27.9643ZM190.487 27.9643H192.095V29.5715H190.487V27.9643ZM188.88 27.9643H190.487V29.5715H188.88V27.9643ZM199.027 24.7501H200.634V26.3572H199.027V24.7501ZM200.634 26.3572H202.242V27.9643H200.634V26.3572ZM199.027 26.3572H200.634V27.9643H199.027V26.3572ZM199.027 27.9643H200.634V29.5715H199.027V27.9643ZM200.634 27.9643H202.242V29.5715H200.634V27.9643ZM200.634 29.5715H202.242V31.1786H200.634V29.5715ZM202.242 29.5715H203.849V31.1786H202.242V29.5715ZM203.849 29.5715H205.456V31.1786H203.849V29.5715ZM205.456 27.9643H207.063V29.5715H205.456V27.9643ZM203.849 27.9643H205.456V29.5715H203.849V27.9643ZM202.242 27.9643H203.849V29.5715H202.242V27.9643ZM205.456 29.5715H207.063V31.1786H205.456V29.5715ZM207.063 29.5715H208.67V31.1786H207.063V29.5715ZM207.063 31.1786H208.67V32.7858H207.063V31.1786ZM205.456 31.1786H207.063V32.7858H205.456V31.1786ZM205.456 32.7858H207.063V34.3929H205.456V32.7858ZM207.063 32.7858H208.67V34.3929H207.063V32.7858ZM205.456 34.3929H207.063V36.0001H205.456V34.3929ZM203.849 32.7858H205.456V34.3929H203.849V32.7858ZM202.242 32.7858H203.849V34.3929H202.242V32.7858ZM200.634 32.7858H202.242V34.3929H200.634V32.7858ZM199.027 32.7858H200.634V34.3929H199.027V32.7858ZM200.634 34.3929H202.242V36.0001H200.634V34.3929ZM202.242 34.3929H203.849V36.0001H202.242V34.3929ZM203.849 34.3929H205.456V36.0001H203.849V34.3929ZM207.063 24.7501H208.67V26.3572H207.063V24.7501ZM205.456 24.7501H207.063V26.3572H205.456V24.7501ZM205.456 23.1429H207.063V24.7501H205.456V23.1429ZM203.849 23.1429H205.456V24.7501H203.849V23.1429ZM202.242 23.1429H203.849V24.7501H202.242V23.1429ZM200.634 23.1429H202.242V24.7501H200.634V23.1429ZM200.634 24.7501H202.242V26.3572H200.634V24.7501ZM202.242 24.7501H203.849V26.3572H202.242V24.7501ZM203.849 24.7501H205.456V26.3572H203.849V24.7501ZM210.777 19.9286H212.384V21.5358H210.777V19.9286ZM212.384 19.9286H213.992V21.5358H212.384V19.9286ZM212.384 21.5358H213.992V23.1429H212.384V21.5358ZM212.384 23.1429H213.992V24.7501H212.384V23.1429ZM212.384 24.7501H213.992V26.3572H212.384V24.7501ZM210.777 24.7501H212.384V26.3572H210.777V24.7501ZM210.777 23.1429H212.384V24.7501H210.777V23.1429ZM210.777 21.5358H212.384V23.1429H210.777V21.5358ZM210.777 26.3572H212.384V27.9643H210.777V26.3572ZM210.777 27.9643H212.384V29.5715H210.777V27.9643ZM210.777 29.5715H212.384V31.1786H210.777V29.5715ZM210.777 31.1786H212.384V32.7858H210.777V31.1786ZM210.777 32.7858H212.384V34.3929H210.777V32.7858ZM210.777 34.3929H212.384V36.0001H210.777V34.3929ZM212.384 34.3929H213.992V36.0001H212.384V34.3929ZM212.384 32.7858H213.992V34.3929H212.384V32.7858ZM212.384 31.1786H213.992V32.7858H212.384V31.1786ZM212.384 29.5715H213.992V31.1786H212.384V29.5715ZM212.384 27.9643H213.992V29.5715H212.384V27.9643ZM212.384 26.3572H213.992V27.9643H212.384V26.3572ZM213.992 27.9643H215.599V29.5715H213.992V27.9643ZM215.599 27.9643H217.206V29.5715H215.599V27.9643ZM215.599 26.3572H217.206V27.9643H215.599V26.3572ZM217.206 26.3572H218.813V27.9643H217.206V26.3572ZM217.206 24.7501H218.813V26.3572H217.206V24.7501ZM217.206 23.1429H218.813V24.7501H217.206V23.1429ZM218.813 23.1429H220.42V24.7501H218.813V23.1429ZM218.813 24.7501H220.42V26.3572H218.813V24.7501ZM215.599 29.5715H217.206V31.1786H215.599V29.5715ZM217.206 29.5715H218.813V31.1786H217.206V29.5715ZM218.813 31.1786H220.42V32.7858H218.813V31.1786ZM217.206 31.1786H218.813V32.7858H217.206V31.1786ZM217.206 32.7858H218.813V34.3929H217.206V32.7858ZM218.813 32.7858H220.42V34.3929H218.813V32.7858ZM218.813 34.3929H220.42V36.0001H218.813V34.3929ZM217.206 34.3929H218.813V36.0001H217.206V34.3929ZM228.956 32.7858H230.563V34.3929H228.956V32.7858ZM228.956 34.3929H230.563V36.0001H228.956V34.3929ZM227.349 34.3929H228.956V36.0001H227.349V34.3929ZM227.349 32.7858H228.956V34.3929H227.349V32.7858ZM225.742 34.3929H227.349V36.0001H225.742V34.3929ZM225.742 32.7858H227.349V34.3929H225.742V32.7858ZM224.134 32.7858H225.742V34.3929H224.134V32.7858ZM224.134 31.1786H225.742V32.7858H224.134V31.1786ZM224.134 29.5715H225.742V31.1786H224.134V29.5715ZM224.134 27.9643H225.742V29.5715H224.134V27.9643ZM224.134 26.3572H225.742V27.9643H224.134V26.3572ZM224.134 24.7501H225.742V26.3572H224.134V24.7501ZM225.742 29.5715H227.349V31.1786H225.742V29.5715ZM225.742 31.1786H227.349V32.7858H225.742V31.1786ZM225.742 27.9643H227.349V29.5715H225.742V27.9643ZM225.742 26.3572H227.349V27.9643H225.742V26.3572ZM225.742 19.9286H227.349V21.5358H225.742V19.9286ZM225.742 21.5358H227.349V23.1429H225.742V21.5358ZM225.742 23.1429H227.349V24.7501H225.742V23.1429ZM225.742 24.7501H227.349V26.3572H225.742V24.7501ZM224.134 23.1429H225.742V24.7501H224.134V23.1429ZM222.527 24.7501H224.134V26.3572H222.527V24.7501ZM227.349 24.7501H228.956V26.3572H227.349V24.7501ZM228.956 24.7501H230.563V26.3572H228.956V24.7501ZM224.134 21.5358H225.742V23.1429H224.134V21.5358ZM222.527 26.3572H224.134V27.9643H222.527V26.3572ZM227.349 26.3572H228.956V27.9643H227.349V26.3572ZM228.956 26.3572H230.563V27.9643H228.956V26.3572ZM235.88 23.1429H237.487V24.7501H235.88V23.1429ZM234.273 23.1429H235.88V24.7501H234.273V23.1429ZM234.273 24.7501H235.88V26.3572H234.273V24.7501ZM235.88 24.7501H237.487V26.3572H235.88V24.7501ZM237.487 23.1429H239.095V24.7501H237.487V23.1429ZM239.095 23.1429H240.702V24.7501H239.095V23.1429ZM240.702 23.1429H242.309V24.7501H240.702V23.1429ZM240.702 24.7501H242.309V26.3572H240.702V24.7501ZM239.095 24.7501H240.702V26.3572H239.095V24.7501ZM240.702 27.9643H242.309V29.5715H240.702V27.9643ZM242.309 24.7501H243.916V26.3572H242.309V24.7501ZM242.309 26.3572H243.916V27.9643H242.309V26.3572ZM242.309 27.9643H243.916V29.5715H242.309V27.9643ZM242.309 29.5715H243.916V31.1786H242.309V29.5715ZM242.309 31.1786H243.916V32.7858H242.309V31.1786ZM242.309 32.7858H243.916V34.3929H242.309V32.7858ZM240.702 32.7858H242.309V34.3929H240.702V32.7858ZM240.702 31.1786H242.309V32.7858H240.702V31.1786ZM240.702 29.5715H242.309V31.1786H240.702V29.5715ZM240.702 26.3572H242.309V27.9643H240.702V26.3572ZM239.095 32.7858H240.702V34.3929H239.095V32.7858ZM240.702 34.3929H242.309V36.0001H240.702V34.3929ZM239.095 34.3929H240.702V36.0001H239.095V34.3929ZM237.487 34.3929H239.095V36.0001H237.487V34.3929ZM235.88 34.3929H237.487V36.0001H235.88V34.3929ZM234.273 34.3929H235.88V36.0001H234.273V34.3929ZM234.273 32.7858H235.88V34.3929H234.273V32.7858ZM235.88 32.7858H237.487V34.3929H235.88V32.7858ZM234.273 31.1786H235.88V32.7858H234.273V31.1786ZM232.666 32.7858H234.273V34.3929H232.666V32.7858ZM232.666 31.1786H234.273V32.7858H232.666V31.1786ZM232.666 29.5715H234.273V31.1786H232.666V29.5715ZM232.666 27.9643H234.273V29.5715H232.666V27.9643ZM232.666 26.3572H234.273V27.9643H232.666V26.3572ZM232.666 24.7501H234.273V26.3572H232.666V24.7501ZM234.273 26.3572H235.88V27.9643H234.273V26.3572ZM234.273 27.9643H235.88V29.5715H234.273V27.9643ZM234.273 29.5715H235.88V31.1786H234.273V29.5715ZM237.487 32.7858H239.095V34.3929H237.487V32.7858ZM237.487 24.7501H239.095V26.3572H237.487V24.7501ZM246.027 24.7501H247.634V26.3572H246.027V24.7501ZM246.027 23.1429H247.634V24.7501H246.027V23.1429ZM247.634 23.1429H249.242V24.7501H247.634V23.1429ZM247.634 24.7501H249.242V26.3572H247.634V24.7501ZM247.634 26.3572H249.242V27.9643H247.634V26.3572ZM247.634 27.9643H249.242V29.5715H247.634V27.9643ZM247.634 29.5715H249.242V31.1786H247.634V29.5715ZM246.027 29.5715H247.634V31.1786H246.027V29.5715ZM246.027 27.9643H247.634V29.5715H246.027V27.9643ZM246.027 26.3572H247.634V27.9643H246.027V26.3572ZM246.027 31.1786H247.634V32.7858H246.027V31.1786ZM247.634 31.1786H249.242V32.7858H247.634V31.1786ZM247.634 32.7858H249.242V34.3929H247.634V32.7858ZM247.634 34.3929H249.242V36.0001H247.634V34.3929ZM246.027 34.3929H247.634V36.0001H246.027V34.3929ZM246.027 32.7858H247.634V34.3929H246.027V32.7858ZM254.063 34.3929H255.67V36.0001H254.063V34.3929ZM255.67 32.7858H257.277V34.3929H255.67V32.7858ZM255.67 31.1786H257.277V32.7858H255.67V31.1786ZM255.67 29.5715H257.277V31.1786H255.67V29.5715ZM255.67 27.9643H257.277V29.5715H255.67V27.9643ZM255.67 26.3572H257.277V27.9643H255.67V26.3572ZM255.67 24.7501H257.277V26.3572H255.67V24.7501ZM254.063 27.9643H255.67V29.5715H254.063V27.9643ZM254.063 29.5715H255.67V31.1786H254.063V29.5715ZM254.063 31.1786H255.67V32.7858H254.063V31.1786ZM254.063 32.7858H255.67V34.3929H254.063V32.7858ZM254.063 26.3572H255.67V27.9643H254.063V26.3572ZM249.242 24.7501H250.849V26.3572H249.242V24.7501ZM250.849 24.7501H252.456V26.3572H250.849V24.7501ZM252.456 24.7501H254.063V26.3572H252.456V24.7501ZM252.456 23.1429H254.063V24.7501H252.456V23.1429ZM254.063 23.1429H255.67V24.7501H254.063V23.1429ZM254.063 24.7501H255.67V26.3572H254.063V24.7501ZM250.849 23.1429H252.456V24.7501H250.849V23.1429ZM249.242 34.3929H250.849V36.0001H249.242V34.3929ZM250.849 34.3929H252.456V36.0001H250.849V34.3929ZM252.456 34.3929H254.063V36.0001H252.456V34.3929ZM252.456 32.7858H254.063V34.3929H252.456V32.7858ZM250.849 32.7858H252.456V34.3929H250.849V32.7858ZM249.242 32.7858H250.849V34.3929H249.242V32.7858ZM246.027 36.0001H247.634V37.6072H246.027V36.0001ZM247.634 36.0001H249.242V37.6072H247.634V36.0001ZM247.634 37.6072H249.242V39.2143H247.634V37.6072ZM246.027 37.6072H247.634V39.2143H246.027V37.6072Z" fill="white"/>
<mask id="path-9-inside-4_1609_188652" fill="white">
<path d="M326 0.00012207H323V56.0001H326V0.00012207Z"/>
</mask>
<path d="M326 0.00012207H323V56.0001H326V0.00012207Z" fill="#008BEE"/>
<path d="M326 0.00012207V6.00012H323V0.00012207V-5.99988H326V0.00012207ZM323 56.0001V50.0001H326V56.0001V62.0001H323V56.0001Z" fill="#008BEE" mask="url(#path-9-inside-4_1609_188652)"/>
<mask id="path-11-inside-5_1609_188652" fill="white">
<path d="M329 3.00012H326V53.0001H329V3.00012Z"/>
</mask>
<path d="M329 3.00012H326V53.0001H329V3.00012Z" fill="#008BEE"/>
<path d="M329 3.00012V9.00012H326V3.00012V-2.99988H329V3.00012ZM326 53.0001V47.0001H329V53.0001V59.0001H326V53.0001Z" fill="#008BEE" mask="url(#path-11-inside-5_1609_188652)"/>
<rect x="-0.75" y="0.75" width="1.5" height="42.5" transform="matrix(-1 0 0 1 330.5 6.00012)" fill="#008BEE" stroke="#008BEE" stroke-width="1.5"/>
</g>
<defs>
<filter id="filter0_d_1609_188652" x="0" y="0.00012207" width="338" height="59" filterUnits="userSpaceOnUse" color-interpolation-filters="sRGB">
<feFlood flood-opacity="0" result="BackgroundImageFix"/>
<feColorMatrix in="SourceAlpha" type="matrix" values="0 0 0 0 0 0 0 0 0 0 0 0 0 0 0 0 0 0 127 0" result="hardAlpha"/>
<feOffset dx="3" dy="3"/>
<feComposite in2="hardAlpha" operator="out"/>
<feColorMatrix type="matrix" values="0 0 0 0 0 0 0 0 0 0.278431 0 0 0 0 0.478431 0 0 0 1 0"/>
<feBlend mode="normal" in2="BackgroundImageFix" result="effect1_dropShadow_1609_188652"/>
<feBlend mode="normal" in="SourceGraphic" in2="effect1_dropShadow_1609_188652" result="shape"/>
</filter>
</defs>
</svg>
