<svg width="335" height="59" viewBox="0 0 335 59" fill="none" xmlns="http://www.w3.org/2000/svg">
<g filter="url(#filter0_d_1609_188653)">
<mask id="path-1-inside-1_1609_188653" fill="white">
<path d="M6 0.00012207H9V56.0001H6V0.00012207Z"/>
</mask>
<path d="M6 0.00012207H9V56.0001H6V0.00012207Z" fill="#00CCEC"/>
<path d="M6 0.00012207V6.00012H9V0.00012207V-5.99988H6V0.00012207ZM9 56.0001V50.0001H6V56.0001V62.0001H9V56.0001Z" fill="#00CCEC" mask="url(#path-1-inside-1_1609_188653)"/>
<mask id="path-3-inside-2_1609_188653" fill="white">
<path d="M3 3.00012H6V53.0001H3V3.00012Z"/>
</mask>
<path d="M3 3.00012H6V53.0001H3V3.00012Z" fill="#00CCEC"/>
<path d="M3 3.00012V9.00012H6V3.00012V-2.99988H3V3.00012ZM6 53.0001V47.0001H3V53.0001V59.0001H6V53.0001Z" fill="#00CCEC" mask="url(#path-3-inside-2_1609_188653)"/>
<rect x="0.75" y="6.75012" width="1.5" height="42.5" fill="#00CCEC" stroke="#00CCEC" stroke-width="1.5"/>
<mask id="path-6-inside-3_1609_188653" fill="white">
<path d="M9 0.00012207H323V56.0001H9V0.00012207Z"/>
</mask>
<path d="M9 0.00012207H323V56.0001H9V0.00012207Z" fill="#00CCEC"/>
<path d="M9 0.00012207V3.00012H323V0.00012207V-2.99988H9V0.00012207ZM323 56.0001V53.0001H9V56.0001V59.0001H323V56.0001Z" fill="#00CCEC" mask="url(#path-6-inside-3_1609_188653)"/>
<path d="M104.143 23.143H105.75V24.7501H104.143V23.143ZM102.536 23.143H104.143V24.7501H102.536V23.143ZM102.536 21.5358H104.143V23.143H102.536V21.5358ZM104.143 21.5358H105.75V23.143H104.143V21.5358ZM102.536 19.9287H104.143V21.5358H102.536V19.9287ZM100.929 19.9287H102.536V21.5358H100.929V19.9287ZM100.929 21.5358H102.536V23.143H100.929V21.5358ZM99.3214 21.5358H100.929V23.143H99.3214V21.5358ZM97.7143 21.5358H99.3214V23.143H97.7143V21.5358ZM97.7143 19.9287H99.3214V21.5358H97.7143V19.9287ZM96.1071 19.9287H97.7143V21.5358H96.1071V19.9287ZM99.3214 19.9287H100.929V21.5358H99.3214V19.9287ZM96.1071 21.5358H97.7143V23.143H96.1071V21.5358ZM94.5 21.5358H96.1071V23.143H94.5V21.5358ZM94.5 23.143H96.1071V24.7501H94.5V23.143ZM96.1071 23.143H97.7143V24.7501H96.1071V23.143ZM96.1071 24.7501H97.7143V26.3573H96.1071V24.7501ZM96.1071 26.3573H97.7143V27.9644H96.1071V26.3573ZM94.5 26.3573H96.1071V27.9644H94.5V26.3573ZM94.5 24.7501H96.1071V26.3573H94.5V24.7501ZM96.1071 27.9644H97.7143V29.5716H96.1071V27.9644ZM97.7143 27.9644H99.3214V29.5716H97.7143V27.9644ZM97.7143 26.3573H99.3214V27.9644H97.7143V26.3573ZM99.3214 26.3573H100.929V27.9644H99.3214V26.3573ZM100.929 26.3573H102.536V27.9644H100.929V26.3573ZM102.536 26.3573H104.143V27.9644H102.536V26.3573ZM102.536 27.9644H104.143V29.5716H102.536V27.9644ZM100.929 27.9644H102.536V29.5716H100.929V27.9644ZM99.3214 27.9644H100.929V29.5716H99.3214V27.9644ZM104.143 27.9644H105.75V29.5716H104.143V27.9644ZM104.143 29.5716H105.75V31.1787H104.143V29.5716ZM102.536 29.5716H104.143V31.1787H102.536V29.5716ZM100.929 32.7858H102.536V34.393H100.929V32.7858ZM102.536 32.7858H104.143V34.393H102.536V32.7858ZM102.536 31.1787H104.143V32.7858H102.536V31.1787ZM104.143 31.1787H105.75V32.7858H104.143V31.1787ZM104.143 32.7858H105.75V34.393H104.143V32.7858ZM102.536 34.393H104.143V36.0001H102.536V34.393ZM100.929 34.393H102.536V36.0001H100.929V34.393ZM99.3214 34.393H100.929V36.0001H99.3214V34.393ZM97.7143 34.393H99.3214V36.0001H97.7143V34.393ZM96.1071 34.393H97.7143V36.0001H96.1071V34.393ZM96.1071 32.7858H97.7143V34.393H96.1071V32.7858ZM97.7143 32.7858H99.3214V34.393H97.7143V32.7858ZM99.3214 32.7858H100.929V34.393H99.3214V32.7858ZM94.5 32.7858H96.1071V34.393H94.5V32.7858ZM94.5 31.1787H96.1071V32.7858H94.5V31.1787ZM96.1071 31.1787H97.7143V32.7858H96.1071V31.1787ZM119.111 34.393H117.504V32.7858H119.111V34.393ZM119.111 36.0001H117.504V34.393H119.111V36.0001ZM117.504 36.0001H115.897V34.393H117.504V36.0001ZM117.504 34.393H115.897V32.7858H117.504V34.393ZM117.504 32.7858H115.897V31.1787H117.504V32.7858ZM117.504 31.1787H115.897V29.5716H117.504V31.1787ZM117.504 29.5716H115.897V27.9644H117.504V29.5716ZM119.111 29.5716H117.504V27.9644H119.111V29.5716ZM119.111 31.1787H117.504V29.5716H119.111V31.1787ZM119.111 32.7858H117.504V31.1787H119.111V32.7858ZM119.111 27.9644H117.504V26.3573H119.111V27.9644ZM117.504 27.9644H115.897V26.3573H117.504V27.9644ZM117.504 26.3573H115.897V24.7501H117.504V26.3573ZM117.504 24.7501H115.897V23.143H117.504V24.7501ZM119.111 24.7501H117.504V23.143H119.111V24.7501ZM119.111 26.3573H117.504V24.7501H119.111V26.3573ZM111.076 24.7501H109.468V23.143H111.076V24.7501ZM109.468 24.7501H107.861V23.143H109.468V24.7501ZM109.468 26.3573H107.861V24.7501H109.468V26.3573ZM109.468 27.9644H107.861V26.3573H109.468V27.9644ZM109.468 29.5716H107.861V27.9644H109.468V29.5716ZM109.468 31.1787H107.861V29.5716H109.468V31.1787ZM109.468 32.7858H107.861V31.1787H109.468V32.7858ZM109.468 34.393H107.861V32.7858H109.468V34.393ZM111.076 31.1787H109.468V29.5716H111.076V31.1787ZM111.076 29.5716H109.468V27.9644H111.076V29.5716ZM111.076 27.9644H109.468V26.3573H111.076V27.9644ZM111.076 26.3573H109.468V24.7501H111.076V26.3573ZM111.076 32.7858H109.468V31.1787H111.076V32.7858ZM115.897 34.393H114.29V32.7858H115.897V34.393ZM114.29 34.393H112.683V32.7858H114.29V34.393ZM112.683 34.393H111.076V32.7858H112.683V34.393ZM112.683 36.0001H111.076V34.393H112.683V36.0001ZM111.076 36.0001H109.468V34.393H111.076V36.0001ZM111.076 34.393H109.468V32.7858H111.076V34.393ZM114.29 36.0001H112.683V34.393H114.29V36.0001ZM121.223 24.7501H122.83V26.3573H121.223V24.7501ZM121.223 23.143H122.83V24.7501H121.223V23.143ZM122.83 23.143H124.437V24.7501H122.83V23.143ZM122.83 24.7501H124.437V26.3573H122.83V24.7501ZM122.83 26.3573H124.437V27.9644H122.83V26.3573ZM122.83 27.9644H124.437V29.5716H122.83V27.9644ZM122.83 29.5716H124.437V31.1787H122.83V29.5716ZM121.223 29.5716H122.83V31.1787H121.223V29.5716ZM121.223 27.9644H122.83V29.5716H121.223V27.9644ZM121.223 26.3573H122.83V27.9644H121.223V26.3573ZM121.223 31.1787H122.83V32.7858H121.223V31.1787ZM122.83 31.1787H124.437V32.7858H122.83V31.1787ZM122.83 32.7858H124.437V34.393H122.83V32.7858ZM122.83 34.393H124.437V36.0001H122.83V34.393ZM121.223 34.393H122.83V36.0001H121.223V34.393ZM121.223 32.7858H122.83V34.393H121.223V32.7858ZM129.258 34.393H130.866V36.0001H129.258V34.393ZM130.866 32.7858H132.473V34.393H130.866V32.7858ZM130.866 31.1787H132.473V32.7858H130.866V31.1787ZM130.866 29.5716H132.473V31.1787H130.866V29.5716ZM130.866 27.9644H132.473V29.5716H130.866V27.9644ZM130.866 26.3573H132.473V27.9644H130.866V26.3573ZM130.866 24.7501H132.473V26.3573H130.866V24.7501ZM129.258 27.9644H130.866V29.5716H129.258V27.9644ZM129.258 29.5716H130.866V31.1787H129.258V29.5716ZM129.258 31.1787H130.866V32.7858H129.258V31.1787ZM129.258 32.7858H130.866V34.393H129.258V32.7858ZM129.258 26.3573H130.866V27.9644H129.258V26.3573ZM124.437 24.7501H126.044V26.3573H124.437V24.7501ZM126.044 24.7501H127.651V26.3573H126.044V24.7501ZM127.651 24.7501H129.258V26.3573H127.651V24.7501ZM127.651 23.143H129.258V24.7501H127.651V23.143ZM129.258 23.143H130.866V24.7501H129.258V23.143ZM129.258 24.7501H130.866V26.3573H129.258V24.7501ZM126.044 23.143H127.651V24.7501H126.044V23.143ZM121.223 19.9287H122.83V21.5358H121.223V19.9287ZM122.83 19.9287H124.437V21.5358H122.83V19.9287ZM122.83 21.5358H124.437V23.143H122.83V21.5358ZM121.223 21.5358H122.83V23.143H121.223V21.5358ZM124.437 34.393H126.044V36.0001H124.437V34.393ZM126.044 34.393H127.651V36.0001H126.044V34.393ZM127.651 34.393H129.258V36.0001H127.651V34.393ZM127.651 32.7858H129.258V34.393H127.651V32.7858ZM126.044 32.7858H127.651V34.393H126.044V32.7858ZM124.437 32.7858H126.044V34.393H124.437V32.7858ZM134.584 24.7501H136.191V26.3573H134.584V24.7501ZM134.584 23.143H136.191V24.7501H134.584V23.143ZM136.191 23.143H137.798V24.7501H136.191V23.143ZM136.191 24.7501H137.798V26.3573H136.191V24.7501ZM136.191 26.3573H137.798V27.9644H136.191V26.3573ZM136.191 27.9644H137.798V29.5716H136.191V27.9644ZM136.191 29.5716H137.798V31.1787H136.191V29.5716ZM134.584 29.5716H136.191V31.1787H134.584V29.5716ZM134.584 27.9644H136.191V29.5716H134.584V27.9644ZM134.584 26.3573H136.191V27.9644H134.584V26.3573ZM134.584 31.1787H136.191V32.7858H134.584V31.1787ZM136.191 31.1787H137.798V32.7858H136.191V31.1787ZM136.191 32.7858H137.798V34.393H136.191V32.7858ZM136.191 34.393H137.798V36.0001H136.191V34.393ZM134.584 34.393H136.191V36.0001H134.584V34.393ZM134.584 32.7858H136.191V34.393H134.584V32.7858ZM141.013 34.393H142.62V36.0001H141.013V34.393ZM142.62 34.393H144.227V36.0001H142.62V34.393ZM142.62 32.7858H144.227V34.393H142.62V32.7858ZM142.62 31.1787H144.227V32.7858H142.62V31.1787ZM142.62 29.5716H144.227V31.1787H142.62V29.5716ZM142.62 27.9644H144.227V29.5716H142.62V27.9644ZM142.62 26.3573H144.227V27.9644H142.62V26.3573ZM142.62 24.7501H144.227V26.3573H142.62V24.7501ZM141.013 27.9644H142.62V29.5716H141.013V27.9644ZM141.013 29.5716H142.62V31.1787H141.013V29.5716ZM141.013 31.1787H142.62V32.7858H141.013V31.1787ZM141.013 32.7858H142.62V34.393H141.013V32.7858ZM141.013 26.3573H142.62V27.9644H141.013V26.3573ZM137.798 24.7501H139.405V26.3573H137.798V24.7501ZM139.405 24.7501H141.013V26.3573H139.405V24.7501ZM141.013 23.143H142.62V24.7501H141.013V23.143ZM141.013 24.7501H142.62V26.3573H141.013V24.7501ZM139.405 23.143H141.013V24.7501H139.405V23.143ZM147.441 34.393H149.048V36.0001H147.441V34.393ZM149.048 34.393H150.655V36.0001H149.048V34.393ZM149.048 32.7858H150.655V34.393H149.048V32.7858ZM149.048 31.1787H150.655V32.7858H149.048V31.1787ZM149.048 29.5716H150.655V31.1787H149.048V29.5716ZM149.048 27.9644H150.655V29.5716H149.048V27.9644ZM149.048 26.3573H150.655V27.9644H149.048V26.3573ZM149.048 24.7501H150.655V26.3573H149.048V24.7501ZM147.441 27.9644H149.048V29.5716H147.441V27.9644ZM147.441 29.5716H149.048V31.1787H147.441V29.5716ZM147.441 31.1787H149.048V32.7858H147.441V31.1787ZM147.441 32.7858H149.048V34.393H147.441V32.7858ZM147.441 26.3573H149.048V27.9644H147.441V26.3573ZM144.227 24.7501H145.834V26.3573H144.227V24.7501ZM145.834 24.7501H147.441V26.3573H145.834V24.7501ZM147.441 23.143H149.048V24.7501H147.441V23.143ZM147.441 24.7501H149.048V26.3573H147.441V24.7501ZM145.834 23.143H147.441V24.7501H145.834V23.143ZM152.75 19.9287H155.964V23.143H152.75V19.9287ZM152.75 24.7501H155.964V36.0001H152.75V24.7501ZM164.513 32.7858H166.12V34.393H164.513V32.7858ZM164.513 34.393H166.12V36.0001H164.513V34.393ZM162.905 34.393H164.513V36.0001H162.905V34.393ZM162.905 32.7858H164.513V34.393H162.905V32.7858ZM161.298 34.393H162.905V36.0001H161.298V34.393ZM161.298 32.7858H162.905V34.393H161.298V32.7858ZM159.691 32.7858H161.298V34.393H159.691V32.7858ZM159.691 31.1787H161.298V32.7858H159.691V31.1787ZM159.691 29.5716H161.298V31.1787H159.691V29.5716ZM159.691 27.9644H161.298V29.5716H159.691V27.9644ZM159.691 26.3573H161.298V27.9644H159.691V26.3573ZM159.691 24.7501H161.298V26.3573H159.691V24.7501ZM161.298 29.5716H162.905V31.1787H161.298V29.5716ZM161.298 31.1787H162.905V32.7858H161.298V31.1787ZM161.298 27.9644H162.905V29.5716H161.298V27.9644ZM161.298 26.3573H162.905V27.9644H161.298V26.3573ZM161.298 19.9287H162.905V21.5358H161.298V19.9287ZM161.298 21.5358H162.905V23.143H161.298V21.5358ZM161.298 23.143H162.905V24.7501H161.298V23.143ZM161.298 24.7501H162.905V26.3573H161.298V24.7501ZM159.691 23.143H161.298V24.7501H159.691V23.143ZM158.084 24.7501H159.691V26.3573H158.084V24.7501ZM162.905 24.7501H164.513V26.3573H162.905V24.7501ZM164.513 24.7501H166.12V26.3573H164.513V24.7501ZM159.691 21.5358H161.298V23.143H159.691V21.5358ZM158.084 26.3573H159.691V27.9644H158.084V26.3573ZM162.905 26.3573H164.513V27.9644H162.905V26.3573ZM164.513 26.3573H166.12V27.9644H164.513V26.3573ZM175.139 19.9287H176.746V21.5358H175.139V19.9287ZM176.746 19.9287H178.353V21.5358H176.746V19.9287ZM178.353 19.9287H179.96V21.5358H178.353V19.9287ZM179.96 19.9287H181.567V21.5358H179.96V19.9287ZM181.567 19.9287H183.174V21.5358H181.567V19.9287ZM183.174 19.9287H184.782V21.5358H183.174V19.9287ZM183.174 21.5358H184.782V23.143H183.174V21.5358ZM181.567 21.5358H183.174V23.143H181.567V21.5358ZM179.96 21.5358H181.567V23.143H179.96V21.5358ZM178.353 21.5358H179.96V23.143H178.353V21.5358ZM176.746 21.5358H178.353V23.143H176.746V21.5358ZM175.139 21.5358H176.746V23.143H175.139V21.5358ZM184.782 21.5358H186.389V23.143H184.782V21.5358ZM183.174 23.143H184.782V24.7501H183.174V23.143ZM184.782 23.143H186.389V24.7501H184.782V23.143ZM184.782 24.7501H186.389V26.3573H184.782V24.7501ZM184.782 26.3573H186.389V27.9644H184.782V26.3573ZM183.174 26.3573H184.782V27.9644H183.174V26.3573ZM183.174 24.7501H184.782V26.3573H183.174V24.7501ZM183.174 27.9644H184.782V29.5716H183.174V27.9644ZM183.174 29.5716H184.782V31.1787H183.174V29.5716ZM181.567 29.5716H183.174V31.1787H181.567V29.5716ZM181.567 27.9644H183.174V29.5716H181.567V27.9644ZM179.96 27.9644H181.567V29.5716H179.96V27.9644ZM179.96 29.5716H181.567V31.1787H179.96V29.5716ZM178.353 29.5716H179.96V31.1787H178.353V29.5716ZM178.353 27.9644H179.96V29.5716H178.353V27.9644ZM176.746 27.9644H178.353V29.5716H176.746V27.9644ZM175.139 27.9644H176.746V29.5716H175.139V27.9644ZM175.139 29.5716H176.746V31.1787H175.139V29.5716ZM176.746 29.5716H178.353V31.1787H176.746V29.5716ZM175.139 23.143H176.746V24.7501H175.139V23.143ZM176.746 23.143H178.353V24.7501H176.746V23.143ZM176.746 24.7501H178.353V26.3573H176.746V24.7501ZM176.746 26.3573H178.353V27.9644H176.746V26.3573ZM175.139 24.7501H176.746V26.3573H175.139V24.7501ZM175.139 26.3573H176.746V27.9644H175.139V26.3573ZM175.139 31.1787H176.746V32.7858H175.139V31.1787ZM176.746 31.1787H178.353V32.7858H176.746V31.1787ZM176.746 32.7858H178.353V34.393H176.746V32.7858ZM176.746 34.393H178.353V36.0001H176.746V34.393ZM175.139 34.393H176.746V36.0001H175.139V34.393ZM175.139 32.7858H176.746V34.393H175.139V32.7858ZM184.782 27.9644H186.389V29.5716H184.782V27.9644ZM188.5 24.7501H190.107V26.3573H188.5V24.7501ZM188.5 23.143H190.107V24.7501H188.5V23.143ZM190.107 23.143H191.714V24.7501H190.107V23.143ZM190.107 24.7501H191.714V26.3573H190.107V24.7501ZM190.107 26.3573H191.714V27.9644H190.107V26.3573ZM190.107 27.9644H191.714V29.5716H190.107V27.9644ZM190.107 29.5716H191.714V31.1787H190.107V29.5716ZM188.5 29.5716H190.107V31.1787H188.5V29.5716ZM188.5 27.9644H190.107V29.5716H188.5V27.9644ZM188.5 26.3573H190.107V27.9644H188.5V26.3573ZM188.5 31.1787H190.107V32.7858H188.5V31.1787ZM190.107 31.1787H191.714V32.7858H190.107V31.1787ZM190.107 32.7858H191.714V34.393H190.107V32.7858ZM190.107 34.393H191.714V36.0001H190.107V34.393ZM188.5 34.393H190.107V36.0001H188.5V34.393ZM188.5 32.7858H190.107V34.393H188.5V32.7858ZM191.714 24.7501H193.321V26.3573H191.714V24.7501ZM193.321 24.7501H194.929V26.3573H193.321V24.7501ZM194.929 24.7501H196.536V26.3573H194.929V24.7501ZM194.929 23.143H196.536V24.7501H194.929V23.143ZM193.321 23.143H194.929V24.7501H193.321V23.143ZM191.714 26.3573H193.321V27.9644H191.714V26.3573ZM196.536 24.7501H198.143V26.3573H196.536V24.7501ZM194.929 26.3573H196.536V27.9644H194.929V26.3573ZM203.464 23.143H205.071V24.7501H203.464V23.143ZM201.857 23.143H203.464V24.7501H201.857V23.143ZM201.857 24.7501H203.464V26.3573H201.857V24.7501ZM203.464 24.7501H205.071V26.3573H203.464V24.7501ZM205.071 23.143H206.679V24.7501H205.071V23.143ZM206.679 23.143H208.286V24.7501H206.679V23.143ZM208.286 23.143H209.893V24.7501H208.286V23.143ZM208.286 24.7501H209.893V26.3573H208.286V24.7501ZM206.679 24.7501H208.286V26.3573H206.679V24.7501ZM208.286 27.9644H209.893V29.5716H208.286V27.9644ZM209.893 24.7501H211.5V26.3573H209.893V24.7501ZM209.893 26.3573H211.5V27.9644H209.893V26.3573ZM209.893 27.9644H211.5V29.5716H209.893V27.9644ZM209.893 29.5716H211.5V31.1787H209.893V29.5716ZM209.893 31.1787H211.5V32.7858H209.893V31.1787ZM209.893 32.7858H211.5V34.393H209.893V32.7858ZM208.286 32.7858H209.893V34.393H208.286V32.7858ZM208.286 31.1787H209.893V32.7858H208.286V31.1787ZM208.286 29.5716H209.893V31.1787H208.286V29.5716ZM208.286 26.3573H209.893V27.9644H208.286V26.3573ZM206.679 32.7858H208.286V34.393H206.679V32.7858ZM208.286 34.393H209.893V36.0001H208.286V34.393ZM206.679 34.393H208.286V36.0001H206.679V34.393ZM205.071 34.393H206.679V36.0001H205.071V34.393ZM203.464 34.393H205.071V36.0001H203.464V34.393ZM201.857 34.393H203.464V36.0001H201.857V34.393ZM201.857 32.7858H203.464V34.393H201.857V32.7858ZM203.464 32.7858H205.071V34.393H203.464V32.7858ZM201.857 31.1787H203.464V32.7858H201.857V31.1787ZM200.25 32.7858H201.857V34.393H200.25V32.7858ZM200.25 31.1787H201.857V32.7858H200.25V31.1787ZM200.25 29.5716H201.857V31.1787H200.25V29.5716ZM200.25 27.9644H201.857V29.5716H200.25V27.9644ZM200.25 26.3573H201.857V27.9644H200.25V26.3573ZM200.25 24.7501H201.857V26.3573H200.25V24.7501ZM201.857 26.3573H203.464V27.9644H201.857V26.3573ZM201.857 27.9644H203.464V29.5716H201.857V27.9644ZM201.857 29.5716H203.464V31.1787H201.857V29.5716ZM205.071 32.7858H206.679V34.393H205.071V32.7858ZM205.071 24.7501H206.679V26.3573H205.071V24.7501ZM216.826 23.143H218.433V24.7501H216.826V23.143ZM215.218 23.143H216.826V24.7501H215.218V23.143ZM215.218 24.7501H216.826V26.3573H215.218V24.7501ZM216.826 24.7501H218.433V26.3573H216.826V24.7501ZM218.433 23.143H220.04V24.7501H218.433V23.143ZM220.04 23.143H221.647V24.7501H220.04V23.143ZM221.647 23.143H223.254V24.7501H221.647V23.143ZM221.647 24.7501H223.254V26.3573H221.647V24.7501ZM220.04 24.7501H221.647V26.3573H220.04V24.7501ZM221.647 27.9644H223.254V29.5716H221.647V27.9644ZM223.254 24.7501H224.861V26.3573H223.254V24.7501ZM223.254 26.3573H224.861V27.9644H223.254V26.3573ZM223.254 27.9644H224.861V29.5716H223.254V27.9644ZM223.254 29.5716H224.861V31.1787H223.254V29.5716ZM223.254 31.1787H224.861V32.7858H223.254V31.1787ZM223.254 32.7858H224.861V34.393H223.254V32.7858ZM221.647 32.7858H223.254V34.393H221.647V32.7858ZM221.647 31.1787H223.254V32.7858H221.647V31.1787ZM221.647 29.5716H223.254V31.1787H221.647V29.5716ZM221.647 26.3573H223.254V27.9644H221.647V26.3573ZM220.04 32.7858H221.647V34.393H220.04V32.7858ZM221.647 34.393H223.254V36.0001H221.647V34.393ZM220.04 34.393H221.647V36.0001H220.04V34.393ZM218.433 34.393H220.04V36.0001H218.433V34.393ZM216.826 34.393H218.433V36.0001H216.826V34.393ZM215.218 34.393H216.826V36.0001H215.218V34.393ZM215.218 32.7858H216.826V34.393H215.218V32.7858ZM216.826 32.7858H218.433V34.393H216.826V32.7858ZM215.218 31.1787H216.826V32.7858H215.218V31.1787ZM213.611 32.7858H215.218V34.393H213.611V32.7858ZM213.611 31.1787H215.218V32.7858H213.611V31.1787ZM213.611 29.5716H215.218V31.1787H213.611V29.5716ZM213.611 27.9644H215.218V29.5716H213.611V27.9644ZM213.611 26.3573H215.218V27.9644H213.611V26.3573ZM213.611 24.7501H215.218V26.3573H213.611V24.7501ZM215.218 26.3573H216.826V27.9644H215.218V26.3573ZM215.218 27.9644H216.826V29.5716H215.218V27.9644ZM215.218 29.5716H216.826V31.1787H215.218V29.5716ZM218.433 32.7858H220.04V34.393H218.433V32.7858ZM218.433 24.7501H220.04V26.3573H218.433V24.7501ZM233.401 19.9287H235.008V21.5358H233.401V19.9287ZM233.401 21.5358H235.008V23.143H233.401V21.5358ZM231.794 21.5358H233.401V23.143H231.794V21.5358ZM231.794 19.9287H233.401V21.5358H231.794V19.9287ZM230.187 19.9287H231.794V21.5358H230.187V19.9287ZM230.187 21.5358H231.794V23.143H230.187V21.5358ZM230.187 23.143H231.794V24.7501H230.187V23.143ZM228.58 21.5358H230.187V23.143H228.58V21.5358ZM228.58 23.143H230.187V24.7501H228.58V23.143ZM228.58 24.7501H230.187V26.3573H228.58V24.7501ZM228.58 26.3573H230.187V27.9644H228.58V26.3573ZM230.187 26.3573H231.794V27.9644H230.187V26.3573ZM230.187 24.7501H231.794V26.3573H230.187V24.7501ZM228.58 34.393H230.187V36.0001H228.58V34.393ZM228.58 32.7858H230.187V34.393H228.58V32.7858ZM228.58 31.1787H230.187V32.7858H228.58V31.1787ZM228.58 29.5716H230.187V31.1787H228.58V29.5716ZM228.58 27.9644H230.187V29.5716H228.58V27.9644ZM230.187 27.9644H231.794V29.5716H230.187V27.9644ZM230.187 29.5716H231.794V31.1787H230.187V29.5716ZM230.187 31.1787H231.794V32.7858H230.187V31.1787ZM230.187 32.7858H231.794V34.393H230.187V32.7858ZM230.187 34.393H231.794V36.0001H230.187V34.393ZM226.973 24.7501H228.58V26.3573H226.973V24.7501ZM231.794 24.7501H233.401V26.3573H231.794V24.7501ZM233.401 24.7501H235.008V26.3573H233.401V24.7501ZM226.973 26.3573H228.58V27.9644H226.973V26.3573ZM231.794 26.3573H233.401V27.9644H231.794V26.3573ZM233.401 26.3573H235.008V27.9644H233.401V26.3573Z" fill="white"/>
<mask id="path-9-inside-4_1609_188653" fill="white">
<path d="M326 0.00012207H323V56.0001H326V0.00012207Z"/>
</mask>
<path d="M326 0.00012207H323V56.0001H326V0.00012207Z" fill="#00CCEC"/>
<path d="M326 0.00012207V6.00012H323V0.00012207V-5.99988H326V0.00012207ZM323 56.0001V50.0001H326V56.0001V62.0001H323V56.0001Z" fill="#00CCEC" mask="url(#path-9-inside-4_1609_188653)"/>
<mask id="path-11-inside-5_1609_188653" fill="white">
<path d="M329 3.00012H326V53.0001H329V3.00012Z"/>
</mask>
<path d="M329 3.00012H326V53.0001H329V3.00012Z" fill="#00CCEC"/>
<path d="M329 3.00012V9.00012H326V3.00012V-2.99988H329V3.00012ZM326 53.0001V47.0001H329V53.0001V59.0001H326V53.0001Z" fill="#00CCEC" mask="url(#path-11-inside-5_1609_188653)"/>
<rect x="-0.75" y="0.75" width="1.5" height="42.5" transform="matrix(-1 0 0 1 330.5 6.00012)" fill="#00CCEC" stroke="#00CCEC" stroke-width="1.5"/>
</g>
<defs>
<filter id="filter0_d_1609_188653" x="0" y="0.00012207" width="338" height="59" filterUnits="userSpaceOnUse" color-interpolation-filters="sRGB">
<feFlood flood-opacity="0" result="BackgroundImageFix"/>
<feColorMatrix in="SourceAlpha" type="matrix" values="0 0 0 0 0 0 0 0 0 0 0 0 0 0 0 0 0 0 127 0" result="hardAlpha"/>
<feOffset dx="3" dy="3"/>
<feComposite in2="hardAlpha" operator="out"/>
<feColorMatrix type="matrix" values="0 0 0 0 0 0 0 0 0 0.278431 0 0 0 0 0.478431 0 0 0 1 0"/>
<feBlend mode="normal" in2="BackgroundImageFix" result="effect1_dropShadow_1609_188653"/>
<feBlend mode="normal" in="SourceGraphic" in2="effect1_dropShadow_1609_188653" result="shape"/>
</filter>
</defs>
</svg>
