<svg width="170" height="59" viewBox="0 0 170 59" fill="none" xmlns="http://www.w3.org/2000/svg">
<g filter="url(#filter0_d_1590_122406)">
<mask id="path-1-inside-1_1590_122406" fill="white">
<path d="M6 0H9V56H6V0Z"/>
</mask>
<path d="M6 0H9V56H6V0Z" fill="#008BEE"/>
<path d="M6 0V6H9V0V-6H6V0ZM9 56V50H6V56V62H9V56Z" fill="#008BEE" mask="url(#path-1-inside-1_1590_122406)"/>
<mask id="path-3-inside-2_1590_122406" fill="white">
<path d="M3 3H6V53H3V3Z"/>
</mask>
<path d="M3 3H6V53H3V3Z" fill="#008BEE"/>
<path d="M3 3V9H6V3V-3H3V3ZM6 53V47H3V53V59H6V53Z" fill="#008BEE" mask="url(#path-3-inside-2_1590_122406)"/>
<rect x="0.75" y="6.75" width="1.5" height="42.5" fill="#008BEE" stroke="#008BEE" stroke-width="1.5"/>
<mask id="path-6-inside-3_1590_122406" fill="white">
<path d="M9 0H158V56H9V0Z"/>
</mask>
<path d="M9 0H158V56H9V0Z" fill="#008BEE"/>
<path d="M9 0V3H158V0V-3H9V0ZM158 56V53H9V56V59H158V56Z" fill="#008BEE" mask="url(#path-6-inside-3_1590_122406)"/>
<path d="M22.2143 19.9286H23.8214V21.5357H22.2143V19.9286ZM20.6071 19.9286H22.2143V21.5357H20.6071V19.9286ZM20.6071 21.5357H22.2143V23.1429H20.6071V21.5357ZM22.2143 21.5357H23.8214V23.1429H22.2143V21.5357ZM23.8214 21.5357H25.4286V23.1429H23.8214V21.5357ZM23.8214 19.9286H25.4286V21.5357H23.8214V19.9286ZM25.4286 19.9286H27.0357V21.5357H25.4286V19.9286ZM27.0357 19.9286H28.6429V21.5357H27.0357V19.9286ZM27.0357 21.5357H28.6429V23.1429H27.0357V21.5357ZM25.4286 21.5357H27.0357V23.1429H25.4286V21.5357ZM27.0357 23.1429H28.6429V24.75H27.0357V23.1429ZM28.6429 21.5357H30.25V23.1429H28.6429V21.5357ZM28.6429 23.1429H30.25V24.75H28.6429V23.1429ZM28.6429 31.1786H30.25V32.7857H28.6429V31.1786ZM28.6429 32.7857H30.25V34.3929H28.6429V32.7857ZM27.0357 32.7857H28.6429V34.3929H27.0357V32.7857ZM27.0357 31.1786H28.6429V32.7857H27.0357V31.1786ZM25.4286 32.7857H27.0357V34.3929H25.4286V32.7857ZM27.0357 34.3929H28.6429V36H27.0357V34.3929ZM25.4286 34.3929H27.0357V36H25.4286V34.3929ZM23.8214 34.3929H25.4286V36H23.8214V34.3929ZM23.8214 32.7857H25.4286V34.3929H23.8214V32.7857ZM22.2143 34.3929H23.8214V36H22.2143V34.3929ZM20.6071 34.3929H22.2143V36H20.6071V34.3929ZM20.6071 32.7857H22.2143V34.3929H20.6071V32.7857ZM22.2143 32.7857H23.8214V34.3929H22.2143V32.7857ZM22.2143 31.1786H23.8214V32.7857H22.2143V31.1786ZM20.6071 31.1786H22.2143V32.7857H20.6071V31.1786ZM19 32.7857H20.6071V34.3929H19V32.7857ZM19 31.1786H20.6071V32.7857H19V31.1786ZM19 29.5714H20.6071V31.1786H19V29.5714ZM19 27.9643H20.6071V29.5714H19V27.9643ZM19 26.3571H20.6071V27.9643H19V26.3571ZM19 24.75H20.6071V26.3571H19V24.75ZM19 23.1429H20.6071V24.75H19V23.1429ZM20.6071 23.1429H22.2143V24.75H20.6071V23.1429ZM19 21.5357H20.6071V23.1429H19V21.5357ZM22.2143 23.1429H23.8214V24.75H22.2143V23.1429ZM20.6071 24.75H22.2143V26.3571H20.6071V24.75ZM20.6071 26.3571H22.2143V27.9643H20.6071V26.3571ZM20.6071 27.9643H22.2143V29.5714H20.6071V27.9643ZM20.6071 29.5714H22.2143V31.1786H20.6071V29.5714ZM28.6429 29.5714H30.25V31.1786H28.6429V29.5714ZM27.0357 29.5714H28.6429V31.1786H27.0357V29.5714ZM27.0357 27.9643H28.6429V29.5714H27.0357V27.9643ZM28.6429 27.9643H30.25V29.5714H28.6429V27.9643ZM28.6429 26.3571H30.25V27.9643H28.6429V26.3571ZM27.0357 26.3571H28.6429V27.9643H27.0357V26.3571ZM25.4286 26.3571H27.0357V27.9643H25.4286V26.3571ZM23.8214 26.3571H25.4286V27.9643H23.8214V26.3571ZM23.8214 27.9643H25.4286V29.5714H23.8214V27.9643ZM25.4286 27.9643H27.0357V29.5714H25.4286V27.9643ZM35.5756 23.1429H37.1828V24.75H35.5756V23.1429ZM33.9685 23.1429H35.5756V24.75H33.9685V23.1429ZM33.9685 24.75H35.5756V26.3571H33.9685V24.75ZM35.5756 24.75H37.1828V26.3571H35.5756V24.75ZM37.1828 23.1429H38.7899V24.75H37.1828V23.1429ZM38.7899 23.1429H40.397V24.75H38.7899V23.1429ZM40.397 23.1429H42.0042V24.75H40.397V23.1429ZM40.397 24.75H42.0042V26.3571H40.397V24.75ZM38.7899 24.75H40.397V26.3571H38.7899V24.75ZM42.0042 24.75H43.6113V26.3571H42.0042V24.75ZM42.0042 26.3571H43.6113V27.9643H42.0042V26.3571ZM42.0042 32.7857H43.6113V34.3929H42.0042V32.7857ZM40.397 32.7857H42.0042V34.3929H40.397V32.7857ZM40.397 26.3571H42.0042V27.9643H40.397V26.3571ZM38.7899 32.7857H40.397V34.3929H38.7899V32.7857ZM40.397 34.3929H42.0042V36H40.397V34.3929ZM38.7899 34.3929H40.397V36H38.7899V34.3929ZM37.1828 34.3929H38.7899V36H37.1828V34.3929ZM35.5756 34.3929H37.1828V36H35.5756V34.3929ZM33.9685 34.3929H35.5756V36H33.9685V34.3929ZM33.9685 32.7857H35.5756V34.3929H33.9685V32.7857ZM35.5756 32.7857H37.1828V34.3929H35.5756V32.7857ZM33.9685 31.1786H35.5756V32.7857H33.9685V31.1786ZM32.3613 32.7857H33.9685V34.3929H32.3613V32.7857ZM32.3613 31.1786H33.9685V32.7857H32.3613V31.1786ZM32.3613 29.5714H33.9685V31.1786H32.3613V29.5714ZM32.3613 27.9643H33.9685V29.5714H32.3613V27.9643ZM32.3613 26.3571H33.9685V27.9643H32.3613V26.3571ZM32.3613 24.75H33.9685V26.3571H32.3613V24.75ZM33.9685 26.3571H35.5756V27.9643H33.9685V26.3571ZM33.9685 27.9643H35.5756V29.5714H33.9685V27.9643ZM33.9685 29.5714H35.5756V31.1786H33.9685V29.5714ZM37.1828 32.7857H38.7899V34.3929H37.1828V32.7857ZM37.1828 24.75H38.7899V26.3571H37.1828V24.75ZM40.397 27.9643H42.0042V29.5714H40.397V27.9643ZM42.0042 27.9643H43.6113V29.5714H42.0042V27.9643ZM35.5756 29.5714H37.1828V31.1786H35.5756V29.5714ZM37.1828 29.5714H38.7899V31.1786H37.1828V29.5714ZM38.7899 29.5714H40.397V31.1786H38.7899V29.5714ZM40.397 29.5714H42.0042V31.1786H40.397V29.5714ZM42.0042 29.5714H43.6113V31.1786H42.0042V29.5714ZM38.7899 27.9643H40.397V29.5714H38.7899V27.9643ZM37.1828 27.9643H38.7899V29.5714H37.1828V27.9643ZM35.5756 27.9643H37.1828V29.5714H35.5756V27.9643ZM52.1512 32.7857H53.7584V34.3929H52.1512V32.7857ZM52.1512 34.3929H53.7584V36H52.1512V34.3929ZM50.5441 34.3929H52.1512V36H50.5441V34.3929ZM50.5441 32.7857H52.1512V34.3929H50.5441V32.7857ZM48.9369 34.3929H50.5441V36H48.9369V34.3929ZM48.9369 32.7857H50.5441V34.3929H48.9369V32.7857ZM47.3298 32.7857H48.9369V34.3929H47.3298V32.7857ZM47.3298 31.1786H48.9369V32.7857H47.3298V31.1786ZM47.3298 29.5714H48.9369V31.1786H47.3298V29.5714ZM47.3298 27.9643H48.9369V29.5714H47.3298V27.9643ZM47.3298 26.3571H48.9369V27.9643H47.3298V26.3571ZM47.3298 24.75H48.9369V26.3571H47.3298V24.75ZM48.9369 29.5714H50.5441V31.1786H48.9369V29.5714ZM48.9369 31.1786H50.5441V32.7857H48.9369V31.1786ZM48.9369 27.9643H50.5441V29.5714H48.9369V27.9643ZM48.9369 26.3571H50.5441V27.9643H48.9369V26.3571ZM48.9369 19.9286H50.5441V21.5357H48.9369V19.9286ZM48.9369 21.5357H50.5441V23.1429H48.9369V21.5357ZM48.9369 23.1429H50.5441V24.75H48.9369V23.1429ZM48.9369 24.75H50.5441V26.3571H48.9369V24.75ZM47.3298 23.1429H48.9369V24.75H47.3298V23.1429ZM45.7227 24.75H47.3298V26.3571H45.7227V24.75ZM50.5441 24.75H52.1512V26.3571H50.5441V24.75ZM52.1512 24.75H53.7584V26.3571H52.1512V24.75ZM47.3298 21.5357H48.9369V23.1429H47.3298V21.5357ZM45.7227 26.3571H47.3298V27.9643H45.7227V26.3571ZM50.5441 26.3571H52.1512V27.9643H50.5441V26.3571ZM52.1512 26.3571H53.7584V27.9643H52.1512V26.3571ZM72.4202 23.1429H74.0273V24.75H72.4202V23.1429ZM70.8131 23.1429H72.4202V24.75H70.8131V23.1429ZM70.8131 21.5357H72.4202V23.1429H70.8131V21.5357ZM72.4202 21.5357H74.0273V23.1429H72.4202V21.5357ZM70.8131 19.9286H72.4202V21.5357H70.8131V19.9286ZM69.2059 19.9286H70.8131V21.5357H69.2059V19.9286ZM69.2059 21.5357H70.8131V23.1429H69.2059V21.5357ZM67.5988 21.5357H69.2059V23.1429H67.5988V21.5357ZM65.9916 21.5357H67.5988V23.1429H65.9916V21.5357ZM65.9916 19.9286H67.5988V21.5357H65.9916V19.9286ZM64.3845 19.9286H65.9916V21.5357H64.3845V19.9286ZM67.5988 19.9286H69.2059V21.5357H67.5988V19.9286ZM64.3845 21.5357H65.9916V23.1429H64.3845V21.5357ZM62.7773 21.5357H64.3845V23.1429H62.7773V21.5357ZM62.7773 23.1429H64.3845V24.75H62.7773V23.1429ZM64.3845 23.1429H65.9916V24.75H64.3845V23.1429ZM64.3845 24.75H65.9916V26.3571H64.3845V24.75ZM64.3845 26.3571H65.9916V27.9643H64.3845V26.3571ZM62.7773 26.3571H64.3845V27.9643H62.7773V26.3571ZM62.7773 24.75H64.3845V26.3571H62.7773V24.75ZM64.3845 27.9643H65.9916V29.5714H64.3845V27.9643ZM65.9916 27.9643H67.5988V29.5714H65.9916V27.9643ZM65.9916 26.3571H67.5988V27.9643H65.9916V26.3571ZM67.5988 26.3571H69.2059V27.9643H67.5988V26.3571ZM69.2059 26.3571H70.8131V27.9643H69.2059V26.3571ZM70.8131 26.3571H72.4202V27.9643H70.8131V26.3571ZM70.8131 27.9643H72.4202V29.5714H70.8131V27.9643ZM69.2059 27.9643H70.8131V29.5714H69.2059V27.9643ZM67.5988 27.9643H69.2059V29.5714H67.5988V27.9643ZM72.4202 27.9643H74.0273V29.5714H72.4202V27.9643ZM72.4202 29.5714H74.0273V31.1786H72.4202V29.5714ZM70.8131 29.5714H72.4202V31.1786H70.8131V29.5714ZM69.2059 32.7857H70.8131V34.3929H69.2059V32.7857ZM70.8131 32.7857H72.4202V34.3929H70.8131V32.7857ZM70.8131 31.1786H72.4202V32.7857H70.8131V31.1786ZM72.4202 31.1786H74.0273V32.7857H72.4202V31.1786ZM72.4202 32.7857H74.0273V34.3929H72.4202V32.7857ZM70.8131 34.3929H72.4202V36H70.8131V34.3929ZM69.2059 34.3929H70.8131V36H69.2059V34.3929ZM67.5988 34.3929H69.2059V36H67.5988V34.3929ZM65.9916 34.3929H67.5988V36H65.9916V34.3929ZM64.3845 34.3929H65.9916V36H64.3845V34.3929ZM64.3845 32.7857H65.9916V34.3929H64.3845V32.7857ZM65.9916 32.7857H67.5988V34.3929H65.9916V32.7857ZM67.5988 32.7857H69.2059V34.3929H67.5988V32.7857ZM62.7773 32.7857H64.3845V34.3929H62.7773V32.7857ZM62.7773 31.1786H64.3845V32.7857H62.7773V31.1786ZM64.3845 31.1786H65.9916V32.7857H64.3845V31.1786ZM82.5672 32.7857H84.1744V34.3929H82.5672V32.7857ZM82.5672 34.3929H84.1744V36H82.5672V34.3929ZM80.9601 34.3929H82.5672V36H80.9601V34.3929ZM80.9601 32.7857H82.5672V34.3929H80.9601V32.7857ZM79.353 34.3929H80.9601V36H79.353V34.3929ZM79.353 32.7857H80.9601V34.3929H79.353V32.7857ZM77.7458 32.7857H79.353V34.3929H77.7458V32.7857ZM77.7458 31.1786H79.353V32.7857H77.7458V31.1786ZM77.7458 29.5714H79.353V31.1786H77.7458V29.5714ZM77.7458 27.9643H79.353V29.5714H77.7458V27.9643ZM77.7458 26.3571H79.353V27.9643H77.7458V26.3571ZM77.7458 24.75H79.353V26.3571H77.7458V24.75ZM79.353 29.5714H80.9601V31.1786H79.353V29.5714ZM79.353 31.1786H80.9601V32.7857H79.353V31.1786ZM79.353 27.9643H80.9601V29.5714H79.353V27.9643ZM79.353 26.3571H80.9601V27.9643H79.353V26.3571ZM79.353 19.9286H80.9601V21.5357H79.353V19.9286ZM79.353 21.5357H80.9601V23.1429H79.353V21.5357ZM79.353 23.1429H80.9601V24.75H79.353V23.1429ZM79.353 24.75H80.9601V26.3571H79.353V24.75ZM77.7458 23.1429H79.353V24.75H77.7458V23.1429ZM76.1387 24.75H77.7458V26.3571H76.1387V24.75ZM80.9601 24.75H82.5672V26.3571H80.9601V24.75ZM82.5672 24.75H84.1744V26.3571H82.5672V24.75ZM77.7458 21.5357H79.353V23.1429H77.7458V21.5357ZM76.1387 26.3571H77.7458V27.9643H76.1387V26.3571ZM80.9601 26.3571H82.5672V27.9643H80.9601V26.3571ZM82.5672 26.3571H84.1744V27.9643H82.5672V26.3571ZM95.9202 36H94.3131V34.3929H95.9202V36ZM95.9202 34.3929H94.3131V32.7857H95.9202V34.3929ZM94.3131 34.3929H92.7059V32.7857H94.3131V34.3929ZM92.7059 36H91.0988V34.3929H92.7059V36ZM91.0988 36H89.4916V34.3929H91.0988V36ZM89.4916 36H87.8845V34.3929H89.4916V36ZM89.4916 34.3929H87.8845V32.7857H89.4916V34.3929ZM91.0988 34.3929H89.4916V32.7857H91.0988V34.3929ZM87.8845 34.3929H86.2773V32.7857H87.8845V34.3929ZM87.8845 32.7857H86.2773V31.1786H87.8845V32.7857ZM87.8845 26.3571H86.2773V24.75H87.8845V26.3571ZM89.4916 26.3571H87.8845V24.75H89.4916V26.3571ZM89.4916 32.7857H87.8845V31.1786H89.4916V32.7857ZM91.0988 26.3571H89.4916V24.75H91.0988V26.3571ZM89.4916 24.75H87.8845V23.1429H89.4916V24.75ZM91.0988 24.75H89.4916V23.1429H91.0988V24.75ZM92.7059 24.75H91.0988V23.1429H92.7059V24.75ZM94.3131 24.75H92.7059V23.1429H94.3131V24.75ZM95.9202 24.75H94.3131V23.1429H95.9202V24.75ZM95.9202 26.3571H94.3131V24.75H95.9202V26.3571ZM94.3131 26.3571H92.7059V24.75H94.3131V26.3571ZM95.9202 27.9643H94.3131V26.3571H95.9202V27.9643ZM97.5273 26.3571H95.9202V24.75H97.5273V26.3571ZM97.5273 27.9643H95.9202V26.3571H97.5273V27.9643ZM97.5273 29.5714H95.9202V27.9643H97.5273V29.5714ZM97.5273 31.1786H95.9202V29.5714H97.5273V31.1786ZM97.5273 32.7857H95.9202V31.1786H97.5273V32.7857ZM97.5273 34.3929H95.9202V32.7857H97.5273V34.3929ZM95.9202 32.7857H94.3131V31.1786H95.9202V32.7857ZM95.9202 31.1786H94.3131V29.5714H95.9202V31.1786ZM95.9202 29.5714H94.3131V27.9643H95.9202V29.5714ZM92.7059 26.3571H91.0988V24.75H92.7059V26.3571ZM92.7059 34.3929H91.0988V32.7857H92.7059V34.3929ZM95.9202 34.3929H97.5273V36H95.9202V34.3929ZM92.7059 27.9643H94.3131V29.5714H92.7059V27.9643ZM91.0988 27.9643H92.7059V29.5714H91.0988V27.9643ZM89.4916 27.9643H91.0988V29.5714H89.4916V27.9643ZM87.8845 27.9643H89.4916V29.5714H87.8845V27.9643ZM86.2773 29.5714H87.8845V31.1786H86.2773V29.5714ZM87.8845 29.5714H89.4916V31.1786H87.8845V29.5714ZM92.7059 29.5714H94.3131V31.1786H92.7059V29.5714ZM91.0988 29.5714H92.7059V31.1786H91.0988V29.5714ZM89.4916 29.5714H91.0988V31.1786H89.4916V29.5714ZM99.6387 24.75H101.246V26.3571H99.6387V24.75ZM99.6387 23.1429H101.246V24.75H99.6387V23.1429ZM101.246 23.1429H102.853V24.75H101.246V23.1429ZM101.246 24.75H102.853V26.3571H101.246V24.75ZM101.246 26.3571H102.853V27.9643H101.246V26.3571ZM101.246 27.9643H102.853V29.5714H101.246V27.9643ZM101.246 29.5714H102.853V31.1786H101.246V29.5714ZM99.6387 29.5714H101.246V31.1786H99.6387V29.5714ZM99.6387 27.9643H101.246V29.5714H99.6387V27.9643ZM99.6387 26.3571H101.246V27.9643H99.6387V26.3571ZM99.6387 31.1786H101.246V32.7857H99.6387V31.1786ZM101.246 31.1786H102.853V32.7857H101.246V31.1786ZM101.246 32.7857H102.853V34.3929H101.246V32.7857ZM101.246 34.3929H102.853V36H101.246V34.3929ZM99.6387 34.3929H101.246V36H99.6387V34.3929ZM99.6387 32.7857H101.246V34.3929H99.6387V32.7857ZM102.853 24.75H104.46V26.3571H102.853V24.75ZM104.46 24.75H106.067V26.3571H104.46V24.75ZM106.067 24.75H107.674V26.3571H106.067V24.75ZM106.067 23.1429H107.674V24.75H106.067V23.1429ZM104.46 23.1429H106.067V24.75H104.46V23.1429ZM102.853 26.3571H104.46V27.9643H102.853V26.3571ZM107.674 24.75H109.282V26.3571H107.674V24.75ZM106.067 26.3571H107.674V27.9643H106.067V26.3571ZM117.817 32.7857H119.424V34.3929H117.817V32.7857ZM117.817 34.3929H119.424V36H117.817V34.3929ZM116.21 34.3929H117.817V36H116.21V34.3929ZM116.21 32.7857H117.817V34.3929H116.21V32.7857ZM114.603 34.3929H116.21V36H114.603V34.3929ZM114.603 32.7857H116.21V34.3929H114.603V32.7857ZM112.996 32.7857H114.603V34.3929H112.996V32.7857ZM112.996 31.1786H114.603V32.7857H112.996V31.1786ZM112.996 29.5714H114.603V31.1786H112.996V29.5714ZM112.996 27.9643H114.603V29.5714H112.996V27.9643ZM112.996 26.3571H114.603V27.9643H112.996V26.3571ZM112.996 24.75H114.603V26.3571H112.996V24.75ZM114.603 29.5714H116.21V31.1786H114.603V29.5714ZM114.603 31.1786H116.21V32.7857H114.603V31.1786ZM114.603 27.9643H116.21V29.5714H114.603V27.9643ZM114.603 26.3571H116.21V27.9643H114.603V26.3571ZM114.603 19.9286H116.21V21.5357H114.603V19.9286ZM114.603 21.5357H116.21V23.1429H114.603V21.5357ZM114.603 23.1429H116.21V24.75H114.603V23.1429ZM114.603 24.75H116.21V26.3571H114.603V24.75ZM112.996 23.1429H114.603V24.75H112.996V23.1429ZM111.389 24.75H112.996V26.3571H111.389V24.75ZM116.21 24.75H117.817V26.3571H116.21V24.75ZM117.817 24.75H119.424V26.3571H117.817V24.75ZM112.996 21.5357H114.603V23.1429H112.996V21.5357ZM111.389 26.3571H112.996V27.9643H111.389V26.3571ZM116.21 26.3571H117.817V27.9643H116.21V26.3571ZM117.817 26.3571H119.424V27.9643H117.817V26.3571ZM124.742 23.1429H126.349V24.75H124.742V23.1429ZM123.134 23.1429H124.742V24.75H123.134V23.1429ZM123.134 24.75H124.742V26.3571H123.134V24.75ZM124.742 24.75H126.349V26.3571H124.742V24.75ZM126.349 23.1429H127.956V24.75H126.349V23.1429ZM127.956 23.1429H129.563V24.75H127.956V23.1429ZM129.563 23.1429H131.17V24.75H129.563V23.1429ZM129.563 24.75H131.17V26.3571H129.563V24.75ZM127.956 24.75H129.563V26.3571H127.956V24.75ZM131.17 24.75H132.777V26.3571H131.17V24.75ZM131.17 26.3571H132.777V27.9643H131.17V26.3571ZM131.17 32.7857H132.777V34.3929H131.17V32.7857ZM129.563 32.7857H131.17V34.3929H129.563V32.7857ZM129.563 26.3571H131.17V27.9643H129.563V26.3571ZM127.956 32.7857H129.563V34.3929H127.956V32.7857ZM129.563 34.3929H131.17V36H129.563V34.3929ZM127.956 34.3929H129.563V36H127.956V34.3929ZM126.349 34.3929H127.956V36H126.349V34.3929ZM124.742 34.3929H126.349V36H124.742V34.3929ZM123.134 34.3929H124.742V36H123.134V34.3929ZM123.134 32.7857H124.742V34.3929H123.134V32.7857ZM124.742 32.7857H126.349V34.3929H124.742V32.7857ZM123.134 31.1786H124.742V32.7857H123.134V31.1786ZM121.527 32.7857H123.134V34.3929H121.527V32.7857ZM121.527 31.1786H123.134V32.7857H121.527V31.1786ZM121.527 29.5714H123.134V31.1786H121.527V29.5714ZM121.527 27.9643H123.134V29.5714H121.527V27.9643ZM121.527 26.3571H123.134V27.9643H121.527V26.3571ZM121.527 24.75H123.134V26.3571H121.527V24.75ZM123.134 26.3571H124.742V27.9643H123.134V26.3571ZM123.134 27.9643H124.742V29.5714H123.134V27.9643ZM123.134 29.5714H124.742V31.1786H123.134V29.5714ZM126.349 32.7857H127.956V34.3929H126.349V32.7857ZM126.349 24.75H127.956V26.3571H126.349V24.75ZM129.563 27.9643H131.17V29.5714H129.563V27.9643ZM131.17 27.9643H132.777V29.5714H131.17V27.9643ZM124.742 29.5714H126.349V31.1786H124.742V29.5714ZM126.349 29.5714H127.956V31.1786H126.349V29.5714ZM127.956 29.5714H129.563V31.1786H127.956V29.5714ZM129.563 29.5714H131.17V31.1786H129.563V29.5714ZM131.17 29.5714H132.777V31.1786H131.17V29.5714ZM127.956 27.9643H129.563V29.5714H127.956V27.9643ZM126.349 27.9643H127.956V29.5714H126.349V27.9643ZM124.742 27.9643H126.349V29.5714H124.742V27.9643ZM146.139 24.75V26.3571H144.532V24.75H146.139ZM146.139 23.1429V24.75H144.532V23.1429H146.139ZM144.532 23.1429V24.75H142.924V23.1429H144.532ZM144.532 24.75V26.3571H142.924V24.75H144.532ZM144.532 26.3571V27.9643H142.924V26.3571H144.532ZM144.532 27.9643V29.5714H142.924V27.9643H144.532ZM144.532 29.5714V31.1786H142.924V29.5714H144.532ZM146.139 29.5714V31.1786H144.532V29.5714H146.139ZM146.139 27.9643V29.5714H144.532V27.9643H146.139ZM146.139 26.3571V27.9643H144.532V26.3571H146.139ZM146.139 31.1786V32.7857H144.532V31.1786H146.139ZM144.532 31.1786V32.7857H142.924V31.1786H144.532ZM144.532 32.7857V34.3929H142.924V32.7857H144.532ZM144.532 34.3929V36H142.924V34.3929H144.532ZM146.139 34.3929V36H144.532V34.3929H146.139ZM146.139 32.7857V34.3929H144.532V32.7857H146.139ZM138.103 34.3929V36H136.496V34.3929H138.103ZM136.496 32.7857V34.3929H134.889V32.7857H136.496ZM136.496 31.1786V32.7857H134.889V31.1786H136.496ZM136.496 29.5714V31.1786H134.889V29.5714H136.496ZM136.496 27.9643V29.5714H134.889V27.9643H136.496ZM136.496 26.3571V27.9643H134.889V26.3571H136.496ZM136.496 24.75V26.3571H134.889V24.75H136.496ZM138.103 27.9643V29.5714H136.496V27.9643H138.103ZM138.103 29.5714V31.1786H136.496V29.5714H138.103ZM138.103 31.1786V32.7857H136.496V31.1786H138.103ZM138.103 32.7857V34.3929H136.496V32.7857H138.103ZM138.103 26.3571V27.9643H136.496V26.3571H138.103ZM139.71 24.75V26.3571H138.103V24.75H139.71ZM139.71 23.1429V24.75H138.103V23.1429H139.71ZM138.103 23.1429V24.75H136.496V23.1429H138.103ZM138.103 24.75V26.3571H136.496V24.75H138.103ZM141.317 23.1429V24.75H139.71V23.1429H141.317ZM146.139 19.9286V21.5357H144.532V19.9286H146.139ZM144.532 19.9286V21.5357H142.924V19.9286H144.532ZM144.532 21.5357V23.1429H142.924V21.5357H144.532ZM146.139 21.5357V23.1429H144.532V21.5357H146.139ZM141.317 34.3929V36H139.71V34.3929H141.317ZM139.71 34.3929V36H138.103V34.3929H139.71ZM139.71 32.7857V34.3929H138.103V32.7857H139.71ZM141.317 32.7857V34.3929H139.71V32.7857H141.317ZM142.924 32.7857V34.3929H141.317V32.7857H142.924ZM142.924 23.1429V24.75H141.317V23.1429H142.924ZM142.924 24.75V26.3571H141.317V24.75H142.924ZM141.317 24.75V26.3571H139.71V24.75H141.317Z" fill="white"/>
<mask id="path-9-inside-4_1590_122406" fill="white">
<path d="M161 0H158V56H161V0Z"/>
</mask>
<path d="M161 0H158V56H161V0Z" fill="#008BEE"/>
<path d="M161 0V6H158V0V-6H161V0ZM158 56V50H161V56V62H158V56Z" fill="#008BEE" mask="url(#path-9-inside-4_1590_122406)"/>
<mask id="path-11-inside-5_1590_122406" fill="white">
<path d="M164 3H161V53H164V3Z"/>
</mask>
<path d="M164 3H161V53H164V3Z" fill="#008BEE"/>
<path d="M164 3V9H161V3V-3H164V3ZM161 53V47H164V53V59H161V53Z" fill="#008BEE" mask="url(#path-11-inside-5_1590_122406)"/>
<rect x="-0.75" y="0.75" width="1.5" height="42.5" transform="matrix(-1 0 0 1 165.5 6)" fill="#008BEE" stroke="#008BEE" stroke-width="1.5"/>
</g>
<defs>
<filter id="filter0_d_1590_122406" x="0" y="0" width="173" height="59" filterUnits="userSpaceOnUse" color-interpolation-filters="sRGB">
<feFlood flood-opacity="0" result="BackgroundImageFix"/>
<feColorMatrix in="SourceAlpha" type="matrix" values="0 0 0 0 0 0 0 0 0 0 0 0 0 0 0 0 0 0 127 0" result="hardAlpha"/>
<feOffset dx="3" dy="3"/>
<feComposite in2="hardAlpha" operator="out"/>
<feColorMatrix type="matrix" values="0 0 0 0 0 0 0 0 0 0.278431 0 0 0 0 0.478431 0 0 0 1 0"/>
<feBlend mode="normal" in2="BackgroundImageFix" result="effect1_dropShadow_1590_122406"/>
<feBlend mode="normal" in="SourceGraphic" in2="effect1_dropShadow_1590_122406" result="shape"/>
</filter>
</defs>
</svg>
