<svg width="154" height="59" viewBox="0 0 154 59" fill="none" xmlns="http://www.w3.org/2000/svg">
<g filter="url(#filter0_d_1581_90296)">
<mask id="path-1-inside-1_1581_90296" fill="white">
<path d="M6.5 0.00012207H9.5V56.0001H6.5V0.00012207Z"/>
</mask>
<path d="M6.5 0.00012207H9.5V56.0001H6.5V0.00012207Z" fill="#008BEE"/>
<path d="M6.5 0.00012207V6.00012H9.5V0.00012207V-5.99988H6.5V0.00012207ZM9.5 56.0001V50.0001H6.5V56.0001V62.0001H9.5V56.0001Z" fill="#008BEE" mask="url(#path-1-inside-1_1581_90296)"/>
<mask id="path-3-inside-2_1581_90296" fill="white">
<path d="M3.5 3.00012H6.5V53.0001H3.5V3.00012Z"/>
</mask>
<path d="M3.5 3.00012H6.5V53.0001H3.5V3.00012Z" fill="#008BEE"/>
<path d="M3.5 3.00012V9.00012H6.5V3.00012V-2.99988H3.5V3.00012ZM6.5 53.0001V47.0001H3.5V53.0001V59.0001H6.5V53.0001Z" fill="#008BEE" mask="url(#path-3-inside-2_1581_90296)"/>
<rect x="1.25" y="6.75012" width="1.5" height="42.5" fill="#008BEE" stroke="#008BEE" stroke-width="1.5"/>
<mask id="path-6-inside-3_1581_90296" fill="white">
<path d="M9.5 0.00012207H141.5V56.0001H9.5V0.00012207Z"/>
</mask>
<path d="M9.5 0.00012207H141.5V56.0001H9.5V0.00012207Z" fill="#008BEE"/>
<path d="M9.5 0.00012207V3.00012H141.5V0.00012207V-2.99988H9.5V0.00012207ZM141.5 56.0001V53.0001H9.5V56.0001V59.0001H141.5V56.0001Z" fill="#008BEE" mask="url(#path-6-inside-3_1581_90296)"/>
<path d="M29.1429 23.143H30.75V24.7501H29.1429V23.143ZM27.5357 23.143H29.1429V24.7501H27.5357V23.143ZM27.5357 21.5358H29.1429V23.143H27.5357V21.5358ZM29.1429 21.5358H30.75V23.143H29.1429V21.5358ZM27.5357 19.9287H29.1429V21.5358H27.5357V19.9287ZM25.9286 19.9287H27.5357V21.5358H25.9286V19.9287ZM25.9286 21.5358H27.5357V23.143H25.9286V21.5358ZM24.3214 21.5358H25.9286V23.143H24.3214V21.5358ZM22.7143 21.5358H24.3214V23.143H22.7143V21.5358ZM22.7143 19.9287H24.3214V21.5358H22.7143V19.9287ZM21.1071 19.9287H22.7143V21.5358H21.1071V19.9287ZM24.3214 19.9287H25.9286V21.5358H24.3214V19.9287ZM21.1071 21.5358H22.7143V23.143H21.1071V21.5358ZM19.5 21.5358H21.1071V23.143H19.5V21.5358ZM19.5 23.143H21.1071V24.7501H19.5V23.143ZM21.1071 23.143H22.7143V24.7501H21.1071V23.143ZM21.1071 24.7501H22.7143V26.3573H21.1071V24.7501ZM21.1071 26.3573H22.7143V27.9644H21.1071V26.3573ZM19.5 26.3573H21.1071V27.9644H19.5V26.3573ZM19.5 24.7501H21.1071V26.3573H19.5V24.7501ZM21.1071 27.9644H22.7143V29.5716H21.1071V27.9644ZM22.7143 27.9644H24.3214V29.5716H22.7143V27.9644ZM22.7143 26.3573H24.3214V27.9644H22.7143V26.3573ZM24.3214 26.3573H25.9286V27.9644H24.3214V26.3573ZM25.9286 26.3573H27.5357V27.9644H25.9286V26.3573ZM27.5357 26.3573H29.1429V27.9644H27.5357V26.3573ZM27.5357 27.9644H29.1429V29.5716H27.5357V27.9644ZM25.9286 27.9644H27.5357V29.5716H25.9286V27.9644ZM24.3214 27.9644H25.9286V29.5716H24.3214V27.9644ZM29.1429 27.9644H30.75V29.5716H29.1429V27.9644ZM29.1429 29.5716H30.75V31.1787H29.1429V29.5716ZM27.5357 29.5716H29.1429V31.1787H27.5357V29.5716ZM25.9286 32.7858H27.5357V34.393H25.9286V32.7858ZM27.5357 32.7858H29.1429V34.393H27.5357V32.7858ZM27.5357 31.1787H29.1429V32.7858H27.5357V31.1787ZM29.1429 31.1787H30.75V32.7858H29.1429V31.1787ZM29.1429 32.7858H30.75V34.393H29.1429V32.7858ZM27.5357 34.393H29.1429V36.0001H27.5357V34.393ZM25.9286 34.393H27.5357V36.0001H25.9286V34.393ZM24.3214 34.393H25.9286V36.0001H24.3214V34.393ZM22.7143 34.393H24.3214V36.0001H22.7143V34.393ZM21.1071 34.393H22.7143V36.0001H21.1071V34.393ZM21.1071 32.7858H22.7143V34.393H21.1071V32.7858ZM22.7143 32.7858H24.3214V34.393H22.7143V32.7858ZM24.3214 32.7858H25.9286V34.393H24.3214V32.7858ZM19.5 32.7858H21.1071V34.393H19.5V32.7858ZM19.5 31.1787H21.1071V32.7858H19.5V31.1787ZM21.1071 31.1787H22.7143V32.7858H21.1071V31.1787ZM39.2899 32.7858H40.897V34.393H39.2899V32.7858ZM39.2899 34.393H40.897V36.0001H39.2899V34.393ZM37.6828 34.393H39.2899V36.0001H37.6828V34.393ZM37.6828 32.7858H39.2899V34.393H37.6828V32.7858ZM36.0756 34.393H37.6828V36.0001H36.0756V34.393ZM36.0756 32.7858H37.6828V34.393H36.0756V32.7858ZM34.4685 32.7858H36.0756V34.393H34.4685V32.7858ZM34.4685 31.1787H36.0756V32.7858H34.4685V31.1787ZM34.4685 29.5716H36.0756V31.1787H34.4685V29.5716ZM34.4685 27.9644H36.0756V29.5716H34.4685V27.9644ZM34.4685 26.3573H36.0756V27.9644H34.4685V26.3573ZM34.4685 24.7501H36.0756V26.3573H34.4685V24.7501ZM36.0756 29.5716H37.6828V31.1787H36.0756V29.5716ZM36.0756 31.1787H37.6828V32.7858H36.0756V31.1787ZM36.0756 27.9644H37.6828V29.5716H36.0756V27.9644ZM36.0756 26.3573H37.6828V27.9644H36.0756V26.3573ZM36.0756 19.9287H37.6828V21.5358H36.0756V19.9287ZM36.0756 21.5358H37.6828V23.143H36.0756V21.5358ZM36.0756 23.143H37.6828V24.7501H36.0756V23.143ZM36.0756 24.7501H37.6828V26.3573H36.0756V24.7501ZM34.4685 23.143H36.0756V24.7501H34.4685V23.143ZM32.8613 24.7501H34.4685V26.3573H32.8613V24.7501ZM37.6828 24.7501H39.2899V26.3573H37.6828V24.7501ZM39.2899 24.7501H40.897V26.3573H39.2899V24.7501ZM34.4685 21.5358H36.0756V23.143H34.4685V21.5358ZM32.8613 26.3573H34.4685V27.9644H32.8613V26.3573ZM37.6828 26.3573H39.2899V27.9644H37.6828V26.3573ZM39.2899 26.3573H40.897V27.9644H39.2899V26.3573ZM52.6429 36.0001H51.0357V34.393H52.6429V36.0001ZM52.6429 34.393H51.0357V32.7858H52.6429V34.393ZM51.0357 34.393H49.4286V32.7858H51.0357V34.393ZM49.4286 36.0001H47.8214V34.393H49.4286V36.0001ZM47.8214 36.0001H46.2143V34.393H47.8214V36.0001ZM46.2143 36.0001H44.6071V34.393H46.2143V36.0001ZM46.2143 34.393H44.6071V32.7858H46.2143V34.393ZM47.8214 34.393H46.2143V32.7858H47.8214V34.393ZM44.6071 34.393H43V32.7858H44.6071V34.393ZM44.6071 32.7858H43V31.1787H44.6071V32.7858ZM44.6071 26.3573H43V24.7501H44.6071V26.3573ZM46.2143 26.3573H44.6071V24.7501H46.2143V26.3573ZM46.2143 32.7858H44.6071V31.1787H46.2143V32.7858ZM47.8214 26.3573H46.2143V24.7501H47.8214V26.3573ZM46.2143 24.7501H44.6071V23.143H46.2143V24.7501ZM47.8214 24.7501H46.2143V23.143H47.8214V24.7501ZM49.4286 24.7501H47.8214V23.143H49.4286V24.7501ZM51.0357 24.7501H49.4286V23.143H51.0357V24.7501ZM52.6429 24.7501H51.0357V23.143H52.6429V24.7501ZM52.6429 26.3573H51.0357V24.7501H52.6429V26.3573ZM51.0357 26.3573H49.4286V24.7501H51.0357V26.3573ZM52.6429 27.9644H51.0357V26.3573H52.6429V27.9644ZM54.25 26.3573H52.6429V24.7501H54.25V26.3573ZM54.25 27.9644H52.6429V26.3573H54.25V27.9644ZM54.25 29.5716H52.6429V27.9644H54.25V29.5716ZM54.25 31.1787H52.6429V29.5716H54.25V31.1787ZM54.25 32.7858H52.6429V31.1787H54.25V32.7858ZM54.25 34.393H52.6429V32.7858H54.25V34.393ZM52.6429 32.7858H51.0357V31.1787H52.6429V32.7858ZM52.6429 31.1787H51.0357V29.5716H52.6429V31.1787ZM52.6429 29.5716H51.0357V27.9644H52.6429V29.5716ZM49.4286 26.3573H47.8214V24.7501H49.4286V26.3573ZM49.4286 34.393H47.8214V32.7858H49.4286V34.393ZM52.6429 34.393H54.25V36.0001H52.6429V34.393ZM49.4286 27.9644H51.0357V29.5716H49.4286V27.9644ZM47.8214 27.9644H49.4286V29.5716H47.8214V27.9644ZM46.2143 27.9644H47.8214V29.5716H46.2143V27.9644ZM44.6071 27.9644H46.2143V29.5716H44.6071V27.9644ZM43 29.5716H44.6071V31.1787H43V29.5716ZM44.6071 29.5716H46.2143V31.1787H44.6071V29.5716ZM49.4286 29.5716H51.0357V31.1787H49.4286V29.5716ZM47.8214 29.5716H49.4286V31.1787H47.8214V29.5716ZM46.2143 29.5716H47.8214V31.1787H46.2143V29.5716ZM56.3613 24.7501H57.9685V26.3573H56.3613V24.7501ZM56.3613 23.143H57.9685V24.7501H56.3613V23.143ZM57.9685 23.143H59.5756V24.7501H57.9685V23.143ZM57.9685 24.7501H59.5756V26.3573H57.9685V24.7501ZM57.9685 26.3573H59.5756V27.9644H57.9685V26.3573ZM57.9685 27.9644H59.5756V29.5716H57.9685V27.9644ZM57.9685 29.5716H59.5756V31.1787H57.9685V29.5716ZM56.3613 29.5716H57.9685V31.1787H56.3613V29.5716ZM56.3613 27.9644H57.9685V29.5716H56.3613V27.9644ZM56.3613 26.3573H57.9685V27.9644H56.3613V26.3573ZM56.3613 31.1787H57.9685V32.7858H56.3613V31.1787ZM57.9685 31.1787H59.5756V32.7858H57.9685V31.1787ZM57.9685 32.7858H59.5756V34.393H57.9685V32.7858ZM57.9685 34.393H59.5756V36.0001H57.9685V34.393ZM56.3613 34.393H57.9685V36.0001H56.3613V34.393ZM56.3613 32.7858H57.9685V34.393H56.3613V32.7858ZM59.5756 24.7501H61.1828V26.3573H59.5756V24.7501ZM61.1828 24.7501H62.7899V26.3573H61.1828V24.7501ZM62.7899 24.7501H64.397V26.3573H62.7899V24.7501ZM62.7899 23.143H64.397V24.7501H62.7899V23.143ZM61.1828 23.143H62.7899V24.7501H61.1828V23.143ZM59.5756 26.3573H61.1828V27.9644H59.5756V26.3573ZM64.397 24.7501H66.0042V26.3573H64.397V24.7501ZM62.7899 26.3573H64.397V27.9644H62.7899V26.3573ZM74.5399 32.7858H76.147V34.393H74.5399V32.7858ZM74.5399 34.393H76.147V36.0001H74.5399V34.393ZM72.9328 34.393H74.5399V36.0001H72.9328V34.393ZM72.9328 32.7858H74.5399V34.393H72.9328V32.7858ZM71.3256 34.393H72.9328V36.0001H71.3256V34.393ZM71.3256 32.7858H72.9328V34.393H71.3256V32.7858ZM69.7185 32.7858H71.3256V34.393H69.7185V32.7858ZM69.7185 31.1787H71.3256V32.7858H69.7185V31.1787ZM69.7185 29.5716H71.3256V31.1787H69.7185V29.5716ZM69.7185 27.9644H71.3256V29.5716H69.7185V27.9644ZM69.7185 26.3573H71.3256V27.9644H69.7185V26.3573ZM69.7185 24.7501H71.3256V26.3573H69.7185V24.7501ZM71.3256 29.5716H72.9328V31.1787H71.3256V29.5716ZM71.3256 31.1787H72.9328V32.7858H71.3256V31.1787ZM71.3256 27.9644H72.9328V29.5716H71.3256V27.9644ZM71.3256 26.3573H72.9328V27.9644H71.3256V26.3573ZM71.3256 19.9287H72.9328V21.5358H71.3256V19.9287ZM71.3256 21.5358H72.9328V23.143H71.3256V21.5358ZM71.3256 23.143H72.9328V24.7501H71.3256V23.143ZM71.3256 24.7501H72.9328V26.3573H71.3256V24.7501ZM69.7185 23.143H71.3256V24.7501H69.7185V23.143ZM68.1113 24.7501H69.7185V26.3573H68.1113V24.7501ZM72.9328 24.7501H74.5399V26.3573H72.9328V24.7501ZM74.5399 24.7501H76.147V26.3573H74.5399V24.7501ZM69.7185 21.5358H71.3256V23.143H69.7185V21.5358ZM68.1113 26.3573H69.7185V27.9644H68.1113V26.3573ZM72.9328 26.3573H74.5399V27.9644H72.9328V26.3573ZM74.5399 26.3573H76.147V27.9644H74.5399V26.3573ZM89.9874 27.9644H91.5946V29.5716H89.9874V27.9644ZM89.9874 26.3573H91.5946V27.9644H89.9874V26.3573ZM91.5946 26.3573H93.2017V27.9644H91.5946V26.3573ZM91.5946 27.9644H93.2017V29.5716H91.5946V27.9644ZM91.5946 29.5716H93.2017V31.1787H91.5946V29.5716ZM89.9874 29.5716H91.5946V31.1787H89.9874V29.5716ZM89.9874 23.143H91.5946V24.7501H89.9874V23.143ZM89.9874 24.7501H91.5946V26.3573H89.9874V24.7501ZM88.3803 26.3573H89.9874V27.9644H88.3803V26.3573ZM88.3803 24.7501H89.9874V26.3573H88.3803V24.7501ZM88.3803 23.143H89.9874V24.7501H88.3803V23.143ZM85.166 19.9287H86.7732V21.5358H85.166V19.9287ZM86.7732 19.9287H88.3803V21.5358H86.7732V19.9287ZM88.3803 19.9287H89.9874V21.5358H88.3803V19.9287ZM88.3803 21.5358H89.9874V23.143H88.3803V21.5358ZM86.7732 21.5358H88.3803V23.143H86.7732V21.5358ZM85.166 21.5358H86.7732V23.143H85.166V21.5358ZM85.166 23.143H86.7732V24.7501H85.166V23.143ZM86.7732 23.143H88.3803V24.7501H86.7732V23.143ZM86.7732 24.7501H88.3803V26.3573H86.7732V24.7501ZM86.7732 26.3573H88.3803V27.9644H86.7732V26.3573ZM85.166 26.3573H86.7732V27.9644H85.166V26.3573ZM85.166 24.7501H86.7732V26.3573H85.166V24.7501ZM85.166 27.9644H86.7732V29.5716H85.166V27.9644ZM86.7732 27.9644H88.3803V29.5716H86.7732V27.9644ZM86.7732 29.5716H88.3803V31.1787H86.7732V29.5716ZM86.7732 31.1787H88.3803V32.7858H86.7732V31.1787ZM86.7732 32.7858H88.3803V34.393H86.7732V32.7858ZM86.7732 34.393H88.3803V36.0001H86.7732V34.393ZM85.166 34.393H86.7732V36.0001H85.166V34.393ZM85.166 32.7858H86.7732V34.393H85.166V32.7858ZM85.166 31.1787H86.7732V32.7858H85.166V31.1787ZM85.166 29.5716H86.7732V31.1787H85.166V29.5716ZM91.5946 31.1787H93.2017V32.7858H91.5946V31.1787ZM91.5946 32.7858H93.2017V34.393H91.5946V32.7858ZM93.2017 31.1787H94.8089V32.7858H93.2017V31.1787ZM93.2017 29.5716H94.8089V31.1787H93.2017V29.5716ZM93.2017 32.7858H94.8089V34.393H93.2017V32.7858ZM93.2017 34.393H94.8089V36.0001H93.2017V34.393ZM94.8089 34.393H96.416V36.0001H94.8089V34.393ZM96.416 34.393H98.0232V36.0001H96.416V34.393ZM96.416 32.7858H98.0232V34.393H96.416V32.7858ZM96.416 31.1787H98.0232V32.7858H96.416V31.1787ZM94.8089 31.1787H96.416V32.7858H94.8089V31.1787ZM94.8089 32.7858H96.416V34.393H94.8089V32.7858ZM94.8089 29.5716H96.416V31.1787H94.8089V29.5716ZM96.416 27.9644H98.0232V29.5716H96.416V27.9644ZM96.416 26.3573H98.0232V27.9644H96.416V26.3573ZM96.416 29.5716H98.0232V31.1787H96.416V29.5716ZM94.8089 27.9644H96.416V29.5716H94.8089V27.9644ZM94.8089 26.3573H96.416V27.9644H94.8089V26.3573ZM94.8089 24.7501H96.416V26.3573H94.8089V24.7501ZM96.416 24.7501H98.0232V26.3573H96.416V24.7501ZM96.416 23.143H98.0232V24.7501H96.416V23.143ZM94.8089 19.9287H96.416V21.5358H94.8089V19.9287ZM96.416 19.9287H98.0232V21.5358H96.416V19.9287ZM96.416 21.5358H98.0232V23.143H96.416V21.5358ZM94.8089 21.5358H96.416V23.143H94.8089V21.5358ZM94.8089 23.143H96.416V24.7501H94.8089V23.143ZM103.353 23.143H104.96V24.7501H103.353V23.143ZM101.746 23.143H103.353V24.7501H101.746V23.143ZM101.746 24.7501H103.353V26.3573H101.746V24.7501ZM103.353 24.7501H104.96V26.3573H103.353V24.7501ZM104.96 23.143H106.567V24.7501H104.96V23.143ZM106.567 23.143H108.174V24.7501H106.567V23.143ZM108.174 23.143H109.782V24.7501H108.174V23.143ZM108.174 24.7501H109.782V26.3573H108.174V24.7501ZM106.567 24.7501H108.174V26.3573H106.567V24.7501ZM108.174 27.9644H109.782V29.5716H108.174V27.9644ZM109.782 24.7501H111.389V26.3573H109.782V24.7501ZM109.782 26.3573H111.389V27.9644H109.782V26.3573ZM109.782 27.9644H111.389V29.5716H109.782V27.9644ZM109.782 29.5716H111.389V31.1787H109.782V29.5716ZM109.782 31.1787H111.389V32.7858H109.782V31.1787ZM109.782 32.7858H111.389V34.393H109.782V32.7858ZM108.174 32.7858H109.782V34.393H108.174V32.7858ZM108.174 31.1787H109.782V32.7858H108.174V31.1787ZM108.174 29.5716H109.782V31.1787H108.174V29.5716ZM108.174 26.3573H109.782V27.9644H108.174V26.3573ZM106.567 32.7858H108.174V34.393H106.567V32.7858ZM108.174 34.393H109.782V36.0001H108.174V34.393ZM106.567 34.393H108.174V36.0001H106.567V34.393ZM104.96 34.393H106.567V36.0001H104.96V34.393ZM103.353 34.393H104.96V36.0001H103.353V34.393ZM101.746 34.393H103.353V36.0001H101.746V34.393ZM101.746 32.7858H103.353V34.393H101.746V32.7858ZM103.353 32.7858H104.96V34.393H103.353V32.7858ZM101.746 31.1787H103.353V32.7858H101.746V31.1787ZM100.139 32.7858H101.746V34.393H100.139V32.7858ZM100.139 31.1787H101.746V32.7858H100.139V31.1787ZM100.139 29.5716H101.746V31.1787H100.139V29.5716ZM100.139 27.9644H101.746V29.5716H100.139V27.9644ZM100.139 26.3573H101.746V27.9644H100.139V26.3573ZM100.139 24.7501H101.746V26.3573H100.139V24.7501ZM101.746 26.3573H103.353V27.9644H101.746V26.3573ZM101.746 27.9644H103.353V29.5716H101.746V27.9644ZM101.746 29.5716H103.353V31.1787H101.746V29.5716ZM104.96 32.7858H106.567V34.393H104.96V32.7858ZM104.96 24.7501H106.567V26.3573H104.96V24.7501ZM113.5 23.143H115.107V24.7501H113.5V23.143ZM113.5 24.7501H115.107V26.3573H113.5V24.7501ZM113.5 26.3573H115.107V27.9644H113.5V26.3573ZM113.5 27.9644H115.107V29.5716H113.5V27.9644ZM113.5 29.5716H115.107V31.1787H113.5V29.5716ZM113.5 31.1787H115.107V32.7858H113.5V31.1787ZM115.107 31.1787H116.714V32.7858H115.107V31.1787ZM115.107 32.7858H116.714V34.393H115.107V32.7858ZM116.714 32.7858H118.321V34.393H116.714V32.7858ZM116.714 34.393H118.321V36.0001H116.714V34.393ZM118.321 32.7858H119.929V34.393H118.321V32.7858ZM119.929 31.1787H121.536V32.7858H119.929V31.1787ZM121.536 26.3573H123.143V27.9644H121.536V26.3573ZM119.929 23.143H121.536V24.7501H119.929V23.143ZM121.536 23.143H123.143V24.7501H121.536V23.143ZM121.536 24.7501H123.143V26.3573H121.536V24.7501ZM121.536 27.9644H123.143V29.5716H121.536V27.9644ZM121.536 29.5716H123.143V31.1787H121.536V29.5716ZM119.929 29.5716H121.536V31.1787H119.929V29.5716ZM119.929 27.9644H121.536V29.5716H119.929V27.9644ZM119.929 26.3573H121.536V27.9644H119.929V26.3573ZM119.929 24.7501H121.536V26.3573H119.929V24.7501ZM121.536 31.1787H123.143V32.7858H121.536V31.1787ZM124.75 32.7858H126.357V34.393H124.75V32.7858ZM124.75 34.393H126.357V36.0001H124.75V34.393ZM126.357 32.7858H127.964V34.393H126.357V32.7858ZM126.357 31.1787H127.964V32.7858H126.357V31.1787ZM127.964 31.1787H129.571V32.7858H127.964V31.1787ZM127.964 29.5716H129.571V31.1787H127.964V29.5716ZM127.964 27.9644H129.571V29.5716H127.964V27.9644ZM127.964 26.3573H129.571V27.9644H127.964V26.3573ZM127.964 24.7501H129.571V26.3573H127.964V24.7501ZM127.964 23.143H129.571V24.7501H127.964V23.143ZM115.107 24.7501H116.714V26.3573H115.107V24.7501ZM115.107 26.3573H116.714V27.9644H115.107V26.3573ZM115.107 27.9644H116.714V29.5716H115.107V27.9644ZM115.107 29.5716H116.714V31.1787H115.107V29.5716ZM115.107 23.143H116.714V24.7501H115.107V23.143ZM126.357 23.143H127.964V24.7501H126.357V23.143ZM126.357 24.7501H127.964V26.3573H126.357V24.7501ZM126.357 26.3573H127.964V27.9644H126.357V26.3573ZM126.357 27.9644H127.964V29.5716H126.357V27.9644ZM126.357 29.5716H127.964V31.1787H126.357V29.5716ZM118.321 34.393H119.929V36.0001H118.321V34.393ZM119.929 32.7858H121.536V34.393H119.929V32.7858ZM121.536 32.7858H123.143V34.393H121.536V32.7858ZM123.143 32.7858H124.75V34.393H123.143V32.7858ZM123.143 34.393H124.75V36.0001H123.143V34.393ZM116.714 31.1787H118.321V32.7858H116.714V31.1787ZM124.75 31.1787H126.357V32.7858H124.75V31.1787Z" fill="white"/>
<mask id="path-9-inside-4_1581_90296" fill="white">
<path d="M144.5 0.00012207H141.5V56.0001H144.5V0.00012207Z"/>
</mask>
<path d="M144.5 0.00012207H141.5V56.0001H144.5V0.00012207Z" fill="#008BEE"/>
<path d="M144.5 0.00012207V6.00012H141.5V0.00012207V-5.99988H144.5V0.00012207ZM141.5 56.0001V50.0001H144.5V56.0001V62.0001H141.5V56.0001Z" fill="#008BEE" mask="url(#path-9-inside-4_1581_90296)"/>
<mask id="path-11-inside-5_1581_90296" fill="white">
<path d="M147.5 3.00012H144.5V53.0001H147.5V3.00012Z"/>
</mask>
<path d="M147.5 3.00012H144.5V53.0001H147.5V3.00012Z" fill="#008BEE"/>
<path d="M147.5 3.00012V9.00012H144.5V3.00012V-2.99988H147.5V3.00012ZM144.5 53.0001V47.0001H147.5V53.0001V59.0001H144.5V53.0001Z" fill="#008BEE" mask="url(#path-11-inside-5_1581_90296)"/>
<rect x="-0.75" y="0.75" width="1.5" height="42.5" transform="matrix(-1 0 0 1 149 6.00012)" fill="#008BEE" stroke="#008BEE" stroke-width="1.5"/>
</g>
<defs>
<filter id="filter0_d_1581_90296" x="0.5" y="0.00012207" width="156" height="59" filterUnits="userSpaceOnUse" color-interpolation-filters="sRGB">
<feFlood flood-opacity="0" result="BackgroundImageFix"/>
<feColorMatrix in="SourceAlpha" type="matrix" values="0 0 0 0 0 0 0 0 0 0 0 0 0 0 0 0 0 0 127 0" result="hardAlpha"/>
<feOffset dx="3" dy="3"/>
<feComposite in2="hardAlpha" operator="out"/>
<feColorMatrix type="matrix" values="0 0 0 0 0 0 0 0 0 0.278431 0 0 0 0 0.478431 0 0 0 1 0"/>
<feBlend mode="normal" in2="BackgroundImageFix" result="effect1_dropShadow_1581_90296"/>
<feBlend mode="normal" in="SourceGraphic" in2="effect1_dropShadow_1581_90296" result="shape"/>
</filter>
</defs>
</svg>
