<svg width="318" height="28" viewBox="0 0 318 28" fill="none" xmlns="http://www.w3.org/2000/svg">
<g clip-path="url(#clip0_1577_70600)">
<path d="M0.656705 10.1643C0.54085 10.5403 0.386363 11.1044 0.270508 11.4804C0.424994 10.9164 0.81123 10.4275 1.31332 10.1643C2.35613 8.84812 3.9783 8.09606 5.67772 8.09606C2.54925 7.23116 1.58366 8.20886 1.31332 8.69771C1.04294 9.18656 0.81123 9.67545 0.656705 10.1643Z" fill="#2A72E5"/>
<path d="M3.901 5.50147L3.4375 5.91513C3.97822 5.50147 4.82792 5.57669 6.17974 6.21595C6.48871 5.68949 6.83632 5.23825 7.26118 4.8622C6.60457 4.41093 5.98662 3.99727 5.56175 4.18529C4.9824 4.59895 4.40309 5.01262 3.901 5.50147Z" fill="#2A72E5"/>
<path d="M10.312 1.96648C9.84859 2.15451 9.19197 2.38014 8.72852 2.56817C8.96026 2.83138 9.19197 3.09463 9.38509 3.39546C10.0803 3.01944 10.8528 2.68097 11.5866 2.41776C11.4708 1.89129 11.4321 1.62804 11.5866 1.55286C11.239 1.66566 10.6983 1.81607 10.312 1.96648Z" fill="#2A72E5"/>
<path d="M18.0753 0.537734C17.3415 0.612959 16.3759 0.688147 15.642 0.763372C15.2558 0.838559 15.1013 0.988972 14.9082 1.55305C15.9124 1.36502 16.878 1.25222 17.8822 1.177C18.1912 0.763372 18.6546 0.500122 19.1953 0.500122L18.0753 0.537734Z" fill="#2A72E5"/>
<path d="M26.1858 0.951125C25.4906 0.838288 24.6024 0.725488 23.9072 0.650263C23.212 0.575076 22.5168 0.725488 21.9761 1.10154C23.0189 1.13911 24.0617 1.25195 25.1047 1.40236C25.8769 1.06393 26.7266 0.988701 27.5377 1.17673C27.1129 1.13911 26.5721 1.02631 26.1858 0.951125Z" fill="#2A72E5"/>
<path d="M33.4475 3.20735C32.9457 2.98171 32.2504 2.68089 31.7482 2.45525C30.7441 2.04159 29.6241 1.9664 28.5811 2.192C29.4307 2.45525 30.2419 2.75608 31.0145 3.09451C32.4049 2.9441 33.8338 3.24493 34.9924 3.99703C34.529 3.77139 33.9498 3.43295 33.4475 3.20735Z" fill="#2A72E5"/>
<path d="M40.7087 10.5779C40.3609 9.63776 39.8975 8.73524 39.3179 7.90796L38.9705 7.41911C37.696 5.68931 35.6874 4.59877 33.4858 4.56116C33.9881 4.93721 34.4903 5.38844 34.8763 5.87733C38.5456 6.36618 41.0946 9.52496 41.3265 13.8871C41.288 12.7965 41.0946 11.6684 40.7087 10.5779Z" fill="#2A72E5"/>
<path d="M35.4559 23.9655C36.1511 23.5144 36.8078 23.0254 37.4644 22.4613C37.6959 22.2356 38.0048 21.9348 38.2367 21.7092C42.8328 16.5198 40.7471 9.07412 35.8037 7.72034C35.8422 7.94597 35.8807 8.20922 35.8807 8.43482C35.8807 8.47244 35.8807 8.51005 35.8807 8.54766C35.8807 8.77326 35.8422 9.03651 35.8037 9.26211C41.056 11.5936 40.5542 20.8067 34.9536 24.2663L35.4559 23.9655Z" fill="#2A72E5"/>
<path d="M28.5422 26.7104C29.2374 26.5225 30.1256 26.2968 30.8208 26.071C37.5799 23.5893 38.6615 13.5113 34.8761 11.1046C34.4513 11.5935 33.988 12.0071 33.4857 12.3831C36.6914 15.8052 33.4087 25.5449 27.3833 26.9361L28.5422 26.7104Z" fill="#2A72E5"/>
<path d="M20.7018 27.5001C21.3198 27.5001 22.1695 27.5001 22.8261 27.4626C28.4265 26.8986 32.4044 16.8957 31.014 13.7369C30.2418 14.0754 29.3921 14.3386 28.581 14.5642C28.581 18.5879 23.0192 27.5376 19.041 27.4248C19.5431 27.4626 20.1997 27.5001 20.7018 27.5001Z" fill="#2A72E5"/>
<path d="M12.5522 26.4474C13.1701 26.5978 14.0199 26.786 14.6378 26.8989C16.9938 27.0493 22.8645 19.3402 25.0275 15.2413C23.9845 15.3541 22.9418 15.467 21.899 15.467C20.1995 17.0839 15.7193 22.123 14.8309 23.1005C12.5522 25.6576 11.7025 26.1466 11.4321 26.1091L12.5522 26.4474Z" fill="#2A72E5"/>
<path d="M5.75501 23.5521C6.45021 24.0032 7.14542 24.3793 7.87926 24.7555L7.95652 24.793C8.07238 24.1536 13.6727 17.6481 17.9599 15.3542C16.9557 15.2414 15.9515 15.091 14.9859 14.8654C9.84903 16.7832 4.5963 22.6495 5.48463 23.3638L5.75501 23.5521Z" fill="#2A72E5"/>
<path d="M2.00831 20.0546C2.24002 20.3555 2.58767 20.8067 2.85801 21.1076C1.6993 19.3778 6.56583 14.9404 11.6254 13.8875C10.853 13.5867 10.1191 13.2482 9.42393 12.8722C4.78915 13.361 0.347518 16.5574 1.27447 18.7761C1.46759 19.1897 1.77656 19.7162 2.00831 20.0546Z" fill="#2A72E5"/>
<path d="M0 13.7746C0 13.8498 0 13.9251 0 14.0003C0.0386312 14.3763 0.0386314 14.8652 0.0772241 15.2412C-0.038631 12.7969 3.74642 11.2175 7.26113 11.3304C6.83626 10.9167 6.45003 10.4278 6.17969 9.939C3.24433 9.56295 1.62216 10.315 0.77247 10.9919C0.27038 11.8568 0.0386312 12.7969 0 13.7746Z" fill="#2A72E5"/>
<path d="M61.8364 6.21613H49.9404V8.54761H54.498V21.7092H57.3173V8.54761H61.8364V6.21613Z" fill="#111111"/>
<path d="M70.8739 11.2548C70.372 10.8035 69.7538 10.4275 69.136 10.2395C67.6297 9.75058 66.0459 9.75058 64.54 10.2395C63.8833 10.4651 63.304 10.8035 62.8017 11.2548C62.2995 11.706 61.9136 12.2701 61.6817 12.9094C61.4113 13.6238 61.2569 14.4136 61.2954 15.1657V16.5194C61.2954 17.2715 61.4113 18.0612 61.6817 18.7757C61.9136 19.4149 62.2995 19.979 62.8017 20.4303C63.304 20.8815 63.8833 21.2576 64.54 21.4456C66.0459 21.9344 67.6297 21.9344 69.136 21.4456C69.7923 21.2199 70.372 20.8815 70.8739 20.4303C71.3761 19.9414 71.7624 19.3774 71.9939 18.7757C72.2643 18.0612 72.4187 17.2715 72.3802 16.5194V15.1657C72.3802 14.3759 72.2643 13.6238 71.9939 12.9094C71.7624 12.3077 71.3761 11.7436 70.8739 11.2548ZM67.9386 19.3397C67.2049 19.5654 66.4322 19.5654 65.737 19.3397C65.4281 19.2269 65.1192 19.0765 64.8489 18.8133C64.5785 18.55 64.3851 18.2492 64.2696 17.8732C64.1147 17.4219 64.0377 16.9706 64.0762 16.4818V15.2032C63.9992 14.3759 64.2696 13.5487 64.81 12.9094C66.0074 12.0069 67.6682 12.0069 68.8656 12.9094C69.4449 13.5487 69.7153 14.3759 69.5994 15.2032V16.4818C69.5994 16.9706 69.522 17.4219 69.3675 17.8732C69.252 18.2116 69.0586 18.55 68.7882 18.8133C68.5564 19.0389 68.2475 19.2269 67.9386 19.3397Z" fill="#111111"/>
<path d="M85.1263 10.127H81.6117L77.2471 14.9403V6.21613H74.4663V21.6716H77.2471V18.212L78.5605 16.783L81.7662 21.6339H85.3196L80.5302 14.8652L85.1263 10.127Z" fill="#111111"/>
<path d="M94.5116 10.8415C94.0479 10.503 93.546 10.2774 93.0053 10.127C91.4989 9.71332 89.8766 9.78855 88.4092 10.3526C87.6751 10.6534 87.0188 10.9919 86.3621 11.4432L86.3236 11.4807L87.714 13.4738L87.7525 13.4362C88.6796 12.6841 89.8766 12.3081 91.0741 12.3081C91.6534 12.2704 92.1941 12.4209 92.6575 12.7593C93.0053 13.173 93.1982 13.737 93.1597 14.2635V14.6771H90.4948C89.7996 14.6771 89.0655 14.7523 88.3703 14.9404C87.8684 15.0908 87.3662 15.3164 86.9799 15.6172C86.6325 15.8805 86.3621 16.2565 86.2076 16.6702C86.0532 17.0838 85.9758 17.5351 85.9758 17.9863V18.6632C85.9373 19.5657 86.3236 20.4682 87.0573 21.0699C87.907 21.6715 88.9885 21.9724 90.0311 21.9348C90.3789 21.9348 90.6878 21.8972 91.0356 21.822C91.383 21.7468 91.6919 21.6339 92.0397 21.5211C92.3486 21.4083 92.619 21.2203 92.8893 21.0323C93.0823 20.8819 93.2367 20.6938 93.3916 20.4682L93.4301 21.7844H95.9405V13.6618C95.9405 13.1353 95.8246 12.5713 95.5927 12.0824C95.2839 11.556 94.9364 11.1799 94.5116 10.8415ZM93.1212 16.7454V17.0086C93.1212 17.347 93.1212 17.7231 93.0438 18.0615C93.0053 18.3624 92.8508 18.588 92.619 18.8136C91.9623 19.3777 91.0741 19.6409 90.1855 19.5657C89.7607 19.6033 89.3359 19.4905 89.027 19.2649C88.7566 19.0768 88.6022 18.7384 88.6407 18.4V18.1367C88.6407 17.7607 88.7566 17.3847 89.0655 17.0838C89.4907 16.783 89.9926 16.6326 90.5333 16.7078L93.1212 16.7454Z" fill="#111111"/>
<path d="M113.978 10.9915C113.591 10.6154 113.166 10.3522 112.665 10.1642C112.162 9.97619 111.622 9.901 111.081 9.901C110.309 9.86339 109.574 10.0138 108.879 10.3522C108.3 10.6531 107.798 11.1043 107.45 11.6308C107.218 11.1043 106.794 10.6531 106.253 10.3898C105.635 10.0514 104.978 9.901 104.283 9.901C103.588 9.901 102.893 10.0514 102.275 10.3522C101.734 10.6531 101.309 11.0667 101.039 11.5556V10.1266H98.4126V21.7088H101.193V14.6015C101.155 13.9622 101.348 13.323 101.773 12.8717C102.198 12.4957 102.738 12.2701 103.318 12.3077C103.588 12.3077 103.858 12.3453 104.129 12.4205C104.399 12.4957 104.592 12.6461 104.785 12.8341C104.978 13.0598 105.133 13.323 105.249 13.5862C105.365 13.9622 105.442 14.3759 105.403 14.7896V21.7464H108.184V14.752C108.184 14.3383 108.223 13.9622 108.377 13.5862C108.493 13.323 108.648 13.0598 108.879 12.8341C109.073 12.6461 109.304 12.5333 109.574 12.4581C110.077 12.3077 110.617 12.3077 111.158 12.4581C111.429 12.5333 111.622 12.6461 111.815 12.8341C112.046 13.0598 112.201 13.323 112.278 13.5862C112.394 13.9999 112.471 14.4135 112.433 14.8648V21.7464H115.214V14.3007C115.214 13.6614 115.098 12.9845 114.866 12.3829C114.673 11.8188 114.364 11.3675 113.978 10.9915Z" fill="#111111"/>
<path d="M125.757 10.8415C125.294 10.503 124.792 10.2774 124.251 10.127C122.745 9.71332 121.123 9.78855 119.655 10.3526C118.921 10.6534 118.265 10.9919 117.608 11.4432L117.569 11.4807L118.96 13.4738L118.999 13.4362C119.925 12.6841 121.123 12.3081 122.32 12.3081C122.9 12.2704 123.44 12.4209 123.904 12.7593C124.251 13.173 124.444 13.737 124.406 14.2635V14.6771H121.741C121.045 14.6771 120.312 14.7523 119.616 14.9404C119.114 15.0908 118.612 15.3164 118.226 15.6172C117.878 15.8805 117.608 16.2565 117.453 16.6702C117.299 17.0838 117.222 17.5351 117.222 17.9863V18.6632C117.183 19.5657 117.569 20.4682 118.303 21.0699C119.153 21.6715 120.234 21.9724 121.277 21.9348C121.625 21.9348 121.934 21.8972 122.281 21.822C122.629 21.7468 122.938 21.6339 123.285 21.5211C123.595 21.4083 123.865 21.2203 124.135 21.0323C124.328 20.8819 124.483 20.6938 124.637 20.4682L124.676 21.7844H127.187V13.6618C127.187 13.1353 127.071 12.5713 126.839 12.0824C126.53 11.556 126.182 11.1799 125.757 10.8415ZM124.367 16.7454V17.0086C124.367 17.347 124.367 17.7231 124.29 18.0615C124.251 18.3624 124.097 18.588 123.865 18.8136C123.208 19.3777 122.32 19.6409 121.432 19.5657C121.007 19.6033 120.582 19.4905 120.273 19.2649C120.003 19.0768 119.848 18.7384 119.887 18.4V18.1367C119.887 17.7607 120.003 17.3847 120.312 17.0838C120.736 16.783 121.239 16.6326 121.779 16.7078L124.367 16.7454Z" fill="#111111"/>
<path d="M140.318 10.127H136.804L132.439 14.9403V6.21613H129.658V21.6716H132.439V18.212L133.752 16.783L136.958 21.6339H140.511L135.722 14.8652L140.318 10.127Z" fill="#111111"/>
<path d="M155.458 15.7297L150.206 6.25339H147V21.7088H149.626V11.0292C149.626 11.0292 150.322 12.2325 150.515 12.5709L155.806 21.7088H159.012V6.25339H156.386V17.4219C156.386 17.3843 155.613 15.9929 155.458 15.7297Z" fill="#111111"/>
<path d="M170.406 11.142C169.942 10.6907 169.363 10.3899 168.745 10.2019C168.088 9.97623 167.354 9.86343 166.659 9.90101C165.925 9.90101 165.23 10.0138 164.535 10.2019C163.878 10.3899 163.299 10.7283 162.836 11.1796C162.333 11.6684 161.947 12.2325 161.677 12.8718C161.368 13.6615 161.252 14.4511 161.252 15.2785V16.4818C161.213 17.3843 161.368 18.2492 161.716 19.0765C161.986 19.7158 162.411 20.2798 162.952 20.7311C163.453 21.1447 164.072 21.4456 164.689 21.596C165.346 21.784 166.003 21.8592 166.698 21.8592C167.664 21.8968 168.629 21.784 169.556 21.5208C170.29 21.3328 170.946 21.0319 171.564 20.6183H171.603L170.444 18.6628H170.406C169.865 18.9637 169.285 19.2269 168.706 19.3774C168.088 19.5278 167.47 19.603 166.852 19.603C166.08 19.6406 165.308 19.4149 164.728 18.9261C164.226 18.3996 163.956 17.6475 163.994 16.8955H171.912V14.9776C171.912 14.2255 171.796 13.4734 171.526 12.759C171.256 12.1573 170.869 11.5932 170.406 11.142ZM166.621 12.1197C167.007 12.1197 167.432 12.1573 167.818 12.3077C168.127 12.4205 168.397 12.5709 168.629 12.7966C168.822 12.9846 168.977 13.2478 169.093 13.5111C169.17 13.7743 169.247 14.0751 169.247 14.376V14.8272H163.994V14.4136C163.994 13.8119 164.226 13.2102 164.651 12.759C165.153 12.3077 165.887 12.0821 166.621 12.1197Z" fill="#111111"/>
<path d="M180.216 19.2273C179.946 19.3401 179.637 19.4153 179.366 19.4905C179.096 19.5281 178.826 19.5657 178.555 19.5657C178.246 19.5657 177.976 19.4905 177.744 19.3401C177.513 19.0769 177.397 18.7384 177.435 18.4V12.3833H180.409V10.127H177.435V6.21613L174.654 7.19383V10.127H172.762V12.3833H174.654V18.4C174.654 18.8888 174.693 19.3777 174.809 19.8665C174.925 20.2802 175.118 20.6562 175.388 20.9571C175.697 21.2579 176.083 21.5211 176.508 21.6339C177.049 21.7844 177.628 21.8972 178.208 21.8596C178.71 21.8596 179.173 21.822 179.637 21.7092C179.984 21.6339 180.332 21.5211 180.641 21.3707H180.679L180.255 19.1897L180.216 19.2273Z" fill="#111111"/>
<path d="M192.614 19.039L190.567 10.1644V10.1268H187.979L185.855 19.039H185.816L184.078 10.1644V10.1268H181.104L184.039 21.6714V21.709H187.245L189.176 13.624H189.215L191.146 21.709H194.352L197.287 10.202V10.1644H194.506L192.614 19.039Z" fill="#111111"/>
<path d="M207.716 11.2548C207.214 10.8035 206.596 10.4275 205.978 10.2395C204.51 9.75058 202.888 9.75058 201.382 10.2395C200.725 10.4651 200.146 10.8035 199.644 11.2548C199.142 11.706 198.755 12.2701 198.524 12.9094C198.253 13.6238 198.099 14.4136 198.137 15.1657V16.5194C198.137 17.2715 198.253 18.0612 198.524 18.7757C198.755 19.4149 199.142 19.979 199.644 20.4303C200.146 20.8815 200.725 21.2576 201.382 21.4456C202.888 21.9344 204.471 21.9344 205.978 21.4456C206.635 21.2199 207.214 20.8815 207.716 20.4303C208.218 19.9414 208.604 19.3774 208.836 18.7757C209.106 18.0612 209.261 17.2715 209.222 16.5194V15.1657C209.222 14.3759 209.106 13.6238 208.836 12.9094C208.604 12.3077 208.218 11.7436 207.716 11.2548ZM204.78 19.3397C204.047 19.5654 203.274 19.5654 202.579 19.3397C202.27 19.2269 201.961 19.0765 201.691 18.8133C201.42 18.55 201.227 18.2492 201.111 17.8732C200.957 17.4219 200.88 16.9706 200.88 16.4818V15.2032C200.802 14.3759 201.072 13.5487 201.613 12.9094C202.811 12.0069 204.471 12.0069 205.669 12.9094C206.248 13.5487 206.519 14.3759 206.403 15.2032V16.4818C206.403 16.9706 206.325 17.4219 206.209 17.8732C206.094 18.2116 205.9 18.55 205.63 18.8133C205.399 19.0389 205.089 19.2269 204.78 19.3397Z" fill="#111111"/>
<path d="M218.221 9.93905C217.912 9.90144 217.603 9.86382 217.333 9.86382C216.599 9.82621 215.865 10.0142 215.247 10.3903C214.745 10.7287 214.32 11.2176 214.011 11.744V10.0895H211.346V21.6716H214.127V14.8276C214.127 14.4892 214.204 14.1131 214.32 13.8123C214.436 13.5114 214.629 13.2482 214.861 13.0226C215.093 12.797 215.363 12.6089 215.672 12.4961C215.981 12.3833 216.329 12.3081 216.715 12.3081C216.985 12.3081 217.294 12.3081 217.565 12.3833C217.796 12.4209 217.989 12.4961 218.182 12.5713H218.221L219.032 10.127H218.993C218.723 10.0519 218.453 9.97662 218.221 9.93905Z" fill="#111111"/>
<path d="M226.371 14.9403L231.005 10.127H227.491L223.126 14.9403V6.21613H220.345V21.6716H223.126V18.212L224.439 16.783L227.645 21.6339H231.199L226.371 14.9403Z" fill="#111111"/>
<path d="M309.018 19.1193L305.737 10.9742C305.517 10.4383 305.297 9.75243 304.923 8.63786V21.6915H302.303V6.23718H306.31L310.206 15.8398L313.949 6.23718H318V21.6915H315.336V8.63786C315.006 9.92392 314.785 10.4169 314.587 10.9742L311.263 19.1193H309.018Z" fill="#2A72E5"/>
<path d="M291.405 21.6915L285.571 6.23718H288.587L292.748 18.3263L297.063 6.23718H299.924L293.936 21.6915H291.405Z" fill="#2A72E5"/>
<path d="M273.344 6.23718H283.559V8.50923H276.14V12.6675H283.097V14.8968H276.14V19.4194H283.713V21.6915H273.344V6.23718Z" fill="#2A72E5"/>
<path d="M263.113 15.0895V12.8603H270.598V15.0895H263.113Z" fill="#2A72E5"/>
<path d="M261.748 9.88109L257.037 14.7682L261.946 21.6915H258.402L255.1 16.6759L253.713 18.1763V21.6915H250.939V5.48703H253.713V14.8753L258.248 9.88109H261.748Z" fill="#2A72E5"/>
<path d="M248.406 9.88116V12.0246L242.462 19.3338H248.758V21.6916H238.807V19.8482L245.015 12.239H239.248V9.88116H248.406Z" fill="#2A72E5"/>
</g>
<defs>
<clipPath id="clip0_1577_70600">
<rect width="318" height="27" fill="white" transform="translate(0 0.500122)"/>
</clipPath>
</defs>
</svg>
