<svg width="760" height="80" viewBox="73 36 760 80" fill="none" xmlns="http://www.w3.org/2000/svg">
<path d="M76.7946 65.1627C76.4776 66.2196 76.0548 67.8049 75.7378 68.8618C76.1605 67.2765 77.2174 65.9024 78.5913 65.1627C81.4449 61.4635 85.8838 59.3498 90.534 59.3498C81.9733 56.9189 79.3311 59.6668 78.5913 61.0407C77.8515 62.4147 77.2174 63.7887 76.7946 65.1627Z" fill="#2A72E5"/>
<path d="M85.6736 52.056L84.4053 53.2186C85.8849 52.0559 88.21 52.2674 91.9091 54.0641C92.7546 52.5844 93.7058 51.3162 94.8684 50.2593C93.0716 48.9909 91.3807 47.8283 90.2181 48.3568C88.6327 49.5194 87.0475 50.682 85.6736 52.056Z" fill="#2A72E5"/>
<path d="M103.22 42.1215C101.952 42.65 100.155 43.2841 98.8867 43.8126C99.5209 44.5524 100.155 45.2922 100.683 46.1377C102.586 45.0809 104.7 44.1296 106.708 43.3898C106.391 41.9102 106.285 41.1703 106.708 40.959C105.756 41.276 104.277 41.6988 103.22 42.1215Z" fill="#2A72E5"/>
<path d="M124.461 38.1057C122.453 38.3171 119.811 38.5285 117.803 38.7399C116.746 38.9512 116.323 39.3739 115.795 40.9593C118.543 40.4309 121.185 40.1138 123.933 39.9024C124.778 38.7399 126.046 38 127.526 38L124.461 38.1057Z" fill="#2A72E5"/>
<path d="M146.656 39.2676C144.754 38.9504 142.323 38.6334 140.421 38.422C138.518 38.2106 136.616 38.6334 135.136 39.6903C137.99 39.7959 140.843 40.113 143.698 40.5358C145.811 39.5846 148.136 39.3732 150.355 39.9016C149.193 39.7959 147.713 39.4789 146.656 39.2676Z" fill="#2A72E5"/>
<path d="M166.528 45.6098C165.155 44.9756 163.253 44.1301 161.878 43.4959C159.131 42.3333 156.066 42.122 153.212 42.7561C155.537 43.4959 157.757 44.3414 159.871 45.2926C163.675 44.8699 167.586 45.7154 170.756 47.8292C169.488 47.195 167.903 46.2438 166.528 45.6098Z" fill="#2A72E5"/>
<path d="M186.395 66.3247C185.444 63.6824 184.176 61.1458 182.59 58.8207L181.639 57.4468C178.151 52.585 172.655 49.52 166.631 49.4143C168.005 50.4712 169.38 51.7394 170.436 53.1135C180.476 54.4874 187.451 63.3654 188.086 75.6254C187.981 72.5603 187.451 69.3897 186.395 66.3247Z" fill="#2A72E5"/>
<path d="M172.019 103.95C173.921 102.682 175.718 101.308 177.515 99.7223C178.149 99.0882 178.994 98.2427 179.628 97.6085C192.205 83.0234 186.498 62.0969 172.971 58.292C173.076 58.9262 173.181 59.666 173.181 60.3001C173.181 60.4058 173.181 60.5115 173.181 60.6172C173.181 61.2513 173.076 61.9912 172.971 62.6252C187.343 69.178 185.97 95.0721 170.645 104.795L172.019 103.95Z" fill="#2A72E5"/>
<path d="M153.104 111.665C155.006 111.137 157.436 110.502 159.339 109.868C177.834 102.893 180.794 74.5681 170.436 67.804C169.273 69.1779 168.005 70.3404 166.631 71.3973C175.403 81.0151 166.42 108.389 149.932 112.299L153.104 111.665Z" fill="#2A72E5"/>
<path d="M131.649 113.884C133.34 113.884 135.665 113.884 137.462 113.779C152.787 112.193 163.672 84.0796 159.868 75.2017C157.754 76.1529 155.429 76.8926 153.21 77.5268C153.21 88.8356 137.991 113.989 127.105 113.672C128.479 113.779 130.275 113.884 131.649 113.884Z" fill="#2A72E5"/>
<path d="M109.349 110.925C111.04 111.348 113.366 111.877 115.056 112.194C121.503 112.617 137.568 90.9501 143.487 79.4299C140.633 79.747 137.779 80.0641 134.926 80.0641C130.275 84.6087 118.016 98.7712 115.585 101.519C109.349 108.706 107.024 110.08 106.284 109.975L109.349 110.925Z" fill="#2A72E5"/>
<path d="M90.7451 102.788C92.6474 104.056 94.5498 105.113 96.5579 106.17L96.7693 106.276C97.0863 104.479 112.411 86.1946 124.142 79.7475C121.394 79.4305 118.647 79.0077 116.004 78.3735C101.948 83.7637 87.5744 100.251 90.0052 102.259L90.7451 102.788Z" fill="#2A72E5"/>
<path d="M80.4957 92.9594C81.1297 93.8049 82.081 95.0732 82.8208 95.9187C79.6501 91.057 92.9668 78.5856 106.812 75.6263C104.698 74.7808 102.69 73.8296 100.788 72.7727C88.1051 74.1466 75.9511 83.1303 78.4876 89.3659C79.0161 90.5286 79.8615 92.0082 80.4957 92.9594Z" fill="#2A72E5"/>
<path d="M75 75.3081C75 75.5195 75 75.7309 75 75.9423C75.1057 76.9991 75.1057 78.3732 75.2113 79.4301C74.8943 72.5603 85.2517 68.1212 94.8693 68.4383C93.7067 67.2757 92.6498 65.9017 91.91 64.5278C83.8778 63.4709 79.4389 65.5847 77.1138 67.4871C75.7399 69.918 75.1057 72.5601 75 75.3081Z" fill="#2A72E5"/>
<path d="M244.211 54.0642H211.659V60.617H224.13V97.6084H231.845V60.617H244.211V54.0642Z" fill="white"/>
<path d="M268.938 68.2274C267.565 66.9591 265.873 65.9021 264.183 65.3738C260.061 63.9997 255.727 63.9997 251.606 65.3738C249.809 66.0079 248.224 66.9591 246.85 68.2274C245.476 69.4956 244.419 71.081 243.785 72.8777C243.045 74.8858 242.623 77.1053 242.728 79.2191V83.0239C242.728 85.1378 243.045 87.3572 243.785 89.3653C244.419 91.162 245.476 92.7474 246.85 94.0157C248.224 95.2839 249.809 96.3408 251.606 96.8693C255.727 98.2432 260.061 98.2432 264.183 96.8693C265.979 96.2351 267.565 95.2839 268.938 94.0157C270.313 92.6417 271.37 91.0564 272.003 89.3653C272.743 87.3572 273.166 85.1378 273.06 83.0239V79.2191C273.06 76.9996 272.743 74.8858 272.003 72.8777C271.37 71.1867 270.313 69.6013 268.938 68.2274ZM260.906 90.9507C258.898 91.5849 256.784 91.5849 254.882 90.9507C254.037 90.6337 253.191 90.2108 252.452 89.471C251.712 88.7312 251.183 87.8857 250.866 86.8287C250.443 85.5605 250.232 84.2922 250.337 82.9182V79.3248C250.127 76.9996 250.866 74.6745 252.345 72.8777C255.622 70.3412 260.166 70.3412 263.443 72.8777C265.028 74.6745 265.768 76.9996 265.451 79.3248V82.9182C265.451 84.2922 265.239 85.5605 264.816 86.8287C264.5 87.7799 263.971 88.7312 263.231 89.471C262.597 90.1052 261.752 90.6337 260.906 90.9507Z" fill="white"/>
<path d="M307.937 65.0555H298.32L286.377 78.5837V54.0637H278.767V97.5022H286.377V87.7788L289.97 83.7625L298.742 97.3965H308.466L295.36 78.3724L307.937 65.0555Z" fill="white"/>
<path d="M333.62 67.066C332.351 66.1148 330.978 65.4806 329.498 65.0579C325.376 63.8953 320.937 64.1067 316.922 65.692C314.913 66.5375 313.117 67.4887 311.32 68.7571L311.215 68.8627L315.019 74.4643L315.125 74.3585C317.661 72.2447 320.937 71.1879 324.214 71.1879C325.799 71.0822 327.279 71.5049 328.547 72.4561C329.498 73.6188 330.026 75.2041 329.921 76.6838V77.8463H322.629C320.726 77.8463 318.718 78.0577 316.815 78.5862C315.442 79.0089 314.068 79.6431 313.01 80.4886C312.06 81.2284 311.32 82.2853 310.897 83.4479C310.475 84.6104 310.263 85.8788 310.263 87.147V89.0494C310.157 91.586 311.215 94.1225 313.222 95.8136C315.547 97.5046 318.507 98.3502 321.36 98.2445C322.311 98.2445 323.157 98.1387 324.108 97.9274C325.059 97.716 325.904 97.3989 326.856 97.0818C327.701 96.7648 328.441 96.2363 329.181 95.7079C329.709 95.2851 330.132 94.7567 330.555 94.1225L330.661 97.8217H337.53V74.9927C337.53 73.5131 337.213 71.9277 336.579 70.5537C335.733 69.0741 334.783 68.0172 333.62 67.066ZM329.815 83.6592V84.3991C329.815 85.3503 329.815 86.4072 329.604 87.3584C329.498 88.2039 329.076 88.8381 328.441 89.4722C326.644 91.0575 324.214 91.7974 321.782 91.586C320.62 91.6917 319.457 91.3746 318.612 90.7405C317.872 90.212 317.45 89.2608 317.555 88.3096V87.5697C317.555 86.5128 317.872 85.456 318.718 84.6104C319.881 83.7649 321.254 83.3422 322.734 83.5536L329.815 83.6592Z" fill="white"/>
<path d="M386.886 67.487C385.829 66.4301 384.667 65.6903 383.294 65.1619C381.919 64.6334 380.44 64.4221 378.96 64.4221C376.847 64.3164 374.838 64.7391 372.935 65.6903C371.35 66.5358 369.976 67.8042 369.025 69.2838C368.391 67.8042 367.228 66.5358 365.749 65.7961C364.058 64.8449 362.261 64.4221 360.359 64.4221C358.456 64.4221 356.554 64.8449 354.864 65.6903C353.384 66.5358 352.221 67.6985 351.481 69.0724V65.0562H344.295V97.6086H351.904V77.6333C351.798 75.8365 352.327 74.0398 353.489 72.7716C354.652 71.7147 356.131 71.0805 357.717 71.1862C358.456 71.1862 359.196 71.2919 359.936 71.5033C360.676 71.7147 361.204 72.1374 361.733 72.6659C362.261 73.3 362.684 74.0398 363.001 74.7796C363.318 75.8365 363.529 76.9991 363.424 78.1618V97.7143H371.033V78.056C371.033 76.8934 371.14 75.8365 371.562 74.7796C371.878 74.0398 372.302 73.3 372.935 72.6659C373.465 72.1374 374.098 71.8204 374.838 71.609C376.212 71.1862 377.692 71.1862 379.172 71.609C379.912 71.8204 380.44 72.1374 380.968 72.6659C381.602 73.3 382.025 74.0398 382.236 74.7796C382.554 75.9422 382.765 77.1048 382.659 78.3731V97.7143H390.269V76.7878C390.269 74.991 389.951 73.0886 389.317 71.3976C388.789 69.8123 387.944 68.5439 386.886 67.487Z" fill="white"/>
<path d="M419.124 67.066C417.856 66.1148 416.482 65.4806 415.002 65.0579C410.88 63.8953 406.442 64.1067 402.425 65.692C400.418 66.5375 398.621 67.4887 396.824 68.7571L396.718 68.8627L400.523 74.4643L400.63 74.3585C403.165 72.2447 406.442 71.1879 409.718 71.1879C411.304 71.0822 412.782 71.5049 414.051 72.4561C415.002 73.6188 415.531 75.2041 415.426 76.6838V77.8463H408.133C406.23 77.8463 404.222 78.0577 402.32 78.5862C400.946 79.0089 399.572 79.6431 398.515 80.4886C397.564 81.2284 396.824 82.2853 396.401 83.4479C395.979 84.6104 395.768 85.8788 395.768 87.147V89.0494C395.661 91.586 396.718 94.1225 398.726 95.8136C401.052 97.5046 404.011 98.3502 406.865 98.2445C407.815 98.2445 408.662 98.1387 409.612 97.9274C410.564 97.716 411.409 97.3989 412.36 97.0818C413.206 96.7648 413.946 96.2363 414.686 95.7079C415.214 95.2851 415.637 94.7567 416.059 94.1225L416.165 97.8217H423.035V74.9927C423.035 73.5131 422.718 71.9277 422.084 70.5537C421.238 69.0741 420.287 68.0172 419.124 67.066ZM415.319 83.6592V84.3991C415.319 85.3503 415.319 86.4072 415.109 87.3584C415.002 88.2039 414.579 88.8381 413.946 89.4722C412.149 91.0575 409.718 91.7974 407.287 91.586C406.125 91.6917 404.962 91.3746 404.117 90.7405C403.377 90.212 402.955 89.2608 403.06 88.3096V87.5697C403.06 86.5128 403.377 85.456 404.222 84.6104C405.385 83.7649 406.759 83.3422 408.239 83.5536L415.319 83.6592Z" fill="white"/>
<path d="M458.967 65.0565H449.35L437.407 78.5847V54.0647H429.797V97.5032H437.407V87.7797L441.001 83.7635L449.773 97.3974H459.495L446.39 78.3733L458.967 65.0565Z" fill="white"/>
<path d="M500.393 80.8035L486.02 54.1697H477.248V97.6081H484.435V67.5923C484.435 67.5923 486.337 70.9743 486.865 71.9255L501.345 97.6081H510.117V54.1697H502.93V85.5595C502.93 85.4539 500.816 81.5432 500.393 80.8035Z" fill="white"/>
<path d="M541.297 67.9096C540.029 66.6414 538.444 65.7958 536.753 65.2674C534.957 64.6333 532.948 64.3163 531.045 64.4219C529.038 64.4219 527.135 64.739 525.233 65.2674C523.436 65.7958 521.851 66.7471 520.583 68.0153C519.209 69.3893 518.152 70.9746 517.413 72.7713C516.566 74.9909 516.249 77.2103 516.249 79.5355V82.9176C516.144 85.4542 516.566 87.885 517.518 90.2102C518.258 92.0068 519.421 93.5922 520.9 94.8605C522.274 96.0231 523.965 96.8687 525.656 97.2914C527.453 97.8199 529.25 98.0312 531.152 98.0312C533.794 98.1369 536.436 97.8199 538.972 97.08C540.981 96.5515 542.777 95.706 544.468 94.5434H544.574L541.404 89.0475H541.297C539.818 89.8931 538.232 90.6329 536.647 91.0558C534.957 91.4785 533.265 91.6898 531.575 91.6898C529.46 91.7955 527.347 91.1614 525.761 89.7874C524.388 88.3078 523.648 86.1939 523.753 84.0802H545.419V78.69C545.419 76.5762 545.102 74.4624 544.363 72.4543C543.623 70.7633 542.566 69.178 541.297 67.9096ZM530.94 70.6576C531.997 70.6576 533.16 70.7632 534.217 71.1861C535.062 71.5031 535.802 71.9258 536.436 72.56C536.964 73.0885 537.387 73.8282 537.704 74.5681C537.916 75.3079 538.127 76.1535 538.127 76.999V78.2672H523.753V77.1047C523.753 75.4136 524.388 73.7226 525.55 72.4543C526.925 71.1861 528.932 70.5519 530.94 70.6576Z" fill="white"/>
<path d="M568.142 90.6324C567.402 90.9494 566.557 91.1608 565.817 91.3721C565.077 91.4778 564.337 91.5836 563.597 91.5836C562.752 91.5836 562.012 91.3721 561.378 90.9494C560.744 90.2096 560.427 89.2584 560.532 88.3072V71.3968H568.671V65.0555H560.532V54.0637L552.923 56.8116V65.0555H547.744V71.3968H552.923V88.3072C552.923 89.6812 553.028 91.0551 553.346 92.429C553.663 93.5917 554.191 94.6486 554.931 95.4941C555.777 96.3396 556.833 97.0794 557.996 97.3965C559.475 97.8192 561.06 98.1362 562.647 98.0306C564.02 98.0306 565.289 97.9249 566.557 97.6079C567.507 97.3965 568.459 97.0794 569.304 96.6567H569.41L568.247 90.5266L568.142 90.6324Z" fill="white"/>
<path d="M602.069 90.1051L596.467 65.1624V65.0566H589.387L583.574 90.1051H583.468L578.712 65.1624V65.0566H570.574L578.606 97.5033V97.6091H587.378L592.663 74.8858H592.768L598.053 97.6091H606.826L614.858 65.2681V65.1624H607.248L602.069 90.1051Z" fill="white"/>
<path d="M643.391 68.2274C642.018 66.9591 640.326 65.9021 638.636 65.3738C634.619 63.9997 630.181 63.9997 626.059 65.3738C624.262 66.0079 622.677 66.9591 621.303 68.2274C619.929 69.4956 618.872 71.081 618.238 72.8777C617.498 74.8858 617.075 77.1053 617.181 79.2191V83.0239C617.181 85.1378 617.498 87.3572 618.238 89.3653C618.872 91.162 619.929 92.7474 621.303 94.0157C622.677 95.2839 624.262 96.3408 626.059 96.8693C630.181 98.2432 634.514 98.2432 638.636 96.8693C640.433 96.2351 642.018 95.2839 643.391 94.0157C644.765 92.6417 645.822 91.0564 646.456 89.3653C647.196 87.3572 647.618 85.1378 647.513 83.0239V79.2191C647.513 76.9996 647.196 74.8858 646.456 72.8777C645.822 71.1867 644.765 69.6013 643.391 68.2274ZM635.359 90.9507C633.351 91.5849 631.237 91.5849 629.335 90.9507C628.489 90.6337 627.644 90.2108 626.904 89.471C626.164 88.7312 625.636 87.8857 625.319 86.8287C624.896 85.5605 624.685 84.2922 624.685 82.9182V79.3248C624.473 76.9996 625.213 74.6745 626.692 72.8777C629.969 70.3412 634.514 70.3412 637.79 72.8777C639.375 74.6745 640.115 76.9996 639.798 79.3248V82.9182C639.798 84.2922 639.586 85.5605 639.269 86.8287C638.953 87.7799 638.424 88.7312 637.684 89.471C637.05 90.1052 636.204 90.6337 635.359 90.9507Z" fill="white"/>
<path d="M672.14 64.5274C671.294 64.4217 670.449 64.316 669.709 64.316C667.701 64.2103 665.693 64.7388 664.002 65.7957C662.629 66.7469 661.466 68.1208 660.62 69.6005V64.9502H653.328V97.5025H660.937V78.2671C660.937 77.3159 661.149 76.259 661.465 75.4134C661.782 74.5679 662.311 73.828 662.945 73.1939C663.579 72.5598 664.319 72.0313 665.164 71.7143C666.01 71.3972 666.961 71.1858 668.018 71.1858C668.758 71.1858 669.603 71.1858 670.343 71.3973C670.978 71.5029 671.506 71.7143 672.034 71.9256H672.14L674.359 65.0558H674.253C673.514 64.8445 672.774 64.633 672.14 64.5274Z" fill="white"/>
<path d="M694.441 78.5837L707.123 65.0555H697.506L685.562 78.5837V54.0637H677.953V97.5022H685.562V87.7788L689.156 83.7625L697.928 97.3965H707.652L694.441 78.5837Z" fill="white"/>
<path d="M807.413 82.14V98.0758H800.078V54.4421H814.938C819.997 54.4421 823.918 55.6436 826.763 57.9834C829.546 60.3232 831 63.738 831 68.2278C831 72.7177 829.546 76.1325 826.763 78.5355C823.981 80.9385 819.997 82.14 814.938 82.14H807.413ZM814.179 75.8163C817.531 75.8163 819.934 75.1839 821.451 73.9192C822.906 72.6544 823.665 70.7573 823.665 68.2278C823.665 65.8248 822.906 63.9909 821.451 62.7262C819.934 61.4615 817.531 60.8291 814.179 60.8291H807.413V75.8163H814.179Z" fill="#2A72E5"/>
<path d="M788.467 98.0758L775.82 78.1561L769.37 86.4401V98.0758H762.034V54.4421H769.37V75.5001L785.432 54.4421H794.411L780.626 72.0221L797.257 98.0758H788.467Z" fill="#2A72E5"/>
<path d="M756.877 54.4421V59.3114L737.59 91.7521H757.51V98.0758H728.231V93.2065L747.518 60.8291H728.231V54.4421H756.877Z" fill="#2A72E5"/>
</svg>
